<?xml version="1.0" encoding="UTF-8"?>
<svg width="1170px" height="32px" viewBox="0 0 1170 32" version="1.1" xmlns="http://www.w3.org/2000/svg" xmlns:xlink="http://www.w3.org/1999/xlink">
    <!-- Generator: sketchtool 63.1 (101010) - https://sketch.com -->
    <title>96568C46-7E83-491C-BBCE-3B0962E90185</title>
    <desc>Created with sketchtool.</desc>
    <g id="apstiprinats" stroke="none" stroke-width="1" fill="none" fill-rule="evenodd" opacity="0.4">
        <g id="EKO-nams-sakumlapa-apstiprinats-dizains-ar-proporciju-2" transform="translate(-135.000000, -971.000000)" fill="#DCDCDC">
            <g id="Group-5" transform="translate(0.000000, 561.000000)">
                <path d="M136.396475,410 L136.396475,441.671975 L135,441.671975 L135,410 L136.396475,410 Z M142.900756,425.835987 L142.900756,441.671975 L141.504281,441.671975 L141.504281,425.835987 L142.900756,425.835987 Z M149.405038,425.835987 L149.405038,441.671975 L148.008563,441.671975 L148.008563,425.835987 L149.405038,425.835987 Z M155.909319,425.835987 L155.909319,441.671975 L154.512844,441.671975 L154.512844,425.835987 L155.909319,425.835987 Z M162.413601,425.835987 L162.413601,441.671975 L161.017126,441.671975 L161.017126,425.835987 L162.413601,425.835987 Z M168.917882,419.315287 L168.917882,441.671975 L167.521407,441.671975 L167.521407,419.315287 L168.917882,419.315287 Z M175.422164,425.835987 L175.422164,441.671975 L174.025689,441.671975 L174.025689,425.835987 L175.422164,425.835987 Z M181.926445,425.835987 L181.926445,441.671975 L180.52997,441.671975 L180.52997,425.835987 L181.926445,425.835987 Z M188.430727,425.835987 L188.430727,441.671975 L187.034252,441.671975 L187.034252,425.835987 L188.430727,425.835987 Z M194.935008,425.835987 L194.935008,441.671975 L193.538533,441.671975 L193.538533,425.835987 L194.935008,425.835987 Z M201.318893,410 L201.318893,441.671975 L199.922418,441.671975 L199.922418,410 L201.318893,410 Z M207.823174,425.835987 L207.823174,441.671975 L206.4267,441.671975 L206.4267,425.835987 L207.823174,425.835987 Z M214.327456,425.835987 L214.327456,441.671975 L212.930981,441.671975 L212.930981,425.835987 L214.327456,425.835987 Z M220.831737,425.835987 L220.831737,441.671975 L219.435263,441.671975 L219.435263,425.835987 L220.831737,425.835987 Z M227.336019,425.835987 L227.336019,441.671975 L225.939544,441.671975 L225.939544,425.835987 L227.336019,425.835987 Z M233.8403,419.315287 L233.8403,441.671975 L232.443825,441.671975 L232.443825,419.315287 L233.8403,419.315287 Z M240.344582,425.835987 L240.344582,441.671975 L238.948107,441.671975 L238.948107,425.835987 L240.344582,425.835987 Z M246.848863,425.835987 L246.848863,441.671975 L245.452388,441.671975 L245.452388,425.835987 L246.848863,425.835987 Z M253.353145,425.835987 L253.353145,441.671975 L251.95667,441.671975 L251.95667,425.835987 L253.353145,425.835987 Z M259.857426,425.835987 L259.857426,441.671975 L258.460951,441.671975 L258.460951,425.835987 L259.857426,425.835987 Z M266.241311,410 L266.241311,441.671975 L264.844836,441.671975 L264.844836,410 L266.241311,410 Z M272.745592,425.835987 L272.745592,441.671975 L271.349118,441.671975 L271.349118,425.835987 L272.745592,425.835987 Z M279.249874,425.835987 L279.249874,441.671975 L277.853399,441.671975 L277.853399,425.835987 L279.249874,425.835987 Z M285.754155,425.835987 L285.754155,441.671975 L284.357681,441.671975 L284.357681,425.835987 L285.754155,425.835987 Z M292.258437,425.835987 L292.258437,441.671975 L290.861962,441.671975 L290.861962,425.835987 L292.258437,425.835987 Z M298.762718,419.315287 L298.762718,441.671975 L297.366244,441.671975 L297.366244,419.315287 L298.762718,419.315287 Z M305.267,425.835987 L305.267,441.671975 L303.870525,441.671975 L303.870525,425.835987 L305.267,425.835987 Z M311.771281,425.835987 L311.771281,441.671975 L310.374806,441.671975 L310.374806,425.835987 L311.771281,425.835987 Z M318.275563,425.835987 L318.275563,441.671975 L316.879088,441.671975 L316.879088,425.835987 L318.275563,425.835987 Z M324.779844,425.835987 L324.779844,441.671975 L323.383369,441.671975 L323.383369,425.835987 L324.779844,425.835987 Z M331.163729,410 L331.163729,441.671975 L329.767254,441.671975 L329.767254,410 L331.163729,410 Z M337.66801,425.835987 L337.66801,441.671975 L336.271536,441.671975 L336.271536,425.835987 L337.66801,425.835987 Z M344.172292,425.835987 L344.172292,441.671975 L342.775817,441.671975 L342.775817,425.835987 L344.172292,425.835987 Z M350.676573,425.835987 L350.676573,441.671975 L349.280099,441.671975 L349.280099,425.835987 L350.676573,425.835987 Z M357.180855,425.835987 L357.180855,441.671975 L355.78438,441.671975 L355.78438,425.835987 L357.180855,425.835987 Z M363.685136,419.315287 L363.685136,441.671975 L362.288662,441.671975 L362.288662,419.315287 L363.685136,419.315287 Z M370.189418,425.835987 L370.189418,441.671975 L368.792943,441.671975 L368.792943,425.835987 L370.189418,425.835987 Z M376.693699,425.835987 L376.693699,441.671975 L375.297225,441.671975 L375.297225,425.835987 L376.693699,425.835987 Z M383.197981,425.835987 L383.197981,441.671975 L381.801506,441.671975 L381.801506,425.835987 L383.197981,425.835987 Z M389.702262,425.835987 L389.702262,441.671975 L388.305788,441.671975 L388.305788,425.835987 L389.702262,425.835987 Z M396.086147,410 L396.086147,441.671975 L394.689672,441.671975 L394.689672,410 L396.086147,410 Z M402.590429,425.835987 L402.590429,441.671975 L401.193954,441.671975 L401.193954,425.835987 L402.590429,425.835987 Z M409.09471,425.835987 L409.09471,441.671975 L407.698235,441.671975 L407.698235,425.835987 L409.09471,425.835987 Z M415.598991,425.835987 L415.598991,441.671975 L414.202517,441.671975 L414.202517,425.835987 L415.598991,425.835987 Z M422.103273,425.835987 L422.103273,441.671975 L420.706798,441.671975 L420.706798,425.835987 L422.103273,425.835987 Z M428.607554,419.315287 L428.607554,441.671975 L427.21108,441.671975 L427.21108,419.315287 L428.607554,419.315287 Z M435.111836,425.835987 L435.111836,441.671975 L433.715361,441.671975 L433.715361,425.835987 L435.111836,425.835987 Z M441.616117,425.835987 L441.616117,441.671975 L440.219643,441.671975 L440.219643,425.835987 L441.616117,425.835987 Z M448.120399,425.835987 L448.120399,441.671975 L446.723924,441.671975 L446.723924,425.835987 L448.120399,425.835987 Z M454.62468,425.835987 L454.62468,441.671975 L453.228206,441.671975 L453.228206,425.835987 L454.62468,425.835987 Z M461.008565,410 L461.008565,441.671975 L459.61209,441.671975 L459.61209,410 L461.008565,410 Z M467.512847,425.835987 L467.512847,441.671975 L466.116372,441.671975 L466.116372,425.835987 L467.512847,425.835987 Z M474.017128,425.835987 L474.017128,441.671975 L472.620653,441.671975 L472.620653,425.835987 L474.017128,425.835987 Z M480.52141,425.835987 L480.52141,441.671975 L479.124935,441.671975 L479.124935,425.835987 L480.52141,425.835987 Z M487.025691,425.835987 L487.025691,441.671975 L485.629216,441.671975 L485.629216,425.835987 L487.025691,425.835987 Z M493.529973,419.315287 L493.529973,441.671975 L492.133498,441.671975 L492.133498,419.315287 L493.529973,419.315287 Z M500.034254,425.835987 L500.034254,441.671975 L498.637779,441.671975 L498.637779,425.835987 L500.034254,425.835987 Z M506.538535,425.835987 L506.538535,441.671975 L505.142061,441.671975 L505.142061,425.835987 L506.538535,425.835987 Z M513.042817,425.835987 L513.042817,441.671975 L511.646342,441.671975 L511.646342,425.835987 L513.042817,425.835987 Z M519.547098,425.835987 L519.547098,441.671975 L518.150624,441.671975 L518.150624,425.835987 L519.547098,425.835987 Z M525.930983,410 L525.930983,441.671975 L524.534508,441.671975 L524.534508,410 L525.930983,410 Z M532.435265,425.835987 L532.435265,441.671975 L531.03879,441.671975 L531.03879,425.835987 L532.435265,425.835987 Z M538.939546,425.835987 L538.939546,441.671975 L537.543071,441.671975 L537.543071,425.835987 L538.939546,425.835987 Z M545.443828,425.835987 L545.443828,441.671975 L544.047353,441.671975 L544.047353,425.835987 L545.443828,425.835987 Z M551.948109,425.835987 L551.948109,441.671975 L550.551634,441.671975 L550.551634,425.835987 L551.948109,425.835987 Z M558.452391,419.315287 L558.452391,441.671975 L557.055916,441.671975 L557.055916,419.315287 L558.452391,419.315287 Z M564.956672,425.835987 L564.956672,441.671975 L563.560197,441.671975 L563.560197,425.835987 L564.956672,425.835987 Z M571.460954,425.835987 L571.460954,441.671975 L570.064479,441.671975 L570.064479,425.835987 L571.460954,425.835987 Z M577.965235,425.835987 L577.965235,441.671975 L576.56876,441.671975 L576.56876,425.835987 L577.965235,425.835987 Z M584.469516,425.835987 L584.469516,441.671975 L583.073042,441.671975 L583.073042,425.835987 L584.469516,425.835987 Z M590.853401,410 L590.853401,441.671975 L589.456926,441.671975 L589.456926,410 L590.853401,410 Z M597.357683,425.835987 L597.357683,441.671975 L595.961208,441.671975 L595.961208,425.835987 L597.357683,425.835987 Z M603.861964,425.835987 L603.861964,441.671975 L602.465489,441.671975 L602.465489,425.835987 L603.861964,425.835987 Z M610.366246,425.835987 L610.366246,441.671975 L608.969771,441.671975 L608.969771,425.835987 L610.366246,425.835987 Z M616.870527,425.835987 L616.870527,441.671975 L615.474052,441.671975 L615.474052,425.835987 L616.870527,425.835987 Z M623.374809,419.315287 L623.374809,441.671975 L621.978334,441.671975 L621.978334,419.315287 L623.374809,419.315287 Z M629.87909,425.835987 L629.87909,441.671975 L628.482615,441.671975 L628.482615,425.835987 L629.87909,425.835987 Z M636.383372,425.835987 L636.383372,441.671975 L634.986897,441.671975 L634.986897,425.835987 L636.383372,425.835987 Z M642.887653,425.835987 L642.887653,441.671975 L641.491178,441.671975 L641.491178,425.835987 L642.887653,425.835987 Z M649.391935,425.835987 L649.391935,441.671975 L647.99546,441.671975 L647.99546,425.835987 L649.391935,425.835987 Z M655.775819,410 L655.775819,441.671975 L654.379345,441.671975 L654.379345,410 L655.775819,410 Z M662.280101,425.835987 L662.280101,441.671975 L660.883626,441.671975 L660.883626,425.835987 L662.280101,425.835987 Z M668.784382,425.835987 L668.784382,441.671975 L667.387907,441.671975 L667.387907,425.835987 L668.784382,425.835987 Z M675.288664,425.835987 L675.288664,441.671975 L673.892189,441.671975 L673.892189,425.835987 L675.288664,425.835987 Z M681.792945,425.835987 L681.792945,441.671975 L680.39647,441.671975 L680.39647,425.835987 L681.792945,425.835987 Z M688.297227,419.315287 L688.297227,441.671975 L686.900752,441.671975 L686.900752,419.315287 L688.297227,419.315287 Z M694.801508,425.835987 L694.801508,441.671975 L693.405033,441.671975 L693.405033,425.835987 L694.801508,425.835987 Z M701.30579,425.835987 L701.30579,441.671975 L699.909315,441.671975 L699.909315,425.835987 L701.30579,425.835987 Z M707.810071,425.835987 L707.810071,441.671975 L706.413596,441.671975 L706.413596,425.835987 L707.810071,425.835987 Z M714.314353,425.835987 L714.314353,441.671975 L712.917878,441.671975 L712.917878,425.835987 L714.314353,425.835987 Z M720.698237,410 L720.698237,441.671975 L719.301763,441.671975 L719.301763,410 L720.698237,410 Z M727.202519,425.835987 L727.202519,441.671975 L725.806044,441.671975 L725.806044,425.835987 L727.202519,425.835987 Z M733.7068,425.835987 L733.7068,441.671975 L732.310326,441.671975 L732.310326,425.835987 L733.7068,425.835987 Z M740.211082,425.835987 L740.211082,441.671975 L738.814607,441.671975 L738.814607,425.835987 L740.211082,425.835987 Z M746.715363,425.835987 L746.715363,441.671975 L745.318889,441.671975 L745.318889,425.835987 L746.715363,425.835987 Z M753.219645,419.315287 L753.219645,441.671975 L751.82317,441.671975 L751.82317,419.315287 L753.219645,419.315287 Z M759.723926,425.835987 L759.723926,441.671975 L758.327451,441.671975 L758.327451,425.835987 L759.723926,425.835987 Z M766.228208,425.835987 L766.228208,441.671975 L764.831733,441.671975 L764.831733,425.835987 L766.228208,425.835987 Z M772.732489,425.835987 L772.732489,441.671975 L771.336014,441.671975 L771.336014,425.835987 L772.732489,425.835987 Z M779.236771,425.835987 L779.236771,441.671975 L777.840296,441.671975 L777.840296,425.835987 L779.236771,425.835987 Z M785.620655,410 L785.620655,441.671975 L784.224181,441.671975 L784.224181,410 L785.620655,410 Z M792.124937,425.835987 L792.124937,441.671975 L790.728462,441.671975 L790.728462,425.835987 L792.124937,425.835987 Z M798.629218,425.835987 L798.629218,441.671975 L797.232744,441.671975 L797.232744,425.835987 L798.629218,425.835987 Z M805.1335,425.835987 L805.1335,441.671975 L803.737025,441.671975 L803.737025,425.835987 L805.1335,425.835987 Z M811.637781,425.835987 L811.637781,441.671975 L810.241307,441.671975 L810.241307,425.835987 L811.637781,425.835987 Z M818.142063,419.315287 L818.142063,441.671975 L816.745588,441.671975 L816.745588,419.315287 L818.142063,419.315287 Z M824.646344,425.835987 L824.646344,441.671975 L823.24987,441.671975 L823.24987,425.835987 L824.646344,425.835987 Z M831.150626,425.835987 L831.150626,441.671975 L829.754151,441.671975 L829.754151,425.835987 L831.150626,425.835987 Z M837.654907,425.835987 L837.654907,441.671975 L836.258432,441.671975 L836.258432,425.835987 L837.654907,425.835987 Z M844.159189,425.835987 L844.159189,441.671975 L842.762714,441.671975 L842.762714,425.835987 L844.159189,425.835987 Z M850.543074,410 L850.543074,441.671975 L849.146599,441.671975 L849.146599,410 L850.543074,410 Z M857.047355,425.835987 L857.047355,441.671975 L855.65088,441.671975 L855.65088,425.835987 L857.047355,425.835987 Z M863.551636,425.835987 L863.551636,441.671975 L862.155162,441.671975 L862.155162,425.835987 L863.551636,425.835987 Z M870.055918,425.835987 L870.055918,441.671975 L868.659443,441.671975 L868.659443,425.835987 L870.055918,425.835987 Z M876.560199,425.835987 L876.560199,441.671975 L875.163725,441.671975 L875.163725,425.835987 L876.560199,425.835987 Z M883.064481,419.315287 L883.064481,441.671975 L881.668006,441.671975 L881.668006,419.315287 L883.064481,419.315287 Z M889.568762,425.835987 L889.568762,441.671975 L888.172288,441.671975 L888.172288,425.835987 L889.568762,425.835987 Z M896.073044,425.835987 L896.073044,441.671975 L894.676569,441.671975 L894.676569,425.835987 L896.073044,425.835987 Z M902.577325,425.835987 L902.577325,441.671975 L901.180851,441.671975 L901.180851,425.835987 L902.577325,425.835987 Z M909.081607,425.835987 L909.081607,441.671975 L907.685132,441.671975 L907.685132,425.835987 L909.081607,425.835987 Z M915.465492,410 L915.465492,441.671975 L914.069017,441.671975 L914.069017,410 L915.465492,410 Z M921.969773,425.835987 L921.969773,441.671975 L920.573298,441.671975 L920.573298,425.835987 L921.969773,425.835987 Z M928.474055,425.835987 L928.474055,441.671975 L927.07758,441.671975 L927.07758,425.835987 L928.474055,425.835987 Z M934.978336,425.835987 L934.978336,441.671975 L933.581861,441.671975 L933.581861,425.835987 L934.978336,425.835987 Z M941.482618,425.835987 L941.482618,441.671975 L940.086143,441.671975 L940.086143,425.835987 L941.482618,425.835987 Z M947.986899,419.315287 L947.986899,441.671975 L946.590424,441.671975 L946.590424,419.315287 L947.986899,419.315287 Z M954.49118,425.835987 L954.49118,441.671975 L953.094706,441.671975 L953.094706,425.835987 L954.49118,425.835987 Z M960.995462,425.835987 L960.995462,441.671975 L959.598987,441.671975 L959.598987,425.835987 L960.995462,425.835987 Z M967.499743,425.835987 L967.499743,441.671975 L966.103269,441.671975 L966.103269,425.835987 L967.499743,425.835987 Z M974.004025,425.835987 L974.004025,441.671975 L972.60755,441.671975 L972.60755,425.835987 L974.004025,425.835987 Z M980.38791,410 L980.38791,441.671975 L978.991435,441.671975 L978.991435,410 L980.38791,410 Z M986.892191,425.835987 L986.892191,441.671975 L985.495716,441.671975 L985.495716,425.835987 L986.892191,425.835987 Z M993.396473,425.835987 L993.396473,441.671975 L991.999998,441.671975 L991.999998,425.835987 L993.396473,425.835987 Z M999.900754,425.835987 L999.900754,441.671975 L998.504279,441.671975 L998.504279,425.835987 L999.900754,425.835987 Z M1006.40504,425.835987 L1006.40504,441.671975 L1005.00856,441.671975 L1005.00856,425.835987 L1006.40504,425.835987 Z M1012.90932,419.315287 L1012.90932,441.671975 L1011.51284,441.671975 L1011.51284,419.315287 L1012.90932,419.315287 Z M1019.4136,425.835987 L1019.4136,441.671975 L1018.01712,441.671975 L1018.01712,425.835987 L1019.4136,425.835987 Z M1025.91788,425.835987 L1025.91788,441.671975 L1024.52141,441.671975 L1024.52141,425.835987 L1025.91788,425.835987 Z M1032.42216,425.835987 L1032.42216,441.671975 L1031.02569,441.671975 L1031.02569,425.835987 L1032.42216,425.835987 Z M1038.92644,425.835987 L1038.92644,441.671975 L1037.52997,441.671975 L1037.52997,425.835987 L1038.92644,425.835987 Z M1045.31033,410 L1045.31033,441.671975 L1043.91385,441.671975 L1043.91385,410 L1045.31033,410 Z M1051.81461,425.835987 L1051.81461,441.671975 L1050.41813,441.671975 L1050.41813,425.835987 L1051.81461,425.835987 Z M1058.31889,425.835987 L1058.31889,441.671975 L1056.92242,441.671975 L1056.92242,425.835987 L1058.31889,425.835987 Z M1064.82317,425.835987 L1064.82317,441.671975 L1063.4267,441.671975 L1063.4267,425.835987 L1064.82317,425.835987 Z M1071.32745,425.835987 L1071.32745,441.671975 L1069.93098,441.671975 L1069.93098,425.835987 L1071.32745,425.835987 Z M1077.83174,419.315287 L1077.83174,441.671975 L1076.43526,441.671975 L1076.43526,419.315287 L1077.83174,419.315287 Z M1084.33602,425.835987 L1084.33602,441.671975 L1082.93954,441.671975 L1082.93954,425.835987 L1084.33602,425.835987 Z M1090.8403,425.835987 L1090.8403,441.671975 L1089.44382,441.671975 L1089.44382,425.835987 L1090.8403,425.835987 Z M1097.34458,425.835987 L1097.34458,441.671975 L1095.9481,441.671975 L1095.9481,425.835987 L1097.34458,425.835987 Z M1103.84886,425.835987 L1103.84886,441.671975 L1102.45239,441.671975 L1102.45239,425.835987 L1103.84886,425.835987 Z M1110.23275,410 L1110.23275,441.671975 L1108.83627,441.671975 L1108.83627,410 L1110.23275,410 Z M1116.73703,425.835987 L1116.73703,441.671975 L1115.34055,441.671975 L1115.34055,425.835987 L1116.73703,425.835987 Z M1123.24131,425.835987 L1123.24131,441.671975 L1121.84483,441.671975 L1121.84483,425.835987 L1123.24131,425.835987 Z M1129.74559,425.835987 L1129.74559,441.671975 L1128.34912,441.671975 L1128.34912,425.835987 L1129.74559,425.835987 Z M1136.24987,425.835987 L1136.24987,441.671975 L1134.8534,441.671975 L1134.8534,425.835987 L1136.24987,425.835987 Z M1142.75415,419.315287 L1142.75415,441.671975 L1141.35768,441.671975 L1141.35768,419.315287 L1142.75415,419.315287 Z M1149.25843,425.835987 L1149.25843,441.671975 L1147.86196,441.671975 L1147.86196,425.835987 L1149.25843,425.835987 Z M1155.76272,425.835987 L1155.76272,441.671975 L1154.36624,441.671975 L1154.36624,425.835987 L1155.76272,425.835987 Z M1162.267,425.835987 L1162.267,441.671975 L1160.87052,441.671975 L1160.87052,425.835987 L1162.267,425.835987 Z M1168.77128,425.835987 L1168.77128,441.671975 L1167.3748,441.671975 L1167.3748,425.835987 L1168.77128,425.835987 Z M1175.15516,410 L1175.15516,441.671975 L1173.75869,441.671975 L1173.75869,410 L1175.15516,410 Z M1181.65945,425.835987 L1181.65945,441.671975 L1180.26297,441.671975 L1180.26297,425.835987 L1181.65945,425.835987 Z M1188.16373,425.835987 L1188.16373,441.671975 L1186.76725,441.671975 L1186.76725,425.835987 L1188.16373,425.835987 Z M1194.66801,425.835987 L1194.66801,441.671975 L1193.27153,441.671975 L1193.27153,425.835987 L1194.66801,425.835987 Z M1201.17229,425.835987 L1201.17229,441.671975 L1199.77581,441.671975 L1199.77581,425.835987 L1201.17229,425.835987 Z M1207.67657,419.315287 L1207.67657,441.671975 L1206.2801,441.671975 L1206.2801,419.315287 L1207.67657,419.315287 Z M1214.18085,425.835987 L1214.18085,441.671975 L1212.78438,441.671975 L1212.78438,425.835987 L1214.18085,425.835987 Z M1220.68513,425.835987 L1220.68513,441.671975 L1219.28866,441.671975 L1219.28866,425.835987 L1220.68513,425.835987 Z M1227.18942,425.835987 L1227.18942,441.671975 L1225.79294,441.671975 L1225.79294,425.835987 L1227.18942,425.835987 Z M1233.6937,425.835987 L1233.6937,441.671975 L1232.29722,441.671975 L1232.29722,425.835987 L1233.6937,425.835987 Z M1240.07758,410 L1240.07758,441.671975 L1238.68111,441.671975 L1238.68111,410 L1240.07758,410 Z M1246.58186,425.835987 L1246.58186,441.671975 L1245.18539,441.671975 L1245.18539,425.835987 L1246.58186,425.835987 Z M1253.08614,425.835987 L1253.08614,441.671975 L1251.68967,441.671975 L1251.68967,425.835987 L1253.08614,425.835987 Z M1259.59043,425.835987 L1259.59043,441.671975 L1258.19395,441.671975 L1258.19395,425.835987 L1259.59043,425.835987 Z M1266.09471,425.835987 L1266.09471,441.671975 L1264.69823,441.671975 L1264.69823,425.835987 L1266.09471,425.835987 Z M1272.59899,419.315287 L1272.59899,441.671975 L1271.20251,441.671975 L1271.20251,419.315287 L1272.59899,419.315287 Z M1279.10327,425.835987 L1279.10327,441.671975 L1277.7068,441.671975 L1277.7068,425.835987 L1279.10327,425.835987 Z M1285.60755,425.835987 L1285.60755,441.671975 L1284.21108,441.671975 L1284.21108,425.835987 L1285.60755,425.835987 Z M1292.11183,425.835987 L1292.11183,441.671975 L1290.71536,441.671975 L1290.71536,425.835987 L1292.11183,425.835987 Z M1298.61612,425.835987 L1298.61612,441.671975 L1297.21964,441.671975 L1297.21964,425.835987 L1298.61612,425.835987 Z M1305,410 L1305,441.671975 L1303.60353,441.671975 L1303.60353,410 L1305,410 Z" id="lineala-raksts"></path>
            </g>
        </g>
    </g>
</svg>