<?xml version="1.0" encoding="UTF-8"?>
<svg width="93px" height="32px" viewBox="0 0 93 32" version="1.1" xmlns="http://www.w3.org/2000/svg" xmlns:xlink="http://www.w3.org/1999/xlink">
    <!-- Generator: sketchtool 63.1 (101010) - https://sketch.com -->
    <title>E1FCE417-C79A-41E8-88D8-CB002FD11879</title>
    <desc>Created with sketchtool.</desc>
    <g id="apstiprinats" stroke="none" stroke-width="1" fill="none" fill-rule="evenodd">
        <g id="EKO-nams-sakumlapa-apstiprinats-dizains-ar-proporciju-2" transform="translate(-1260.000000, -3600.000000)" fill="#CCC8C8">
            <g id="Footer" transform="translate(60.000000, 3394.000000)">
                <g id="Footer-bottom" transform="translate(0.000000, 199.000000)">
                    <g id="Shape-2" transform="translate(25.000000, 0.000000)">
                        <g id="Shape-3" transform="translate(0.000000, -0.000000)">
                            <g transform="translate(-0.000000, 0.000000)" id="Group-9">
                                <g transform="translate(0.000000, 7.000000)">
                                    <path d="M1176.90076,15.8359873 L1176.90076,31.6719745 L1175.50428,31.6719745 L1175.50428,15.8359873 L1176.90076,15.8359873 Z M1183.40504,15.8359873 L1183.40504,31.6719745 L1182.00856,31.6719745 L1182.00856,15.8359873 L1183.40504,15.8359873 Z M1189.90932,15.8359873 L1189.90932,31.6719745 L1188.51284,31.6719745 L1188.51284,15.8359873 L1189.90932,15.8359873 Z M1196.4136,15.8359873 L1196.4136,31.6719745 L1195.01713,31.6719745 L1195.01713,15.8359873 L1196.4136,15.8359873 Z M1202.91788,9.31528662 L1202.91788,31.6719745 L1201.52141,31.6719745 L1201.52141,9.31528662 L1202.91788,9.31528662 Z M1209.42216,15.8359873 L1209.42216,31.6719745 L1208.02569,31.6719745 L1208.02569,15.8359873 L1209.42216,15.8359873 Z M1215.92645,15.8359873 L1215.92645,31.6719745 L1214.52997,31.6719745 L1214.52997,15.8359873 L1215.92645,15.8359873 Z M1222.43073,15.8359873 L1222.43073,31.6719745 L1221.03425,31.6719745 L1221.03425,15.8359873 L1222.43073,15.8359873 Z M1228.93501,15.8359873 L1228.93501,31.6719745 L1227.53853,31.6719745 L1227.53853,15.8359873 L1228.93501,15.8359873 Z M1235.31889,7.38964445e-13 L1235.31889,31.6719745 L1233.92242,31.6719745 L1233.92242,7.38964445e-13 L1235.31889,7.38964445e-13 Z M1241.82317,15.8359873 L1241.82317,31.6719745 L1240.4267,31.6719745 L1240.4267,15.8359873 L1241.82317,15.8359873 Z M1248.32746,15.8359873 L1248.32746,31.6719745 L1246.93098,31.6719745 L1246.93098,15.8359873 L1248.32746,15.8359873 Z M1254.83174,15.8359873 L1254.83174,31.6719745 L1253.43526,31.6719745 L1253.43526,15.8359873 L1254.83174,15.8359873 Z M1261.33602,15.8359873 L1261.33602,31.6719745 L1259.93954,31.6719745 L1259.93954,15.8359873 L1261.33602,15.8359873 Z M1267.8403,9.31528662 L1267.8403,31.6719745 L1266.44383,31.6719745 L1266.44383,9.31528662 L1267.8403,9.31528662 Z M1274.34458,15.8359873 L1274.34458,31.6719745 L1272.94811,31.6719745 L1272.94811,15.8359873 L1274.34458,15.8359873 Z M1280.84886,15.8359873 L1280.84886,31.6719745 L1279.45239,31.6719745 L1279.45239,15.8359873 L1280.84886,15.8359873 Z M1287.35314,15.8359873 L1287.35314,31.6719745 L1285.95667,31.6719745 L1285.95667,15.8359873 L1287.35314,15.8359873 Z M1293.85743,15.8359873 L1293.85743,31.6719745 L1292.46095,31.6719745 L1292.46095,15.8359873 L1293.85743,15.8359873 Z M1300.24131,7.38964445e-13 L1300.24131,31.6719745 L1298.84484,31.6719745 L1298.84484,7.38964445e-13 L1300.24131,7.38964445e-13 Z M1306.74559,15.8359873 L1306.74559,31.6719745 L1305.34912,31.6719745 L1305.34912,15.8359873 L1306.74559,15.8359873 Z M1313.24987,15.8359873 L1313.24987,31.6719745 L1311.8534,31.6719745 L1311.8534,15.8359873 L1313.24987,15.8359873 Z M1319.75416,15.8359873 L1319.75416,31.6719745 L1318.35768,31.6719745 L1318.35768,15.8359873 L1319.75416,15.8359873 Z M1326.25844,15.8359873 L1326.25844,31.6719745 L1324.86196,31.6719745 L1324.86196,15.8359873 L1326.25844,15.8359873 Z M1332.76272,9.31528662 L1332.76272,31.6719745 L1331.36624,31.6719745 L1331.36624,9.31528662 L1332.76272,9.31528662 Z M1339.267,15.8359873 L1339.267,31.6719745 L1337.87053,31.6719745 L1337.87053,15.8359873 L1339.267,15.8359873 Z M1345.77128,15.8359873 L1345.77128,31.6719745 L1344.37481,31.6719745 L1344.37481,15.8359873 L1345.77128,15.8359873 Z M1352.27556,15.8359873 L1352.27556,31.6719745 L1350.87909,31.6719745 L1350.87909,15.8359873 L1352.27556,15.8359873 Z M1358.77984,15.8359873 L1358.77984,31.6719745 L1357.38337,31.6719745 L1357.38337,15.8359873 L1358.77984,15.8359873 Z M1365.16373,7.38964445e-13 L1365.16373,31.6719745 L1363.76725,31.6719745 L1363.76725,7.38964445e-13 L1365.16373,7.38964445e-13 Z M1371.66801,15.8359873 L1371.66801,31.6719745 L1370.27154,31.6719745 L1370.27154,15.8359873 L1371.66801,15.8359873 Z M1378.17229,15.8359873 L1378.17229,31.6719745 L1376.77582,31.6719745 L1376.77582,15.8359873 L1378.17229,15.8359873 Z M1384.67657,15.8359873 L1384.67657,31.6719745 L1383.2801,31.6719745 L1383.2801,15.8359873 L1384.67657,15.8359873 Z M1391.18085,15.8359873 L1391.18085,31.6719745 L1389.78438,31.6719745 L1389.78438,15.8359873 L1391.18085,15.8359873 Z M1397.68514,9.31528662 L1397.68514,31.6719745 L1396.28866,31.6719745 L1396.28866,9.31528662 L1397.68514,9.31528662 Z M1404.18942,15.8359873 L1404.18942,31.6719745 L1402.79294,31.6719745 L1402.79294,15.8359873 L1404.18942,15.8359873 Z M1410.6937,15.8359873 L1410.6937,31.6719745 L1409.29722,31.6719745 L1409.29722,15.8359873 L1410.6937,15.8359873 Z M1417.19798,15.8359873 L1417.19798,31.6719745 L1415.80151,31.6719745 L1415.80151,15.8359873 L1417.19798,15.8359873 Z M1423.70226,15.8359873 L1423.70226,31.6719745 L1422.30579,31.6719745 L1422.30579,15.8359873 L1423.70226,15.8359873 Z M1430.08615,7.38964445e-13 L1430.08615,31.6719745 L1428.68967,31.6719745 L1428.68967,7.38964445e-13 L1430.08615,7.38964445e-13 Z M1436.59043,15.8359873 L1436.59043,31.6719745 L1435.19395,31.6719745 L1435.19395,15.8359873 L1436.59043,15.8359873 Z M1443.09471,15.8359873 L1443.09471,31.6719745 L1441.69824,31.6719745 L1441.69824,15.8359873 L1443.09471,15.8359873 Z M1449.59899,15.8359873 L1449.59899,31.6719745 L1448.20252,31.6719745 L1448.20252,15.8359873 L1449.59899,15.8359873 Z M1456.10327,15.8359873 L1456.10327,31.6719745 L1454.7068,31.6719745 L1454.7068,15.8359873 L1456.10327,15.8359873 Z M1462.60755,9.31528662 L1462.60755,31.6719745 L1461.21108,31.6719745 L1461.21108,9.31528662 L1462.60755,9.31528662 Z M1469.11184,15.8359873 L1469.11184,31.6719745 L1467.71536,31.6719745 L1467.71536,15.8359873 L1469.11184,15.8359873 Z M1475.61612,15.8359873 L1475.61612,31.6719745 L1474.21964,31.6719745 L1474.21964,15.8359873 L1475.61612,15.8359873 Z M1482.1204,15.8359873 L1482.1204,31.6719745 L1480.72392,31.6719745 L1480.72392,15.8359873 L1482.1204,15.8359873 Z M1488.62468,15.8359873 L1488.62468,31.6719745 L1487.22821,31.6719745 L1487.22821,15.8359873 L1488.62468,15.8359873 Z M1495.00857,7.38964445e-13 L1495.00857,31.6719745 L1493.61209,31.6719745 L1493.61209,7.38964445e-13 L1495.00857,7.38964445e-13 Z M1501.51285,15.8359873 L1501.51285,31.6719745 L1500.11637,31.6719745 L1500.11637,15.8359873 L1501.51285,15.8359873 Z M1508.01713,15.8359873 L1508.01713,31.6719745 L1506.62065,31.6719745 L1506.62065,15.8359873 L1508.01713,15.8359873 Z M1514.52141,15.8359873 L1514.52141,31.6719745 L1513.12493,31.6719745 L1513.12493,15.8359873 L1514.52141,15.8359873 Z M1521.02569,15.8359873 L1521.02569,31.6719745 L1519.62922,31.6719745 L1519.62922,15.8359873 L1521.02569,15.8359873 Z M1527.52997,9.31528662 L1527.52997,31.6719745 L1526.1335,31.6719745 L1526.1335,9.31528662 L1527.52997,9.31528662 Z M1534.03425,15.8359873 L1534.03425,31.6719745 L1532.63778,31.6719745 L1532.63778,15.8359873 L1534.03425,15.8359873 Z M1540.53854,15.8359873 L1540.53854,31.6719745 L1539.14206,31.6719745 L1539.14206,15.8359873 L1540.53854,15.8359873 Z M1547.04282,15.8359873 L1547.04282,31.6719745 L1545.64634,31.6719745 L1545.64634,15.8359873 L1547.04282,15.8359873 Z M1553.5471,15.8359873 L1553.5471,31.6719745 L1552.15062,31.6719745 L1552.15062,15.8359873 L1553.5471,15.8359873 Z M1559.93098,7.38964445e-13 L1559.93098,31.6719745 L1558.53451,31.6719745 L1558.53451,7.38964445e-13 L1559.93098,7.38964445e-13 Z M1566.43526,15.8359873 L1566.43526,31.6719745 L1565.03879,31.6719745 L1565.03879,15.8359873 L1566.43526,15.8359873 Z M1572.93955,15.8359873 L1572.93955,31.6719745 L1571.54307,31.6719745 L1571.54307,15.8359873 L1572.93955,15.8359873 Z M1579.44383,15.8359873 L1579.44383,31.6719745 L1578.04735,31.6719745 L1578.04735,15.8359873 L1579.44383,15.8359873 Z M1585.94811,15.8359873 L1585.94811,31.6719745 L1584.55163,31.6719745 L1584.55163,15.8359873 L1585.94811,15.8359873 Z M1592.45239,9.31528662 L1592.45239,31.6719745 L1591.05592,31.6719745 L1591.05592,9.31528662 L1592.45239,9.31528662 Z M1598.95667,15.8359873 L1598.95667,31.6719745 L1597.5602,31.6719745 L1597.5602,15.8359873 L1598.95667,15.8359873 Z M1605.46095,15.8359873 L1605.46095,31.6719745 L1604.06448,31.6719745 L1604.06448,15.8359873 L1605.46095,15.8359873 Z M1611.96524,15.8359873 L1611.96524,31.6719745 L1610.56876,31.6719745 L1610.56876,15.8359873 L1611.96524,15.8359873 Z M1618.46952,15.8359873 L1618.46952,31.6719745 L1617.07304,31.6719745 L1617.07304,15.8359873 L1618.46952,15.8359873 Z M1624.8534,7.38964445e-13 L1624.8534,31.6719745 L1623.45693,31.6719745 L1623.45693,7.38964445e-13 L1624.8534,7.38964445e-13 Z M1631.35768,15.8359873 L1631.35768,31.6719745 L1629.96121,31.6719745 L1629.96121,15.8359873 L1631.35768,15.8359873 Z M1637.86196,15.8359873 L1637.86196,31.6719745 L1636.46549,31.6719745 L1636.46549,15.8359873 L1637.86196,15.8359873 Z M1644.36625,15.8359873 L1644.36625,31.6719745 L1642.96977,31.6719745 L1642.96977,15.8359873 L1644.36625,15.8359873 Z M1650.87053,15.8359873 L1650.87053,31.6719745 L1649.47405,31.6719745 L1649.47405,15.8359873 L1650.87053,15.8359873 Z M1657.37481,9.31528662 L1657.37481,31.6719745 L1655.97833,31.6719745 L1655.97833,9.31528662 L1657.37481,9.31528662 Z M1663.87909,15.8359873 L1663.87909,31.6719745 L1662.48262,31.6719745 L1662.48262,15.8359873 L1663.87909,15.8359873 Z M1670.38337,15.8359873 L1670.38337,31.6719745 L1668.9869,31.6719745 L1668.9869,15.8359873 L1670.38337,15.8359873 Z M1676.88765,15.8359873 L1676.88765,31.6719745 L1675.49118,31.6719745 L1675.49118,15.8359873 L1676.88765,15.8359873 Z M1683.39193,15.8359873 L1683.39193,31.6719745 L1681.99546,31.6719745 L1681.99546,15.8359873 L1683.39193,15.8359873 Z M1689.77582,7.38964445e-13 L1689.77582,31.6719745 L1688.37934,31.6719745 L1688.37934,7.38964445e-13 L1689.77582,7.38964445e-13 Z M1696.2801,15.8359873 L1696.2801,31.6719745 L1694.88363,31.6719745 L1694.88363,15.8359873 L1696.2801,15.8359873 Z M1702.78438,15.8359873 L1702.78438,31.6719745 L1701.38791,31.6719745 L1701.38791,15.8359873 L1702.78438,15.8359873 Z M1709.28866,15.8359873 L1709.28866,31.6719745 L1707.89219,31.6719745 L1707.89219,15.8359873 L1709.28866,15.8359873 Z M1715.79295,15.8359873 L1715.79295,31.6719745 L1714.39647,31.6719745 L1714.39647,15.8359873 L1715.79295,15.8359873 Z M1722.29723,9.31528662 L1722.29723,31.6719745 L1720.90075,31.6719745 L1720.90075,9.31528662 L1722.29723,9.31528662 Z M1728.80151,15.8359873 L1728.80151,31.6719745 L1727.40503,31.6719745 L1727.40503,15.8359873 L1728.80151,15.8359873 Z M1735.30579,15.8359873 L1735.30579,31.6719745 L1733.90931,31.6719745 L1733.90931,15.8359873 L1735.30579,15.8359873 Z M1741.81007,15.8359873 L1741.81007,31.6719745 L1740.4136,31.6719745 L1740.4136,15.8359873 L1741.81007,15.8359873 Z M1748.31435,15.8359873 L1748.31435,31.6719745 L1746.91788,31.6719745 L1746.91788,15.8359873 L1748.31435,15.8359873 Z M1754.69824,7.38964445e-13 L1754.69824,31.6719745 L1753.30176,31.6719745 L1753.30176,7.38964445e-13 L1754.69824,7.38964445e-13 Z M1761.20252,15.8359873 L1761.20252,31.6719745 L1759.80604,31.6719745 L1759.80604,15.8359873 L1761.20252,15.8359873 Z M1767.7068,15.8359873 L1767.7068,31.6719745 L1766.31033,31.6719745 L1766.31033,15.8359873 L1767.7068,15.8359873 Z M1774.21108,15.8359873 L1774.21108,31.6719745 L1772.81461,31.6719745 L1772.81461,15.8359873 L1774.21108,15.8359873 Z M1780.71536,15.8359873 L1780.71536,31.6719745 L1779.31889,31.6719745 L1779.31889,15.8359873 L1780.71536,15.8359873 Z M1787.21964,9.31528662 L1787.21964,31.6719745 L1785.82317,31.6719745 L1785.82317,9.31528662 L1787.21964,9.31528662 Z M1793.72393,15.8359873 L1793.72393,31.6719745 L1792.32745,31.6719745 L1792.32745,15.8359873 L1793.72393,15.8359873 Z M1800.22821,15.8359873 L1800.22821,31.6719745 L1798.83173,31.6719745 L1798.83173,15.8359873 L1800.22821,15.8359873 Z M1806.73249,15.8359873 L1806.73249,31.6719745 L1805.33601,31.6719745 L1805.33601,15.8359873 L1806.73249,15.8359873 Z M1813.23677,15.8359873 L1813.23677,31.6719745 L1811.8403,31.6719745 L1811.8403,15.8359873 L1813.23677,15.8359873 Z M1819.62066,7.38964445e-13 L1819.62066,31.6719745 L1818.22418,31.6719745 L1818.22418,7.38964445e-13 L1819.62066,7.38964445e-13 Z M1826.12494,15.8359873 L1826.12494,31.6719745 L1824.72846,31.6719745 L1824.72846,15.8359873 L1826.12494,15.8359873 Z M1832.62922,15.8359873 L1832.62922,31.6719745 L1831.23274,31.6719745 L1831.23274,15.8359873 L1832.62922,15.8359873 Z M1839.1335,15.8359873 L1839.1335,31.6719745 L1837.73703,31.6719745 L1837.73703,15.8359873 L1839.1335,15.8359873 Z M1845.63778,15.8359873 L1845.63778,31.6719745 L1844.24131,31.6719745 L1844.24131,15.8359873 L1845.63778,15.8359873 Z M1852.14206,9.31528662 L1852.14206,31.6719745 L1850.74559,31.6719745 L1850.74559,9.31528662 L1852.14206,9.31528662 Z M1858.64634,15.8359873 L1858.64634,31.6719745 L1857.24987,31.6719745 L1857.24987,15.8359873 L1858.64634,15.8359873 Z M1865.15063,15.8359873 L1865.15063,31.6719745 L1863.75415,31.6719745 L1863.75415,15.8359873 L1865.15063,15.8359873 Z M1871.65491,15.8359873 L1871.65491,31.6719745 L1870.25843,31.6719745 L1870.25843,15.8359873 L1871.65491,15.8359873 Z M1878.15919,15.8359873 L1878.15919,31.6719745 L1876.76271,31.6719745 L1876.76271,15.8359873 L1878.15919,15.8359873 Z M1884.54307,7.38964445e-13 L1884.54307,31.6719745 L1883.1466,31.6719745 L1883.1466,7.38964445e-13 L1884.54307,7.38964445e-13 Z M1891.04736,15.8359873 L1891.04736,31.6719745 L1889.65088,31.6719745 L1889.65088,15.8359873 L1891.04736,15.8359873 Z M1897.55164,15.8359873 L1897.55164,31.6719745 L1896.15516,31.6719745 L1896.15516,15.8359873 L1897.55164,15.8359873 Z M1904.05592,15.8359873 L1904.05592,31.6719745 L1902.65944,31.6719745 L1902.65944,15.8359873 L1904.05592,15.8359873 Z M1910.5602,15.8359873 L1910.5602,31.6719745 L1909.16372,31.6719745 L1909.16372,15.8359873 L1910.5602,15.8359873 Z M1917.06448,9.31528662 L1917.06448,31.6719745 L1915.66801,31.6719745 L1915.66801,9.31528662 L1917.06448,9.31528662 Z M1923.56876,15.8359873 L1923.56876,31.6719745 L1922.17229,31.6719745 L1922.17229,15.8359873 L1923.56876,15.8359873 Z M1930.07304,15.8359873 L1930.07304,31.6719745 L1928.67657,31.6719745 L1928.67657,15.8359873 L1930.07304,15.8359873 Z M1936.57733,15.8359873 L1936.57733,31.6719745 L1935.18085,31.6719745 L1935.18085,15.8359873 L1936.57733,15.8359873 Z M1943.08161,15.8359873 L1943.08161,31.6719745 L1941.68513,31.6719745 L1941.68513,15.8359873 L1943.08161,15.8359873 Z M1949.46549,7.38964445e-13 L1949.46549,31.6719745 L1948.06902,31.6719745 L1948.06902,7.38964445e-13 L1949.46549,7.38964445e-13 Z M1955.96977,15.8359873 L1955.96977,31.6719745 L1954.5733,31.6719745 L1954.5733,15.8359873 L1955.96977,15.8359873 Z M1962.47405,15.8359873 L1962.47405,31.6719745 L1961.07758,31.6719745 L1961.07758,15.8359873 L1962.47405,15.8359873 Z M1968.97834,15.8359873 L1968.97834,31.6719745 L1967.58186,31.6719745 L1967.58186,15.8359873 L1968.97834,15.8359873 Z M1975.48262,15.8359873 L1975.48262,31.6719745 L1974.08614,31.6719745 L1974.08614,15.8359873 L1975.48262,15.8359873 Z M1981.9869,9.31528662 L1981.9869,31.6719745 L1980.59042,31.6719745 L1980.59042,9.31528662 L1981.9869,9.31528662 Z M1988.49118,15.8359873 L1988.49118,31.6719745 L1987.09471,31.6719745 L1987.09471,15.8359873 L1988.49118,15.8359873 Z M1994.99546,15.8359873 L1994.99546,31.6719745 L1993.59899,31.6719745 L1993.59899,15.8359873 L1994.99546,15.8359873 Z M2001.49974,15.8359873 L2001.49974,31.6719745 L2000.10327,31.6719745 L2000.10327,15.8359873 L2001.49974,15.8359873 Z M2008.00402,15.8359873 L2008.00402,31.6719745 L2006.60755,31.6719745 L2006.60755,15.8359873 L2008.00402,15.8359873 Z M2014.38791,7.38964445e-13 L2014.38791,31.6719745 L2012.99143,31.6719745 L2012.99143,7.38964445e-13 L2014.38791,7.38964445e-13 Z M2020.89219,15.8359873 L2020.89219,31.6719745 L2019.49572,31.6719745 L2019.49572,15.8359873 L2020.89219,15.8359873 Z M2027.39647,15.8359873 L2027.39647,31.6719745 L2026,31.6719745 L2026,15.8359873 L2027.39647,15.8359873 Z M2033.90075,15.8359873 L2033.90075,31.6719745 L2032.50428,31.6719745 L2032.50428,15.8359873 L2033.90075,15.8359873 Z M2040.40504,15.8359873 L2040.40504,31.6719745 L2039.00856,31.6719745 L2039.00856,15.8359873 L2040.40504,15.8359873 Z M2046.90932,9.31528662 L2046.90932,31.6719745 L2045.51284,31.6719745 L2045.51284,9.31528662 L2046.90932,9.31528662 Z M2053.4136,15.8359873 L2053.4136,31.6719745 L2052.01712,31.6719745 L2052.01712,15.8359873 L2053.4136,15.8359873 Z M2059.91788,15.8359873 L2059.91788,31.6719745 L2058.52141,31.6719745 L2058.52141,15.8359873 L2059.91788,15.8359873 Z M2066.42216,15.8359873 L2066.42216,31.6719745 L2065.02569,31.6719745 L2065.02569,15.8359873 L2066.42216,15.8359873 Z M2072.92644,15.8359873 L2072.92644,31.6719745 L2071.52997,31.6719745 L2071.52997,15.8359873 L2072.92644,15.8359873 Z M2079.31033,7.38964445e-13 L2079.31033,31.6719745 L2077.91385,31.6719745 L2077.91385,7.38964445e-13 L2079.31033,7.38964445e-13 Z M2085.81461,15.8359873 L2085.81461,31.6719745 L2084.41813,31.6719745 L2084.41813,15.8359873 L2085.81461,15.8359873 Z M2092.31889,15.8359873 L2092.31889,31.6719745 L2090.92242,31.6719745 L2090.92242,15.8359873 L2092.31889,15.8359873 Z M2098.82317,15.8359873 L2098.82317,31.6719745 L2097.4267,31.6719745 L2097.4267,15.8359873 L2098.82317,15.8359873 Z M2105.32745,15.8359873 L2105.32745,31.6719745 L2103.93098,31.6719745 L2103.93098,15.8359873 L2105.32745,15.8359873 Z M2111.83174,9.31528662 L2111.83174,31.6719745 L2110.43526,31.6719745 L2110.43526,9.31528662 L2111.83174,9.31528662 Z M2118.33602,15.8359873 L2118.33602,31.6719745 L2116.93954,31.6719745 L2116.93954,15.8359873 L2118.33602,15.8359873 Z M2124.8403,15.8359873 L2124.8403,31.6719745 L2123.44382,31.6719745 L2123.44382,15.8359873 L2124.8403,15.8359873 Z M2131.34458,15.8359873 L2131.34458,31.6719745 L2129.9481,31.6719745 L2129.9481,15.8359873 L2131.34458,15.8359873 Z M2137.84886,15.8359873 L2137.84886,31.6719745 L2136.45239,31.6719745 L2136.45239,15.8359873 L2137.84886,15.8359873 Z M2144.23275,7.38964445e-13 L2144.23275,31.6719745 L2142.83627,31.6719745 L2142.83627,7.38964445e-13 L2144.23275,7.38964445e-13 Z M2150.73703,15.8359873 L2150.73703,31.6719745 L2149.34055,31.6719745 L2149.34055,15.8359873 L2150.73703,15.8359873 Z M2157.24131,15.8359873 L2157.24131,31.6719745 L2155.84483,31.6719745 L2155.84483,15.8359873 L2157.24131,15.8359873 Z M2163.74559,15.8359873 L2163.74559,31.6719745 L2162.34912,31.6719745 L2162.34912,15.8359873 L2163.74559,15.8359873 Z M2170.24987,15.8359873 L2170.24987,31.6719745 L2168.8534,31.6719745 L2168.8534,15.8359873 L2170.24987,15.8359873 Z M2176.75415,9.31528662 L2176.75415,31.6719745 L2175.35768,31.6719745 L2175.35768,9.31528662 L2176.75415,9.31528662 Z M2183.25843,15.8359873 L2183.25843,31.6719745 L2181.86196,31.6719745 L2181.86196,15.8359873 L2183.25843,15.8359873 Z M2189.76272,15.8359873 L2189.76272,31.6719745 L2188.36624,31.6719745 L2188.36624,15.8359873 L2189.76272,15.8359873 Z M2196.267,15.8359873 L2196.267,31.6719745 L2194.87052,31.6719745 L2194.87052,15.8359873 L2196.267,15.8359873 Z M2202.77128,15.8359873 L2202.77128,31.6719745 L2201.3748,31.6719745 L2201.3748,15.8359873 L2202.77128,15.8359873 Z M2209.15516,7.38964445e-13 L2209.15516,31.6719745 L2207.75869,31.6719745 L2207.75869,7.38964445e-13 L2209.15516,7.38964445e-13 Z M2215.65945,15.8359873 L2215.65945,31.6719745 L2214.26297,31.6719745 L2214.26297,15.8359873 L2215.65945,15.8359873 Z M2222.16373,15.8359873 L2222.16373,31.6719745 L2220.76725,31.6719745 L2220.76725,15.8359873 L2222.16373,15.8359873 Z M2228.66801,15.8359873 L2228.66801,31.6719745 L2227.27153,31.6719745 L2227.27153,15.8359873 L2228.66801,15.8359873 Z M2235.17229,15.8359873 L2235.17229,31.6719745 L2233.77581,31.6719745 L2233.77581,15.8359873 L2235.17229,15.8359873 Z M2241.67657,9.31528662 L2241.67657,31.6719745 L2240.2801,31.6719745 L2240.2801,9.31528662 L2241.67657,9.31528662 Z M2248.18085,15.8359873 L2248.18085,31.6719745 L2246.78438,31.6719745 L2246.78438,15.8359873 L2248.18085,15.8359873 Z M2254.68513,15.8359873 L2254.68513,31.6719745 L2253.28866,31.6719745 L2253.28866,15.8359873 L2254.68513,15.8359873 Z M2261.18942,15.8359873 L2261.18942,31.6719745 L2259.79294,31.6719745 L2259.79294,15.8359873 L2261.18942,15.8359873 Z M2267.6937,15.8359873 L2267.6937,31.6719745 L2266.29722,31.6719745 L2266.29722,15.8359873 L2267.6937,15.8359873 Z M2274.07758,7.38964445e-13 L2274.07758,31.6719745 L2272.68111,31.6719745 L2272.68111,7.38964445e-13 L2274.07758,7.38964445e-13 Z M2280.58186,15.8359873 L2280.58186,31.6719745 L2279.18539,31.6719745 L2279.18539,15.8359873 L2280.58186,15.8359873 Z M2287.08614,15.8359873 L2287.08614,31.6719745 L2285.68967,31.6719745 L2285.68967,15.8359873 L2287.08614,15.8359873 Z M2293.59043,15.8359873 L2293.59043,31.6719745 L2292.19395,31.6719745 L2292.19395,15.8359873 L2293.59043,15.8359873 Z M2300.09471,15.8359873 L2300.09471,31.6719745 L2298.69823,31.6719745 L2298.69823,15.8359873 L2300.09471,15.8359873 Z M2306.59899,9.31528662 L2306.59899,31.6719745 L2305.20251,31.6719745 L2305.20251,9.31528662 L2306.59899,9.31528662 Z M2313.10327,15.8359873 L2313.10327,31.6719745 L2311.7068,31.6719745 L2311.7068,15.8359873 L2313.10327,15.8359873 Z M2319.60755,15.8359873 L2319.60755,31.6719745 L2318.21108,31.6719745 L2318.21108,15.8359873 L2319.60755,15.8359873 Z M2326.11183,15.8359873 L2326.11183,31.6719745 L2324.71536,31.6719745 L2324.71536,15.8359873 L2326.11183,15.8359873 Z M2332.61612,15.8359873 L2332.61612,31.6719745 L2331.21964,31.6719745 L2331.21964,15.8359873 L2332.61612,15.8359873 Z M2339,7.38964445e-13 L2339,31.6719745 L2337.60353,31.6719745 L2337.60353,7.38964445e-13 L2339,7.38964445e-13 Z" id="lineals-footer"></path>
                                </g>
                            </g>
                        </g>
                    </g>
                </g>
            </g>
        </g>
    </g>
</svg>