<?xml version="1.0" encoding="UTF-8"?>
<svg width="14px" height="14px" viewBox="0 0 14 14" version="1.1" xmlns="http://www.w3.org/2000/svg" xmlns:xlink="http://www.w3.org/1999/xlink">
    <!-- Generator: sketchtool 63.1 (101010) - https://sketch.com -->
    <title>7DBCF326-6801-4A16-8FE6-92FDA9DBDA2B</title>
    <desc>Created with sketchtool.</desc>
    <g id="apstiprinats" stroke="none" stroke-width="1" fill="none" fill-rule="evenodd">
        <g id="EKO-nams-sakumlapa-apstiprinats-dizains-ar-proporciju-2" transform="translate(-1293.000000, -3714.000000)" fill="#7E7E7E" fill-rule="nonzero">
            <g id="Footer" transform="translate(60.000000, 3394.000000)">
                <g id="Footer-bottom" transform="translate(0.000000, 199.000000)">
                    <g id="social" transform="translate(1135.000000, 120.000000)">
                        <g id="linkedin-(2)" transform="translate(98.000000, 1.000000)">
                            <path d="M3.25883871,4.50393548 C3.36278495,4.50393548 3.45029749,4.57415502 3.47658094,4.66972028 L3.48464516,4.72974194 L3.48464516,13.7587484 C3.48464516,13.8626946 3.41445699,13.9502072 3.31887605,13.9764906 L3.25883871,13.9845548 L0.448316129,13.9845548 C0.344369892,13.9845548 0.256857348,13.9143667 0.230573895,13.8187857 L0.222509677,13.7587484 L0.222509677,4.72974194 C0.222509677,4.62583333 0.292697849,4.5382957 0.388278793,4.51200284 L0.448316129,4.50393548 L3.25883871,4.50393548 Z M10.4076,4.27952903 C13.3922903,4.27952903 13.9422778,6.31376096 13.9953875,8.42244464 L14,8.80622581 L14,13.7587935 C14,13.8627398 13.9298118,13.9502523 13.8342309,13.9765358 L13.7741935,13.9846 L10.9687742,13.9846 C10.864828,13.9846 10.7773154,13.9144118 10.751032,13.8188309 L10.7429677,13.7587935 L10.7429677,9.36893548 C10.7429677,8.13982581 10.6521484,7.19965806 9.50929677,7.19965806 C8.51239742,7.19965806 8.09352894,7.72894229 8.05413434,9.07252985 L8.05103871,9.29148387 L8.05103871,13.7587484 C8.05103871,13.8626946 7.98085054,13.9502385 7.88526959,13.9765324 L7.82523226,13.9846 L5.02085161,13.9846 C4.91690538,13.9846 4.82939283,13.9143805 4.80310938,13.8187891 L4.79504516,13.7587484 L4.79504516,4.72974194 C4.79504516,4.62583333 4.86523333,4.5382957 4.96081428,4.51200284 L5.02085161,4.50393548 L7.71241935,4.50393548 C7.81636559,4.50393548 7.90387814,4.57415502 7.93016159,4.66972028 L7.93822581,4.72974194 L7.93822581,5.31616129 C8.44434839,4.7647871 9.27879355,4.27952903 10.4076,4.27952903 Z M1.85459355,0.0154 C2.8764129,0.0154 3.70774194,0.846458065 3.70769677,1.86796129 C3.70769677,2.88987097 2.8764129,3.72129032 1.85459355,3.72129032 C0.83196129,3.72129032 7.98398384e-13,2.88991613 7.98398384e-13,1.86796129 C7.98398384e-13,0.846458065 0.83196129,0.0154 1.85459355,0.0154 Z" id="Shape"></path>
                        </g>
                    </g>
                </g>
            </g>
        </g>
    </g>
</svg>