<?xml version="1.0" standalone="no"?>
<!DOCTYPE svg PUBLIC "-//W3C//DTD SVG 1.1//EN" "http://www.w3.org/Graphics/SVG/1.1/DTD/svg11.dtd" >
<svg xmlns="http://www.w3.org/2000/svg" xmlns:xlink="http://www.w3.org/1999/xlink" version="1.1">
<metadata>
Created by FontForge 20190801 at Mon Nov 29 12:54:13 2004
 By Jimmy Wärting
Copyright 2004 Process Type Foundry. All rights reserved.
</metadata>
<defs>
<font id="Klavika-LightItalic" horiz-adv-x="525" >
  <font-face 
    font-family="Klavika Lt"
    font-weight="300"
    font-style="italic"
    font-stretch="normal"
    units-per-em="1000"
    panose-1="2 0 5 6 9 0 0 2 0 4"
    ascent="750"
    descent="-250"
    x-height="487"
    cap-height="666"
    bbox="-82 -251 1133 936"
    underline-thickness="20"
    underline-position="-133"
    stemh="50"
    stemv="56"
    unicode-range="U+0020-FB02"
  />
<missing-glyph horiz-adv-x="659" 
d="M120 0v666h464v-666h-464zM537 618h-343l343 -533v533zM167 580v-533h342z" />
    <glyph glyph-name="fi" unicode="fi" horiz-adv-x="556" 
d="M36 -207l-33 36c39 33 58 62 70 131l84 479h-91l8 48h92l16 92c15 85 60 127 142 127c51 0 97 -11 144 -29l-12 -43c-44 14 -93 24 -131 24c-56 0 -78 -29 -87 -79l-16 -92h262l28 4l-86 -491h-56l77 439h-234l-85 -486c-12 -69 -37 -117 -92 -160z" />
    <glyph glyph-name="fl" unicode="fl" horiz-adv-x="567" 
d="M381 0l113 640c-49 11 -100 19 -149 19c-76 0 -97 -24 -107 -80l-16 -92h139l-13 -48h-135l-85 -486c-12 -69 -37 -117 -92 -160l-33 36c39 33 58 62 70 131l84 479h-91l8 48h92l16 92c16 90 50 127 166 127c44 0 104 -9 154 -22l57 10l-122 -694h-56z" />
    <glyph glyph-name="f_f" unicode="ff" horiz-adv-x="684" 
d="M377 -207l-33 36c39 33 58 62 70 131l84 479h-285l-85 -486c-12 -69 -37 -117 -92 -160l-33 36c39 33 58 62 70 131l84 479h-91l8 48h92l16 92c15 85 60 127 142 127c38 0 78 -9 108 -21l-12 -43c-31 10 -64 16 -95 16c-56 0 -78 -29 -87 -79l-16 -92h285l16 92
c15 85 60 127 142 127c33 0 72 -9 95 -19l-12 -43c-31 10 -55 14 -82 14c-56 0 -78 -29 -87 -79l-16 -92h149l-13 -48h-145l-85 -486c-12 -69 -37 -117 -92 -160z" />
    <glyph glyph-name="f_f_i" unicode="ffi" horiz-adv-x="897" 
d="M507 487l16 92c15 85 60 127 142 127c51 0 97 -11 144 -29l-12 -43c-44 14 -93 24 -131 24c-56 0 -78 -29 -87 -79l-16 -92h262l28 4l-86 -491h-56l77 439h-234l-85 -486c-12 -69 -37 -117 -92 -160l-33 36c39 33 58 62 70 131l84 479h-285l-85 -486
c-12 -69 -37 -117 -92 -160l-33 36c39 33 58 62 70 131l84 479h-91l8 48h92l16 92c15 85 60 127 142 127c38 0 78 -9 108 -21l-12 -43c-31 10 -64 16 -95 16c-56 0 -78 -29 -87 -79l-16 -92h285z" />
    <glyph glyph-name="f_j" unicode="fj" horiz-adv-x="559" 
d="M373 -27l82 466h-242l-85 -486c-12 -69 -37 -117 -92 -160l-33 36c39 33 58 62 70 131l84 479h-91l8 48h92l16 92c15 85 60 127 142 127c51 0 97 -11 144 -29l-12 -43c-44 14 -93 24 -131 24c-56 0 -78 -29 -87 -79l-16 -92h270l28 4l-93 -529c-11 -59 -16 -72 -141 -169
l-30 41c96 78 107 87 117 139z" />
    <glyph glyph-name="f_f_j" unicode="ffj" horiz-adv-x="900" 
d="M714 -27l82 466h-242l-85 -486c-12 -69 -37 -117 -92 -160l-33 36c39 33 58 62 70 131l84 479h-285l-85 -486c-12 -69 -37 -117 -92 -160l-33 36c39 33 58 62 70 131l84 479h-91l8 48h92l16 92c15 85 60 127 142 127c38 0 78 -9 108 -21l-12 -43c-31 10 -64 16 -95 16
c-56 0 -78 -29 -87 -79l-16 -92h285l16 92c15 85 60 127 142 127c51 0 97 -11 144 -29l-12 -43c-44 14 -93 24 -131 24c-56 0 -78 -29 -87 -79l-16 -92h270l28 4l-93 -529c-11 -59 -16 -72 -141 -169l-30 41c96 78 107 87 117 139z" />
    <glyph glyph-name="f_f_l" unicode="ffl" horiz-adv-x="908" 
d="M507 487l16 92c16 90 50 127 166 127c44 0 104 -9 154 -22l57 10l-122 -694h-56l113 640c-49 11 -100 19 -149 19c-76 0 -97 -24 -107 -80l-16 -92h139l-13 -48h-135l-85 -486c-12 -69 -37 -117 -92 -160l-33 36c39 33 58 62 70 131l84 479h-285l-85 -486
c-12 -69 -37 -117 -92 -160l-33 36c39 33 58 62 70 131l84 479h-91l8 48h92l16 92c15 85 60 127 142 127c38 0 78 -9 108 -21l-12 -43c-31 10 -64 16 -95 16c-56 0 -78 -29 -87 -79l-16 -92h285z" />
    <glyph glyph-name=".notdef" horiz-adv-x="659" 
d="M120 0v666h464v-666h-464zM537 618h-343l343 -533v533zM167 580v-533h342z" />
    <glyph glyph-name="space" unicode=" " horiz-adv-x="220" 
 />
    <glyph glyph-name="exclam" unicode="!" horiz-adv-x="250" 
d="M127 172h-32l17 167l61 347h56l-61 -347zM50 0l15 86h60l-15 -86h-60z" />
    <glyph glyph-name="quotedbl" unicode="&#x22;" horiz-adv-x="351" 
d="M254 442l43 244h49l-43 -244h-49zM101 442l43 244h49l-43 -244h-49z" />
    <glyph glyph-name="numbersign" unicode="#" horiz-adv-x="704" 
d="M681 434h-136l-47 -207h136l-11 -47h-136l-40 -180h-51l40 180h-197l-40 -180h-51l40 180h-136l11 47h136l47 207h-136l11 47h136l38 165h51l-38 -165h197l38 165h51l-38 -165h136zM297 434l-47 -207h197l47 207h-197z" />
    <glyph glyph-name="dollar" unicode="$" horiz-adv-x="502" 
d="M153 -109l18 100c-48 2 -101 10 -151 29l13 46c58 -16 120 -26 166 -26c111 0 139 23 155 113c5 27 8 48 8 64c0 45 -26 56 -119 86c-107 35 -139 59 -139 120c0 20 4 45 9 75c22 122 61 155 195 158l18 99h54l-18 -100c37 -2 82 -9 120 -19l-10 -48
c-55 13 -105 18 -144 18c-132 0 -143 -24 -159 -112c-5 -29 -9 -50 -9 -66c0 -40 25 -49 114 -80c111 -38 144 -61 144 -124c0 -19 -3 -42 -8 -70c-19 -107 -45 -156 -185 -163l-18 -100h-54z" />
    <glyph glyph-name="percent" unicode="%" horiz-adv-x="836" 
d="M590 -10c-85 0 -122 35 -122 96c0 10 1 21 3 32l18 104c16 89 57 131 163 131c79 0 122 -40 122 -106c0 -10 -1 -20 -3 -31l-16 -90c-14 -81 -47 -136 -165 -136zM253 -10l-38 23l388 663l39 -23zM707 126l17 95c2 10 3 19 3 26c0 40 -22 64 -81 64
c-71 0 -99 -32 -109 -88l-18 -103c-2 -11 -3 -21 -3 -29c0 -40 19 -59 81 -59c71 0 99 31 110 94zM204 313c-85 0 -122 35 -122 96c0 10 1 21 3 32l18 104c16 89 57 131 163 131c79 0 122 -40 122 -106c0 -10 -1 -20 -3 -31l-16 -90c-14 -81 -47 -136 -165 -136zM321 449
l17 95c2 10 3 19 3 26c0 40 -22 64 -81 64c-71 0 -99 -32 -109 -88l-18 -103c-2 -11 -3 -21 -3 -29c0 -40 19 -59 81 -59c71 0 99 31 110 94z" />
    <glyph glyph-name="ampersand" unicode="&#x26;" horiz-adv-x="696" 
d="M437 383c0 -39 -17 -84 -71 -113h140c87 0 136 10 196 51l22 -38c-43 -36 -108 -62 -205 -62c-61 -127 -145 -231 -322 -231c-106 0 -151 49 -151 115c0 12 2 25 4 38l32 180c23 126 102 174 206 174c86 0 149 -39 149 -114zM206 40c121 0 199 68 256 181h-173l-12 49
c66 20 104 66 104 109c0 44 -36 68 -99 68c-69 0 -128 -37 -144 -124l-32 -180c-2 -13 -4 -25 -4 -35c0 -54 31 -68 104 -68z" />
    <glyph glyph-name="quotesingle" unicode="'" horiz-adv-x="198" 
d="M101 442l43 244h49l-43 -244h-49z" />
    <glyph glyph-name="parenleft" unicode="(" horiz-adv-x="297" 
d="M158 -154c-59 109 -85 205 -85 328c0 238 92 420 245 588l37 -31c-149 -176 -227 -334 -227 -557c0 -112 23 -200 76 -304z" />
    <glyph glyph-name="parenright" unicode=")" horiz-adv-x="297" 
d="M154 762c59 -109 85 -205 85 -328c0 -238 -92 -420 -245 -588l-34 33c149 176 224 332 224 555c0 112 -23 200 -76 304z" />
    <glyph glyph-name="asterisk" unicode="*" horiz-adv-x="473" 
d="M147 394l102 121h-144l6 35h151l-61 130l34 17l61 -129l102 129l29 -23l-103 -124h152l-6 -35h-151l63 -129l-35 -17l-62 133l-108 -133z" />
    <glyph glyph-name="plus" unicode="+" horiz-adv-x="537" 
d="M294 218v-179h-54v179h-175v50h175v179h54v-179h175v-50h-175z" />
    <glyph glyph-name="comma" unicode="," horiz-adv-x="240" 
d="M37 -108l-22 14l53 94h-23l15 86h60l-15 -86z" />
    <glyph glyph-name="hyphen" unicode="-" horiz-adv-x="358" 
d="M70 256l8 49h230l-8 -49h-230z" />
    <glyph glyph-name="period" unicode="." horiz-adv-x="240" 
d="M45 0l15 86h60l-15 -86h-60z" />
    <glyph glyph-name="slash" unicode="/" horiz-adv-x="434" 
d="M57 -117h-58l386 793h59z" />
    <glyph glyph-name="zero" unicode="0" horiz-adv-x="558" 
d="M232 -10c-122 0 -173 51 -173 130c0 12 2 25 4 39l58 329c22 124 85 168 228 168c113 0 172 -56 172 -141c0 -12 -2 -25 -4 -38l-55 -313c-20 -112 -64 -174 -230 -174zM406 165l55 312c3 14 4 27 4 38c0 59 -34 91 -125 91c-109 0 -149 -38 -164 -124l-57 -322
c-3 -16 -4 -26 -4 -38c0 -56 34 -82 126 -82c109 0 150 41 165 125z" />
    <glyph glyph-name="one" unicode="1" horiz-adv-x="321" 
d="M120 0l102 579l-147 -76l-22 46l185 97h52l-114 -646h-56z" />
    <glyph glyph-name="two" unicode="2" horiz-adv-x="487" 
d="M20 0l8 51c105 107 131 135 221 230c97 102 137 142 147 196l4 22c3 15 4 28 4 40c0 45 -25 67 -121 67c-47 0 -115 -14 -152 -25l-7 46c50 16 110 29 174 29c110 0 162 -42 162 -117c0 -11 -1 -22 -3 -34l-5 -28c-13 -73 -43 -103 -161 -228
c-80 -85 -107 -112 -192 -199h283l-8 -50h-354z" />
    <glyph glyph-name="three" unicode="3" horiz-adv-x="480" 
d="M175 -10c-53 0 -117 10 -167 30l13 47c41 -14 101 -27 157 -27c109 0 137 31 150 108l8 46c1 6 2 13 2 25c0 53 -35 81 -108 81h-129l9 50h133c70 0 111 35 120 87l14 80c1 6 2 12 2 22c0 49 -39 67 -114 67c-45 0 -100 -9 -141 -18l-8 48c48 12 106 20 156 20
c112 0 164 -44 164 -112c0 -9 -1 -18 -3 -28l-13 -74c-11 -66 -34 -93 -98 -117c45 -10 72 -50 72 -103c0 -14 -1 -20 -2 -28l-8 -47c-18 -105 -50 -157 -209 -157z" />
    <glyph glyph-name="four" unicode="4" horiz-adv-x="532" 
d="M388 175l-31 -175h-56l31 175h-314l8 60l365 411h80l-75 -423h99l-9 -48h-98zM405 589l-322 -366h257z" />
    <glyph glyph-name="five" unicode="5" horiz-adv-x="482" 
d="M176 -10c-44 0 -107 9 -157 26l13 47c49 -13 99 -23 153 -23c106 0 140 29 155 114l8 44c2 12 4 25 4 36c0 51 -30 73 -105 74c-15 0 -142 2 -156 2l59 336h326l-8 -50h-271l-41 -236c43 -1 55 -1 108 -2c100 -2 144 -49 144 -120c0 -11 -1 -22 -3 -34l-9 -52
c-19 -108 -58 -162 -220 -162z" />
    <glyph glyph-name="six" unicode="6" horiz-adv-x="512" 
d="M222 -10c-118 0 -164 49 -164 122c0 12 1 24 3 36l50 283c29 165 89 225 279 225c31 0 71 -4 104 -14l-11 -47c-24 6 -63 11 -88 11c-168 0 -204 -43 -228 -176l-17 -96c46 15 100 25 149 25c109 0 148 -38 148 -107c0 -15 -2 -31 -5 -48l-10 -56
c-18 -102 -58 -158 -210 -158zM376 146l11 63c2 13 4 24 4 35c0 45 -25 65 -103 65c-48 0 -104 -13 -148 -30l-23 -132c-2 -12 -2 -20 -2 -28c0 -61 42 -79 116 -79c94 0 132 30 145 106z" />
    <glyph glyph-name="seven" unicode="7" horiz-adv-x="424" 
d="M80 0h-59l385 598h-313l8 48h372l-8 -46z" />
    <glyph glyph-name="eight" unicode="8" horiz-adv-x="551" 
d="M233 -10c-123 0 -179 35 -179 113c0 12 2 25 4 39l4 22c15 83 54 130 167 166c-62 38 -94 84 -94 135c0 8 1 15 2 22l2 14c19 105 75 155 211 155c104 0 160 -51 160 -123c0 -7 -1 -17 -3 -28l-3 -18c-11 -66 -47 -116 -152 -158c77 -35 115 -74 115 -134
c0 -10 -1 -19 -3 -31l-4 -22c-19 -106 -68 -152 -227 -152zM447 483l5 27c1 7 2 15 2 22c0 47 -33 74 -113 74c-96 0 -135 -38 -145 -99l-4 -24c-1 -9 -1 -14 -1 -17c0 -43 34 -79 105 -112c92 39 140 71 151 129zM405 146l4 22c2 11 3 22 3 27c0 48 -35 68 -124 108
c-119 -44 -158 -70 -169 -133l-5 -28c-2 -11 -3 -21 -3 -30c0 -56 38 -72 131 -72c106 0 149 26 163 106z" />
    <glyph glyph-name="nine" unicode="9" horiz-adv-x="506" 
d="M308 656c114 0 164 -51 164 -125c0 -10 -1 -21 -3 -33l-50 -283c-29 -165 -80 -225 -279 -225c-31 0 -71 4 -104 14l11 47c24 -6 63 -11 88 -11c171 0 205 43 228 176l17 96c-46 -15 -100 -25 -149 -25c-109 0 -148 38 -148 108c0 14 2 30 5 47l10 56
c18 102 58 158 210 158zM154 500l-11 -63c-2 -13 -3 -24 -3 -34c0 -46 25 -66 102 -66c48 0 104 13 148 30l23 132c2 10 3 20 3 29c0 60 -42 78 -117 78c-93 0 -132 -30 -145 -106z" />
    <glyph glyph-name="colon" unicode=":" horiz-adv-x="242" 
d="M45 0l15 86h60l-15 -86h-60zM102 320l15 86h60l-15 -86h-60z" />
    <glyph glyph-name="semicolon" unicode=";" horiz-adv-x="241" 
d="M37 -108l-22 14l53 94h-23l15 86h60l-15 -86zM101 320l15 86h60l-15 -86h-60z" />
    <glyph glyph-name="less" unicode="&#x3c;" horiz-adv-x="549" 
d="M449 -10l-399 233v42l397 232l24 -41l-366 -212l368 -213z" />
    <glyph glyph-name="equal" unicode="=" horiz-adv-x="472" 
d="M70 311v45h347v-45h-347zM70 137v45h347v-45h-347z" />
    <glyph glyph-name="greater" unicode="&#x3e;" horiz-adv-x="549" 
d="M105 -10l-24 41l368 213l-366 212l24 41l397 -232v-42z" />
    <glyph glyph-name="question" unicode="?" horiz-adv-x="462" 
d="M301 310c-51 -36 -79 -55 -118 -82l-28 43c40 27 61 41 125 85c69 48 80 65 97 161c5 28 8 50 8 67c0 50 -26 62 -112 62c-29 0 -88 -6 -130 -15l-6 49c51 11 101 16 147 16c117 0 156 -34 156 -112c0 -20 -2 -42 -7 -68c-22 -125 -33 -136 -132 -206zM119 0l15 86h60
l-15 -86h-60z" />
    <glyph glyph-name="at" unicode="@" horiz-adv-x="749" 
d="M519 204c-23 0 -53 7 -70 27c-28 -14 -64 -27 -104 -27c-48 0 -71 26 -71 64c0 7 1 14 2 21l20 113c11 63 37 89 112 89c38 0 87 -12 116 -26l-38 -215c9 -4 22 -5 32 -5c109 0 155 95 155 207c0 115 -78 180 -216 180c-208 0 -333 -136 -333 -368
c0 -138 80 -229 258 -229c67 0 140 16 208 44l6 -41c-63 -31 -144 -48 -220 -48c-195 0 -301 108 -301 273c0 248 133 413 384 413c175 0 262 -99 262 -221c0 -146 -65 -251 -202 -251zM402 450c-42 0 -55 -13 -61 -48c-8 -44 -21 -117 -21 -117c-1 -5 -2 -11 -2 -16
c0 -18 10 -24 39 -24c24 0 55 8 88 27l29 167c-27 7 -51 11 -72 11z" />
    <glyph glyph-name="A" unicode="A" horiz-adv-x="616" 
d="M481 0l-29 176h-301l-93 -176h-59l342 666h86l112 -666h-58zM381 636l-204 -410h265z" />
    <glyph glyph-name="B" unicode="B" horiz-adv-x="559" 
d="M306 0h-261l117 666h247c79 0 125 -37 125 -101c0 -9 -1 -19 -3 -29l-13 -74c-10 -57 -22 -90 -96 -119c43 -9 77 -38 77 -96c0 -9 -1 -20 -3 -31l-16 -91c-16 -91 -69 -125 -174 -125zM475 544c1 6 2 12 2 17c0 36 -23 55 -73 55h-193l-44 -250h165c76 0 118 33 128 92z
M439 221c1 8 2 15 2 21c0 45 -29 74 -96 74h-187l-47 -266h204c73 0 100 32 109 85z" />
    <glyph glyph-name="C" unicode="C" horiz-adv-x="507" 
d="M248 -10c-137 0 -191 53 -191 143c0 16 2 32 5 50l53 300c24 135 93 193 254 193c48 0 109 -7 155 -19l-10 -49c-44 10 -106 17 -149 17c-121 0 -175 -39 -194 -148l-52 -293c-3 -16 -4 -30 -4 -43c0 -69 41 -100 147 -100c43 0 104 6 153 14l2 -49
c-51 -10 -121 -16 -169 -16z" />
    <glyph glyph-name="D" unicode="D" horiz-adv-x="591" 
d="M270 0h-225l117 666h217c129 0 179 -60 179 -149c0 -16 -2 -34 -5 -52l-49 -279c-23 -129 -73 -186 -234 -186zM497 466c3 18 5 35 5 50c0 66 -35 99 -128 99h-163l-100 -564h163c124 0 158 47 175 143z" />
    <glyph glyph-name="E" unicode="E" horiz-adv-x="524" 
d="M45 0l117 666h374l-9 -51h-316l-44 -250h294l-9 -51h-294l-47 -263h317l-8 -51h-375z" />
    <glyph glyph-name="F" unicode="F" horiz-adv-x="501" 
d="M210 615l-46 -260h298l-9 -51h-298l-53 -304h-57l117 666h377l-9 -51h-320z" />
    <glyph glyph-name="G" unicode="G" horiz-adv-x="580" 
d="M241 -10c-134 0 -184 51 -184 140c0 17 2 36 6 57l52 295c23 132 78 194 255 194c57 0 130 -11 178 -27l-11 -49c-43 11 -118 25 -175 25c-130 0 -171 -39 -190 -144l-52 -294c-3 -19 -5 -34 -5 -52c0 -62 32 -94 139 -94c41 0 99 6 149 19l42 237h57l-48 -276
c-69 -23 -148 -31 -213 -31z" />
    <glyph glyph-name="H" unicode="H" horiz-adv-x="618" 
d="M426 0l55 317h-323l-56 -317h-57l117 666h57l-52 -298h323l53 298h57l-117 -666h-57z" />
    <glyph glyph-name="I" unicode="I" horiz-adv-x="247" 
d="M50 0l117 666h57l-117 -666h-57z" />
    <glyph glyph-name="J" unicode="J" horiz-adv-x="237" 
d="M220 666l-120 -679c-13 -72 -32 -80 -150 -180l-31 40c114 96 117 101 126 152l118 667h57z" />
    <glyph glyph-name="K" unicode="K" horiz-adv-x="551" 
d="M409 0l-223 339l317 327h72l-322 -330l220 -336h-64zM45 0l117 666h57l-117 -666h-57z" />
    <glyph glyph-name="L" unicode="L" horiz-adv-x="491" 
d="M45 0l117 666h57l-109 -615h300l-8 -51h-357z" />
    <glyph glyph-name="M" unicode="M" horiz-adv-x="798" 
d="M609 0l91 609l-283 -523h-95l-100 523l-122 -609h-57l137 666h84l109 -547l300 547h90l-97 -666h-57z" />
    <glyph glyph-name="N" unicode="N" horiz-adv-x="640" 
d="M419 0l-210 613l-108 -613h-56l117 666h86l210 -614l108 614h56l-117 -666h-86z" />
    <glyph glyph-name="O" unicode="O" horiz-adv-x="614" 
d="M260 -10c-146 0 -200 66 -200 157c0 15 1 31 4 47l49 276c26 147 98 206 266 206c136 0 202 -74 202 -167c0 -11 -2 -26 -4 -39l-50 -280c-21 -118 -86 -200 -267 -200zM470 190l50 281c3 14 4 30 4 41c0 71 -43 113 -152 113c-128 0 -184 -48 -203 -155l-48 -272
c-3 -17 -4 -33 -4 -48c0 -69 37 -109 152 -109c134 0 184 55 201 149z" />
    <glyph glyph-name="P" unicode="P" horiz-adv-x="531" 
d="M314 255h-167l-45 -255h-57l117 666h225c114 0 158 -47 158 -118c0 -12 -2 -25 -4 -38l-18 -102c-17 -95 -57 -153 -209 -153zM466 408l19 107c2 10 3 21 3 28c0 53 -35 72 -109 72h-169l-54 -309h168c92 0 129 28 142 102z" />
    <glyph glyph-name="Q" unicode="Q" horiz-adv-x="614" 
d="M422 -108l-12 -50c-80 17 -160 27 -255 30l9 49c90 -3 182 -13 258 -29zM260 -10c-146 0 -200 66 -200 157c0 15 1 31 4 47l49 276c26 147 98 206 266 206c136 0 202 -74 202 -167c0 -11 -2 -26 -4 -39l-50 -280c-21 -118 -86 -200 -267 -200zM470 190l50 281
c3 14 4 30 4 41c0 71 -43 113 -152 113c-128 0 -184 -48 -203 -155l-48 -272c-3 -17 -4 -33 -4 -48c0 -69 37 -109 152 -109c134 0 184 55 201 149z" />
    <glyph glyph-name="R" unicode="R" horiz-adv-x="608" 
d="M468 0l-128 257h-193l-45 -257h-57l117 666h232c116 0 161 -47 161 -120c0 -11 -1 -23 -3 -36l-19 -107c-14 -77 -46 -121 -134 -139l132 -264h-63zM477 408l19 107c2 10 3 20 3 28c0 55 -37 72 -110 72h-179l-54 -307h179c88 0 129 26 142 100z" />
    <glyph glyph-name="S" unicode="S" horiz-adv-x="531" 
d="M207 -10c-58 0 -128 12 -185 34l14 47c62 -19 125 -30 179 -30c119 0 152 34 168 124c5 26 8 46 8 62c0 46 -28 57 -133 84c-114 30 -150 61 -150 132c0 19 2 42 7 68c23 129 74 165 231 165c41 0 112 -7 166 -22l-10 -48c-55 13 -119 19 -158 19
c-132 0 -156 -26 -172 -115c-5 -27 -8 -47 -8 -64c0 -50 30 -60 126 -87c123 -34 158 -60 158 -125c0 -19 -3 -42 -8 -69c-20 -115 -56 -175 -233 -175z" />
    <glyph glyph-name="T" unicode="T" horiz-adv-x="517" 
d="M350 615l-108 -615h-57l108 615h-205l9 51h467l-9 -51h-205z" />
    <glyph glyph-name="U" unicode="U" horiz-adv-x="628" 
d="M267 -10c-140 0 -197 68 -197 160c0 14 2 31 4 44l83 472h57l-84 -477c-2 -14 -4 -28 -4 -40c0 -72 44 -108 150 -108c126 0 183 58 199 152l83 473h57l-84 -479c-20 -113 -83 -197 -264 -197z" />
    <glyph glyph-name="V" unicode="V" horiz-adv-x="575" 
d="M294 0h-83l-108 666h56l100 -617l304 617h59z" />
    <glyph glyph-name="W" unicode="W" horiz-adv-x="882" 
d="M647 0h-94l-43 629l-254 -629h-92l-62 666h53l60 -626l256 626h88l46 -626l259 626h58z" />
    <glyph glyph-name="X" unicode="X" horiz-adv-x="575" 
d="M-8 0l280 338l-156 328h59l135 -285l235 285h67l-277 -334l159 -332h-59l-138 288l-238 -288h-67z" />
    <glyph glyph-name="Y" unicode="Y" horiz-adv-x="523" 
d="M280 198l-35 -198h-57l37 207l-144 459h56l126 -403l261 403h65z" />
    <glyph glyph-name="Z" unicode="Z" horiz-adv-x="554" 
d="M55 0l-4 52l429 563h-339l9 51h390l3 -52l-429 -563h346l-8 -51h-397z" />
    <glyph glyph-name="bracketleft" unicode="[" horiz-adv-x="301" 
d="M33 -126l162 916h179l-9 -52h-124l-143 -812h123l-9 -52h-179z" />
    <glyph glyph-name="backslash" unicode="\" horiz-adv-x="429" 
d="M247 -117l-107 793h53l106 -793h-52z" />
    <glyph glyph-name="bracketright" unicode="]" horiz-adv-x="300" 
d="M295 790l-162 -916h-179l9 52h124l143 812h-123l9 52h179z" />
    <glyph glyph-name="asciicircum" unicode="^" horiz-adv-x="453" 
d="M383 383l-87 252l-172 -255l-42 31l188 275h62l101 -285z" />
    <glyph glyph-name="underscore" unicode="_" horiz-adv-x="432" 
d="M4 -36v26h424v-26h-424z" />
    <glyph glyph-name="grave" unicode="`" horiz-adv-x="292" 
d="M240 556c-47 29 -79 51 -110 79l31 38c34 -30 61 -49 106 -80z" />
    <glyph glyph-name="a" unicode="a" horiz-adv-x="499" 
d="M323 0l10 71c-56 -48 -126 -81 -196 -81c-62 0 -96 22 -96 82c0 11 1 23 3 36l37 209c23 128 76 180 207 180c45 0 111 -11 168 -32l-82 -465h-51zM342 136l52 295c-27 8 -74 16 -114 16c-91 0 -126 -33 -145 -140l-35 -199c-2 -12 -3 -21 -3 -29c0 -31 15 -39 45 -39
c61 0 137 40 200 96z" />
    <glyph glyph-name="b" unicode="b" horiz-adv-x="502" 
d="M43 18l118 668l57 8l-48 -276c55 47 127 79 196 79c62 0 97 -22 97 -82c0 -11 -2 -23 -4 -36l-37 -209c-22 -125 -76 -180 -207 -180c-45 0 -112 8 -172 28zM158 351l-53 -299c31 -7 78 -12 118 -12c91 0 126 33 145 140l35 199c2 12 3 21 3 30c0 31 -15 38 -45 38
c-62 0 -140 -40 -203 -96z" />
    <glyph glyph-name="c" unicode="c" horiz-adv-x="399" 
d="M397 477l-12 -47c-38 11 -81 17 -115 17c-89 0 -121 -32 -140 -140l-34 -194c-1 -8 -2 -15 -2 -22c0 -38 24 -51 72 -51s102 11 158 34l9 -47c-52 -23 -110 -37 -174 -37c-72 0 -121 34 -121 100c0 9 1 20 3 30l35 197c24 132 75 180 200 180c38 0 91 -9 121 -20z" />
    <glyph glyph-name="d" unicode="d" horiz-adv-x="507" 
d="M326 0l10 71c-56 -48 -129 -81 -199 -81c-62 0 -96 22 -96 82c0 11 1 23 3 36l37 209c23 132 83 180 207 180c32 0 88 -7 118 -16l36 205l57 8l-122 -694h-51zM345 136l52 295c-39 10 -78 16 -117 16c-89 0 -126 -32 -145 -140l-35 -199c-2 -12 -3 -21 -3 -29
c0 -31 15 -39 45 -39c62 0 140 40 203 96z" />
    <glyph glyph-name="e" unicode="e" horiz-adv-x="443" 
d="M111 194l-12 -67c-1 -9 -2 -18 -2 -26c0 -41 16 -62 84 -62c56 0 112 19 172 47l14 -43c-59 -31 -127 -53 -193 -53c-91 0 -133 36 -133 110c0 15 2 31 5 48l29 164c22 124 86 185 211 185c79 0 129 -40 129 -113c0 -78 -52 -120 -185 -157c-94 -26 -119 -33 -119 -33z
M233 276c91 24 128 57 128 109c0 44 -29 64 -80 64c-87 0 -133 -45 -150 -141l-11 -62s19 5 113 30z" />
    <glyph glyph-name="f" unicode="f" horiz-adv-x="343" 
d="M36 -207l-33 36c39 33 58 62 70 131l84 479h-91l8 48h92l16 92c15 85 60 127 142 127c33 0 72 -9 95 -19l-12 -43c-31 10 -55 14 -82 14c-56 0 -78 -29 -87 -79l-16 -92h149l-13 -48h-145l-85 -486c-12 -69 -37 -117 -92 -160z" />
    <glyph glyph-name="g" unicode="g" horiz-adv-x="502" 
d="M460 469l-98 -554c-17 -94 -54 -122 -158 -122c-56 0 -140 20 -193 43l14 45c63 -26 135 -38 183 -38c71 0 89 19 100 83l29 163c-55 -47 -127 -79 -196 -79c-62 0 -96 22 -96 82c0 11 1 23 3 36l33 189c22 125 76 180 207 180c45 0 112 -8 172 -28zM349 156l49 279
c-31 7 -78 12 -118 12c-91 0 -126 -33 -145 -140l-31 -179c-2 -12 -3 -21 -3 -29c0 -31 15 -39 45 -39c62 0 140 40 203 96z" />
    <glyph glyph-name="h" unicode="h" horiz-adv-x="518" 
d="M337 0l70 396c1 6 2 12 2 16c0 24 -13 33 -41 33c-51 0 -146 -45 -208 -84l-64 -361h-56l121 686l57 8l-48 -276c51 34 150 79 208 79c60 0 86 -31 86 -80c0 -8 -1 -20 -3 -31l-68 -386h-56z" />
    <glyph glyph-name="i" unicode="i" horiz-adv-x="226" 
d="M141 573l19 113l58 8l-20 -113zM40 0l85 483l57 8l-86 -491h-56z" />
    <glyph glyph-name="j" unicode="j" horiz-adv-x="221" 
d="M183 491l-94 -529c-10 -59 -16 -72 -141 -169l-30 41c96 78 108 87 117 139l90 510zM141 573l19 113l58 8l-20 -113z" />
    <glyph glyph-name="k" unicode="k" horiz-adv-x="452" 
d="M317 0l-146 247l223 247l54 -20l-215 -229l146 -245h-62zM40 0l121 686l57 8l-122 -694h-56z" />
    <glyph glyph-name="l" unicode="l" horiz-adv-x="226" 
d="M40 0l121 686l57 8l-122 -694h-56z" />
    <glyph glyph-name="m" unicode="m" horiz-adv-x="815" 
d="M634 0l70 396c1 6 2 12 2 16c0 24 -13 33 -41 33c-51 0 -146 -44 -208 -84l-64 -361h-56l70 396c1 6 2 12 2 16c0 24 -13 33 -41 33c-51 0 -146 -45 -208 -84l-64 -361h-56l85 483l49 8l-8 -75c49 34 153 81 212 81c60 0 86 -32 86 -81c49 35 153 81 211 81
c60 0 86 -31 86 -80c0 -8 -1 -20 -3 -31l-68 -386h-56z" />
    <glyph glyph-name="n" unicode="n" horiz-adv-x="518" 
d="M337 0l70 396c1 6 2 12 2 16c0 24 -13 33 -41 33c-51 0 -146 -45 -208 -84l-64 -361h-56l85 483l49 8l-8 -75c49 34 153 81 212 81c60 0 86 -31 86 -80c0 -8 -1 -20 -3 -31l-68 -386h-56z" />
    <glyph glyph-name="o" unicode="o" horiz-adv-x="496" 
d="M201 -10c-115 0 -160 58 -160 136c0 14 1 29 4 44l26 148c19 107 75 179 219 179c108 0 162 -56 162 -137c0 -12 -2 -24 -4 -37l-28 -159c-19 -108 -79 -174 -219 -174zM364 165l28 158c2 12 3 23 3 34c0 60 -35 90 -114 90c-92 0 -139 -44 -154 -129l-27 -153
c-2 -13 -3 -26 -3 -37c0 -57 31 -88 113 -88c90 0 139 42 154 125z" />
    <glyph glyph-name="p" unicode="p" horiz-adv-x="507" 
d="M177 487l-10 -71c56 48 129 81 199 81c62 0 97 -22 97 -82c0 -11 -2 -23 -4 -36l-43 -243c-18 -102 -63 -146 -174 -146c-41 0 -94 7 -144 19l-37 -206l-57 -8l122 692h51zM158 351l-51 -291c50 -12 99 -20 146 -20c67 0 95 28 108 100l42 239c2 12 3 21 3 30
c0 31 -15 38 -45 38c-62 0 -140 -40 -203 -96z" />
    <glyph glyph-name="q" unicode="q" horiz-adv-x="502" 
d="M460 469l-118 -666l-57 -8l48 274c-55 -47 -127 -79 -196 -79c-62 0 -96 22 -96 82c0 10 1 23 3 36l37 209c22 125 76 180 207 180c45 0 112 -8 172 -28zM345 136l53 299c-31 7 -78 12 -118 12c-91 0 -126 -33 -145 -140l-35 -199c-2 -12 -3 -20 -3 -29
c0 -31 15 -39 45 -39c62 0 140 40 203 96z" />
    <glyph glyph-name="r" unicode="r" horiz-adv-x="301" 
d="M310 497l3 -55c-53 -31 -104 -64 -156 -98l-60 -344h-56l84 483l52 8l-12 -86c37 28 101 70 145 92z" />
    <glyph glyph-name="s" unicode="s" horiz-adv-x="408" 
d="M164 -10c-44 0 -102 9 -139 25l12 46c40 -13 92 -21 129 -21c82 0 102 11 113 80c8 50 -7 62 -90 106c-94 50 -122 76 -110 154c12 76 46 117 169 117c43 0 98 -8 135 -20l-10 -47c-39 10 -92 17 -128 17c-82 0 -99 -12 -110 -72c-10 -56 8 -67 77 -105
c115 -63 134 -83 121 -159c-14 -84 -42 -121 -169 -121z" />
    <glyph glyph-name="t" unicode="t" horiz-adv-x="360" 
d="M168 -10c-49 0 -80 21 -80 65c0 6 1 12 2 19l64 365h-93l8 48h94l21 119l57 8l-22 -127h146l-11 -48h-144l-63 -359c-1 -7 -2 -13 -2 -18c0 -19 10 -24 33 -24c27 0 61 8 97 23l14 -38c-37 -21 -79 -33 -121 -33z" />
    <glyph glyph-name="u" unicode="u" horiz-adv-x="518" 
d="M178 491l-71 -400c-1 -6 -2 -13 -2 -18c0 -20 13 -31 41 -31c51 0 146 45 208 84l63 357l58 8l-87 -491h-48l8 71c-56 -39 -150 -81 -212 -81c-60 0 -86 31 -86 80c0 10 1 20 3 31l67 382z" />
    <glyph glyph-name="v" unicode="v" horiz-adv-x="423" 
d="M222 0h-85l-80 483l54 8l73 -454l155 307c15 30 20 57 20 80c0 21 -4 40 -10 59l58 8c5 -19 9 -41 9 -65c0 -26 -5 -54 -18 -84z" />
    <glyph glyph-name="w" unicode="w" horiz-adv-x="672" 
d="M329 483l48 8l91 -457l113 279c15 39 17 69 17 99c0 25 -3 49 -8 71l53 8c4 -24 7 -50 7 -76c0 -37 -4 -71 -19 -112l-123 -303h-86l-60 307l-166 -307h-85c-1 200 -17 353 -48 483l52 8c23 -117 44 -258 44 -457l189 347z" />
    <glyph glyph-name="x" unicode="x" horiz-adv-x="435" 
d="M-21 0l206 245l-115 238l52 8l101 -206l166 202h66l-208 -247l119 -240h-60l-96 196l-165 -196h-66z" />
    <glyph glyph-name="y" unicode="y" horiz-adv-x="418" 
d="M222 0c-53 -93 -98 -164 -221 -205l-15 43c80 29 128 70 179 162h-28l-80 483l54 8l73 -454l155 307c16 31 22 56 22 78s-6 41 -12 61l57 8c5 -18 10 -41 10 -67s-5 -54 -18 -82z" />
    <glyph glyph-name="z" unicode="z" horiz-adv-x="434" 
d="M28 0l-3 46l323 396h-252l7 45h308v-46l-323 -396h264l-7 -45h-317z" />
    <glyph glyph-name="braceleft" unicode="{" horiz-adv-x="304" 
d="M66 299l9 50h15c38 0 48 12 53 42l54 308c13 74 42 91 109 91h74l-9 -50h-72c-29 0 -40 -10 -45 -38l-55 -309c-6 -35 -22 -68 -70 -69c37 -1 47 -22 47 -47c0 -7 -1 -14 -2 -22l-54 -311c-1 -5 -2 -12 -2 -15c0 -17 9 -21 34 -21h72l-9 -50h-74c-55 0 -79 15 -79 59
c0 9 1 20 3 32l55 308c1 6 2 11 2 15c0 19 -10 27 -41 27h-15z" />
    <glyph glyph-name="bar" unicode="|" horiz-adv-x="247" 
d="M120 -210v1000h37v-1000h-37z" />
    <glyph glyph-name="braceright" unicode="}" horiz-adv-x="301" 
d="M263 349l-9 -50h-15c-38 0 -48 -12 -53 -42l-54 -308c-13 -74 -42 -91 -109 -91h-74l9 50h72c29 0 40 10 45 38l55 309c6 35 22 68 70 69c-37 2 -47 22 -47 47c0 7 1 15 2 22l54 311c1 5 2 11 2 14c0 17 -10 22 -34 22h-72l9 50h74c55 0 79 -15 79 -59
c0 -9 -1 -20 -3 -32l-55 -308c-1 -6 -1 -11 -1 -15c0 -19 9 -27 40 -27h15z" />
    <glyph glyph-name="asciitilde" unicode="~" horiz-adv-x="490" 
d="M343 210c-75 0 -104 85 -165 85c-41 0 -68 -33 -96 -89l-34 22c27 55 65 109 133 109c74 0 105 -85 163 -85c49 0 66 42 89 89l34 -20c-26 -57 -54 -111 -124 -111z" />
    <glyph glyph-name="uni00A0" unicode="&#xa0;" horiz-adv-x="220" 
 />
    <glyph glyph-name="exclamdown" unicode="&#xa1;" horiz-adv-x="251" 
d="M120 315h32l-17 -165l-61 -347h-56l61 347zM197 487l-15 -86h-60l15 86h60z" />
    <glyph glyph-name="cent" unicode="&#xa2;" horiz-adv-x="416" 
d="M159 -10l16 90c-72 0 -121 34 -121 100c0 9 1 20 3 30l35 197c22 121 67 172 172 179l16 91h54l-16 -91c33 -3 71 -11 95 -19l-12 -47c-38 11 -81 17 -115 17c-89 0 -121 -32 -140 -140l-34 -194c-1 -8 -2 -15 -2 -22c0 -38 24 -51 72 -51s102 11 158 34l9 -47
c-32 -16 -78 -30 -120 -34l-16 -93h-54z" />
    <glyph glyph-name="sterling" unicode="&#xa3;" horiz-adv-x="526" 
d="M47 0l8 51c83 61 151 140 151 222c0 12 -1 23 -4 35h-117l6 48h97c-21 42 -30 91 -30 130c0 109 54 170 203 170c46 0 111 -10 145 -22l-11 -46c-35 10 -90 18 -131 18c-113 0 -150 -34 -150 -121c0 -40 11 -85 32 -129h196l-8 -48h-175c2 -11 3 -23 3 -34
c0 -82 -53 -158 -130 -224h295l-8 -50h-372z" />
    <glyph glyph-name="currency" unicode="&#xa4;" horiz-adv-x="534" 
d="M515 540l-76 -64c6 -13 10 -28 10 -44c0 -7 -1 -16 -3 -26l-25 -143c-6 -32 -14 -60 -31 -81l50 -61l-42 -36l-53 64c-24 -11 -57 -16 -99 -16c-37 0 -66 6 -86 16l-70 -59l-32 40l65 55c-7 14 -10 29 -10 46c0 10 1 21 3 32l25 144c5 31 15 58 32 79l-51 63l42 36
l53 -66c25 11 58 18 100 18c37 0 67 -8 88 -22l77 65zM193 394l-21 -118c-2 -14 -4 -27 -4 -39c0 -36 18 -54 87 -54c83 0 103 31 114 93l21 118c2 13 4 25 4 35c0 39 -20 58 -86 58c-86 0 -104 -31 -115 -93z" />
    <glyph glyph-name="yen" unicode="&#xa5;" horiz-adv-x="528" 
d="M67 313l8 42h103l-91 291h56l120 -383l248 383h65l-193 -291h99l-8 -42h-118l-76 -115l-3 -15h175l-8 -42h-174l-25 -141h-57l25 141h-176l8 42h175l5 24l-34 106h-124z" />
    <glyph glyph-name="brokenbar" unicode="&#xa6;" horiz-adv-x="247" 
d="M120 374v416h37v-416h-37zM120 -210v416h37v-416h-37z" />
    <glyph glyph-name="section" unicode="&#xa7;" horiz-adv-x="524" 
d="M387 605c-41 12 -94 23 -129 23c-58 0 -75 -15 -84 -65c-6 -35 -9 -73 -9 -114c0 -131 24 -282 62 -438l-53 -11c-38 146 -64 312 -64 453c0 41 2 80 8 114c14 79 44 109 145 109c41 0 97 -12 135 -27zM157 -115c41 -12 94 -23 129 -23c58 0 75 15 84 65c6 35 9 73 9 114
c0 131 -24 282 -62 438l53 11c38 -146 64 -312 64 -453c0 -41 -2 -80 -8 -114c-14 -79 -44 -109 -145 -109c-41 0 -97 12 -135 27z" />
    <glyph glyph-name="dieresis" unicode="&#xa8;" horiz-adv-x="387" 
d="M300 568l13 69l60 2l-13 -69zM130 568l13 69l60 2l-12 -69z" />
    <glyph glyph-name="copyright" unicode="&#xa9;" horiz-adv-x="809" 
d="M417 -10c-215 0 -342 154 -342 343c0 190 127 344 342 344s342 -154 342 -344c0 -189 -127 -343 -342 -343zM417 635c-184 0 -296 -135 -296 -302s112 -301 296 -301s296 134 296 301s-112 302 -296 302zM419 159c-91 0 -119 32 -119 102v144c0 70 28 102 119 102
c36 0 73 -6 100 -14l-6 -37c-31 7 -64 11 -91 11c-63 0 -80 -12 -80 -63v-142c0 -51 17 -63 80 -63c27 0 60 4 91 11l6 -37c-27 -8 -64 -14 -100 -14z" />
    <glyph glyph-name="ordfeminine" unicode="&#xaa;" horiz-adv-x="386" 
d="M277 394l5 34c-32 -24 -72 -40 -110 -40c-40 0 -62 13 -62 52c0 6 1 18 2 23l22 121c14 79 38 112 125 112c35 0 76 -8 107 -21l-50 -281h-39zM288 476l31 175c-17 4 -42 7 -63 7c-51 0 -70 -13 -82 -79l-20 -118c-1 -5 -2 -13 -2 -17c0 -16 8 -19 22 -19
c33 0 79 20 114 51z" />
    <glyph glyph-name="guillemotleft" unicode="&#xab;" horiz-adv-x="467" 
d="M143 52l-92 192l159 193l41 -36l-137 -162l79 -162zM327 52l-92 192l159 193l41 -36l-137 -162l79 -162z" />
    <glyph glyph-name="logicalnot" unicode="&#xac;" horiz-adv-x="559" 
d="M412 39v180h-352v50h404v-230h-52z" />
    <glyph glyph-name="registered" unicode="&#xae;" horiz-adv-x="479" 
d="M290 334c-111 0 -180 82 -180 181c0 100 69 181 180 181s179 -81 179 -181c0 -99 -68 -181 -179 -181zM290 665c-96 0 -147 -68 -147 -150s51 -149 147 -149s146 67 146 149s-50 150 -146 150zM342 437l-42 55h-41v-55h-22v164h63c36 0 49 -15 49 -42v-21
c0 -23 -6 -35 -25 -42l45 -59h-27zM327 559c0 18 -9 22 -27 22h-41v-69h42c20 0 26 7 26 22v25z" />
    <glyph glyph-name="macron" unicode="&#xaf;" horiz-adv-x="382" 
d="M130 570l8 44h234l-8 -44h-234z" />
    <glyph glyph-name="degree" unicode="&#xb0;" horiz-adv-x="335" 
d="M203 447c-57 0 -88 37 -88 84c0 68 46 125 123 125c57 0 87 -36 87 -84c0 -70 -40 -125 -122 -125zM233 626c-52 0 -83 -46 -83 -91c0 -32 14 -58 59 -58c59 0 82 47 82 91c0 32 -18 58 -58 58z" />
    <glyph glyph-name="plusminus" unicode="&#xb1;" horiz-adv-x="537" 
d="M294 298v-179h-54v179h-175v50h175v179h54v-179h175v-50h-175zM65 0v50h404v-50h-404z" />
    <glyph glyph-name="twosuperior" unicode="&#xb2;" horiz-adv-x="377" 
d="M75 244l3 39c31 32 39 41 108 111c35 36 48 50 74 80c20 23 30 38 34 64l4 24c1 6 2 12 2 15c0 28 -20 36 -64 36c-26 0 -62 -6 -88 -13l-7 41c31 9 70 15 101 15c64 0 105 -24 105 -74c0 -6 -1 -12 -2 -19l-4 -26c-5 -30 -10 -50 -50 -94c-73 -80 -89 -96 -146 -155h158
l-7 -44h-221z" />
    <glyph glyph-name="threesuperior" unicode="&#xb3;" horiz-adv-x="389" 
d="M183 236c-25 0 -68 6 -98 15l10 39c31 -8 70 -12 91 -12c68 0 82 17 89 57l7 39c1 5 1 9 1 13c0 27 -18 39 -56 39h-82l7 43h83c44 0 57 18 62 47l9 51c1 7 1 12 1 14c0 26 -20 33 -60 33c-24 0 -57 -3 -88 -9l-2 39c28 8 70 12 95 12c71 0 102 -29 102 -74
c0 -6 -1 -13 -2 -20l-8 -45c-6 -34 -18 -54 -55 -69c26 -10 41 -29 41 -57c0 -5 -1 -11 -2 -17l-7 -39c-13 -72 -45 -99 -138 -99z" />
    <glyph glyph-name="acute" unicode="&#xb4;" horiz-adv-x="292" 
d="M147 556l-22 39c54 26 85 44 140 81l24 -39c-49 -34 -83 -53 -142 -81z" />
    <glyph glyph-name="mu" unicode="&#xb5;" horiz-adv-x="518" 
d="M51 93l69 390l58 8l-71 -401c-1 -6 -2 -12 -2 -19c1 -21 14 -29 41 -29c51 0 146 45 208 84l63 357l58 8l-87 -491h-48l8 71c-56 -39 -150 -81 -212 -81c-18 0 -35 3 -45 11l-35 -198h-56z" />
    <glyph glyph-name="paragraph" unicode="&#xb6;" horiz-adv-x="488" 
d="M97 427c0 144 96 239 239 239l-71 -402c-101 1 -168 68 -168 163zM197 -207l-28 36c103 88 109 100 112 118l126 719h54l-128 -725c-6 -36 -8 -41 -136 -148z" />
    <glyph glyph-name="periodcentered" unicode="&#xb7;" horiz-adv-x="240" 
d="M95 277l15 86h60l-15 -86h-60z" />
    <glyph glyph-name="cedilla" unicode="&#xb8;" horiz-adv-x="309" 
d="M80 -207c-28 0 -53 5 -75 14l11 35c18 -6 40 -11 63 -11c43 0 65 15 65 43c0 16 -15 26 -43 26c-13 0 -33 -1 -45 -3l-6 14l30 89h40l-23 -71c10 2 22 3 30 3c36 0 62 -19 62 -53c0 -54 -39 -86 -109 -86z" />
    <glyph glyph-name="onesuperior" unicode="&#xb9;" horiz-adv-x="339" 
d="M164 242l61 347l-85 -39l-15 35l120 61h39l-72 -404h-48z" />
    <glyph glyph-name="ordmasculine" unicode="&#xba;" horiz-adv-x="386" 
d="M219 388c-71 0 -99 33 -99 81c0 13 1 17 2 26l17 95c12 67 44 106 132 106c61 0 100 -34 100 -89c0 -7 -1 -15 -2 -23l-16 -91c-11 -61 -42 -105 -134 -105zM311 494l17 96c1 7 2 13 2 18c0 33 -20 50 -64 50c-53 0 -79 -19 -89 -73l-16 -92c-1 -7 -2 -14 -2 -20
c0 -32 18 -48 65 -48c50 0 79 23 87 69z" />
    <glyph glyph-name="guillemotright" unicode="&#xbb;" horiz-adv-x="467" 
d="M327 442l92 -192l-159 -193l-41 36l137 162l-79 162zM143 442l92 -192l-159 -193l-41 36l137 162l-79 162z" />
    <glyph glyph-name="onequarter" unicode="&#xbc;" horiz-adv-x="825" 
d="M654 91l-16 -91h-46l16 91h-184l5 47l217 266h63l-48 -271h59l-7 -42h-59zM654 356l-175 -223h136zM221 -31l-35 21l382 682l34 -19zM164 242l61 347l-85 -39l-15 35l120 61h39l-72 -404h-48z" />
    <glyph glyph-name="onehalf" unicode="&#xbd;" horiz-adv-x="832" 
d="M485 0l3 39c31 32 39 41 108 111c35 36 48 50 74 80c20 23 30 38 34 64l4 24c1 6 2 12 2 15c0 28 -20 36 -64 36c-26 0 -62 -6 -88 -13l-7 41c31 9 70 15 101 15c64 0 105 -24 105 -74c0 -6 -1 -12 -2 -19l-4 -26c-5 -30 -10 -50 -50 -94c-73 -80 -89 -96 -146 -155h158
l-7 -44h-221zM221 -31l-35 21l382 682l34 -19zM164 242l61 347l-85 -39l-15 35l120 61h39l-72 -404h-48z" />
    <glyph glyph-name="threequarters" unicode="&#xbe;" horiz-adv-x="861" 
d="M183 236c-25 0 -68 6 -98 15l10 39c31 -8 70 -12 91 -12c68 0 82 17 89 57l7 39c1 5 1 9 1 13c0 27 -18 39 -56 39h-82l7 43h83c44 0 57 18 62 47l9 51c1 7 1 12 1 14c0 26 -20 33 -60 33c-24 0 -57 -3 -88 -9l-2 39c28 8 70 12 95 12c71 0 102 -29 102 -74
c0 -6 -1 -13 -2 -20l-8 -45c-6 -34 -18 -54 -55 -69c26 -10 41 -29 41 -57c0 -5 -1 -11 -2 -17l-7 -39c-13 -72 -45 -99 -138 -99zM690 91l-16 -91h-46l16 91h-184l5 47l217 266h63l-48 -271h59l-7 -42h-59zM690 356l-175 -223h136zM257 -31l-35 21l382 682l34 -19z" />
    <glyph glyph-name="questiondown" unicode="&#xbf;" horiz-adv-x="461" 
d="M161 179c51 36 79 55 118 82l28 -43c-40 -27 -61 -41 -125 -85c-69 -48 -80 -65 -97 -161c-5 -28 -8 -50 -8 -67c0 -50 26 -62 112 -62c29 0 88 6 130 15l6 -49c-51 -11 -101 -16 -147 -16c-117 0 -156 34 -156 112c0 20 2 42 7 68c22 125 33 136 132 206zM346 487
l-15 -86h-60l15 86h60z" />
    <glyph glyph-name="Agrave" unicode="&#xc0;" horiz-adv-x="616" 
d="M481 0l-29 176h-301l-93 -176h-59l342 666h86l112 -666h-58zM381 636l-204 -410h265zM392 722c-48 27 -76 47 -109 72l30 39c35 -28 59 -45 104 -73z" />
    <glyph glyph-name="Aacute" unicode="&#xc1;" horiz-adv-x="616" 
d="M481 0l-29 176h-301l-93 -176h-59l342 666h86l112 -666h-58zM381 636l-204 -410h265zM386 720l-25 38c41 26 69 45 104 73l29 -39c-33 -25 -60 -45 -108 -72z" />
    <glyph glyph-name="Acircumflex" unicode="&#xc2;" horiz-adv-x="616" 
d="M481 0l-29 176h-301l-93 -176h-59l342 666h86l112 -666h-58zM381 636l-204 -410h265zM488 722c-45 24 -60 33 -93 54c-37 -21 -67 -37 -98 -54l-19 38c40 22 75 43 122 73c36 -26 61 -44 109 -76z" />
    <glyph glyph-name="Atilde" unicode="&#xc3;" horiz-adv-x="616" 
d="M481 0l-29 176h-301l-93 -176h-59l342 666h86l112 -666h-58zM381 636l-204 -410h265zM451 728c-40 0 -78 35 -107 35c-24 0 -41 -15 -59 -31l-22 24c17 26 47 53 88 53c38 0 68 -35 102 -35c19 0 30 6 50 24l24 -24c-20 -29 -41 -46 -76 -46z" />
    <glyph glyph-name="Adieresis" unicode="&#xc4;" horiz-adv-x="616" 
d="M481 0l-29 176h-301l-93 -176h-59l342 666h86l112 -666h-58zM381 636l-204 -410h265zM449 734l11 60h64l-11 -60h-64zM275 734l11 60h64l-11 -60h-64z" />
    <glyph glyph-name="Aring" unicode="&#xc5;" horiz-adv-x="616" 
d="M481 0l-29 176h-301l-93 -176h-59l342 666h86l112 -666h-58zM381 636l-204 -410h265zM396 713c-34 0 -53 20 -53 50c0 44 27 73 74 73c35 0 53 -21 53 -47c0 -41 -22 -76 -74 -76zM413 809c-22 0 -38 -17 -38 -42c0 -15 6 -26 25 -26c26 0 37 20 37 44c0 16 -6 24 -24 24
z" />
    <glyph glyph-name="AE" unicode="&#xc6;" horiz-adv-x="835" 
d="M481 0l-28 176h-302l-93 -176h-59l342 666h506l-9 -51h-403l41 -250h296l-9 -51h-278l44 -263h210l-8 -51h-250zM381 636l-204 -410h266z" />
    <glyph glyph-name="Ccedilla" unicode="&#xc7;" horiz-adv-x="507" 
d="M221 -207c-28 0 -53 5 -75 14l11 35c18 -6 40 -11 63 -11c43 0 65 15 65 43c0 16 -15 26 -43 26c-13 0 -33 -1 -45 -3l-6 14l27 80c-115 8 -161 59 -161 142c0 16 2 32 5 50l53 300c24 135 93 193 254 193c48 0 109 -7 155 -19l-10 -49c-44 10 -106 17 -149 17
c-121 0 -175 -39 -194 -148l-52 -293c-3 -16 -4 -30 -4 -43c0 -69 41 -100 147 -100c43 0 104 6 153 14l2 -49c-48 -9 -112 -15 -159 -16l-20 -61c10 2 22 3 30 3c36 0 62 -19 62 -53c0 -54 -39 -86 -109 -86z" />
    <glyph glyph-name="Egrave" unicode="&#xc8;" horiz-adv-x="524" 
d="M45 0l117 666h374l-9 -51h-316l-44 -250h294l-9 -51h-294l-47 -263h317l-8 -51h-375zM365 722c-48 27 -76 47 -109 72l30 39c35 -28 59 -45 104 -73z" />
    <glyph glyph-name="Eacute" unicode="&#xc9;" horiz-adv-x="524" 
d="M45 0l117 666h374l-9 -51h-316l-44 -250h294l-9 -51h-294l-47 -263h317l-8 -51h-375zM340 720l-25 38c41 26 69 45 104 73l29 -39c-33 -25 -60 -45 -108 -72z" />
    <glyph glyph-name="Ecircumflex" unicode="&#xca;" horiz-adv-x="524" 
d="M45 0l117 666h374l-9 -51h-316l-44 -250h294l-9 -51h-294l-47 -263h317l-8 -51h-375zM449 722c-45 24 -60 33 -93 54c-37 -21 -67 -37 -98 -54l-19 38c40 22 75 43 122 73c36 -26 61 -44 109 -76z" />
    <glyph glyph-name="Edieresis" unicode="&#xcb;" horiz-adv-x="524" 
d="M45 0l117 666h374l-9 -51h-316l-44 -250h294l-9 -51h-294l-47 -263h317l-8 -51h-375zM410 734l11 60h64l-11 -60h-64zM236 734l11 60h64l-11 -60h-64z" />
    <glyph glyph-name="Igrave" unicode="&#xcc;" horiz-adv-x="247" 
d="M50 0l117 666h57l-117 -666h-57zM211 722c-48 27 -76 47 -109 72l30 39c35 -28 59 -45 104 -73z" />
    <glyph glyph-name="Iacute" unicode="&#xcd;" horiz-adv-x="247" 
d="M50 0l117 666h57l-117 -666h-57zM199 720l-25 38c41 26 69 45 104 73l29 -39c-33 -25 -60 -45 -108 -72z" />
    <glyph glyph-name="Icircumflex" unicode="&#xce;" horiz-adv-x="247" 
d="M50 0l117 666h57l-117 -666h-57zM304 722c-45 24 -60 33 -93 54c-37 -21 -67 -37 -98 -54l-19 38c40 22 75 43 122 73c36 -26 61 -44 109 -76z" />
    <glyph glyph-name="Idieresis" unicode="&#xcf;" horiz-adv-x="247" 
d="M50 0l117 666h57l-117 -666h-57zM265 734l11 60h64l-11 -60h-64zM91 734l11 60h64l-11 -60h-64z" />
    <glyph glyph-name="Eth" unicode="&#xd0;" horiz-adv-x="606" 
d="M38 315l9 48h77l53 303h217c129 0 179 -60 179 -149c0 -16 -2 -34 -5 -52l-49 -279c-23 -129 -73 -186 -234 -186h-225l55 315h-77zM512 466c3 18 5 35 5 50c0 66 -35 99 -128 99h-163l-45 -252h141l-9 -48h-140l-47 -264h163c124 0 158 47 175 143z" />
    <glyph glyph-name="Ntilde" unicode="&#xd1;" horiz-adv-x="640" 
d="M419 0l-210 613l-108 -613h-56l117 666h86l210 -614l108 614h56l-117 -666h-86zM468 728c-40 0 -78 35 -107 35c-24 0 -41 -15 -59 -31l-22 24c17 26 47 53 88 53c38 0 68 -35 102 -35c19 0 30 6 50 24l24 -24c-20 -29 -41 -46 -76 -46z" />
    <glyph glyph-name="Ograve" unicode="&#xd2;" horiz-adv-x="614" 
d="M260 -10c-146 0 -200 66 -200 157c0 15 1 31 4 47l49 276c26 147 98 206 266 206c136 0 202 -74 202 -167c0 -11 -2 -26 -4 -39l-50 -280c-21 -118 -86 -200 -267 -200zM470 190l50 281c3 14 4 30 4 41c0 71 -43 113 -152 113c-128 0 -184 -48 -203 -155l-48 -272
c-3 -17 -4 -33 -4 -48c0 -69 37 -109 152 -109c134 0 184 55 201 149zM384 722c-48 27 -76 47 -109 72l30 39c35 -28 59 -45 104 -73z" />
    <glyph glyph-name="Oacute" unicode="&#xd3;" horiz-adv-x="614" 
d="M260 -10c-146 0 -200 66 -200 157c0 15 1 31 4 47l49 276c26 147 98 206 266 206c136 0 202 -74 202 -167c0 -11 -2 -26 -4 -39l-50 -280c-21 -118 -86 -200 -267 -200zM470 190l50 281c3 14 4 30 4 41c0 71 -43 113 -152 113c-128 0 -184 -48 -203 -155l-48 -272
c-3 -17 -4 -33 -4 -48c0 -69 37 -109 152 -109c134 0 184 55 201 149zM383 720l-25 38c41 26 69 45 104 73l29 -39c-33 -25 -60 -45 -108 -72z" />
    <glyph glyph-name="Ocircumflex" unicode="&#xd4;" horiz-adv-x="614" 
d="M260 -10c-146 0 -200 66 -200 157c0 15 1 31 4 47l49 276c26 147 98 206 266 206c136 0 202 -74 202 -167c0 -11 -2 -26 -4 -39l-50 -280c-21 -118 -86 -200 -267 -200zM470 190l50 281c3 14 4 30 4 41c0 71 -43 113 -152 113c-128 0 -184 -48 -203 -155l-48 -272
c-3 -17 -4 -33 -4 -48c0 -69 37 -109 152 -109c134 0 184 55 201 149zM484 722c-45 24 -60 33 -93 54c-37 -21 -67 -37 -98 -54l-19 38c40 22 75 43 122 73c36 -26 61 -44 109 -76z" />
    <glyph glyph-name="Otilde" unicode="&#xd5;" horiz-adv-x="614" 
d="M260 -10c-146 0 -200 66 -200 157c0 15 1 31 4 47l49 276c26 147 98 206 266 206c136 0 202 -74 202 -167c0 -11 -2 -26 -4 -39l-50 -280c-21 -118 -86 -200 -267 -200zM470 190l50 281c3 14 4 30 4 41c0 71 -43 113 -152 113c-128 0 -184 -48 -203 -155l-48 -272
c-3 -17 -4 -33 -4 -48c0 -69 37 -109 152 -109c134 0 184 55 201 149zM444 728c-40 0 -78 35 -107 35c-24 0 -41 -15 -59 -31l-22 24c17 26 47 53 88 53c38 0 68 -35 102 -35c19 0 30 6 50 24l24 -24c-20 -29 -41 -46 -76 -46z" />
    <glyph glyph-name="Odieresis" unicode="&#xd6;" horiz-adv-x="614" 
d="M260 -10c-146 0 -200 66 -200 157c0 15 1 31 4 47l49 276c26 147 98 206 266 206c136 0 202 -74 202 -167c0 -11 -2 -26 -4 -39l-50 -280c-21 -118 -86 -200 -267 -200zM470 190l50 281c3 14 4 30 4 41c0 71 -43 113 -152 113c-128 0 -184 -48 -203 -155l-48 -272
c-3 -17 -4 -33 -4 -48c0 -69 37 -109 152 -109c134 0 184 55 201 149zM444 734l11 60h64l-11 -60h-64zM270 734l11 60h64l-11 -60h-64z" />
    <glyph glyph-name="multiply" unicode="&#xd7;" horiz-adv-x="541" 
d="M431 50l-158 158l-158 -158l-35 35l157 159l-157 159l35 35l158 -158l158 158l35 -35l-157 -159l157 -159z" />
    <glyph glyph-name="Oslash" unicode="&#xd8;" horiz-adv-x="614" 
d="M626 703l-74 -100c19 -27 29 -59 29 -94c0 -11 -2 -26 -4 -39l-50 -280c-21 -118 -86 -200 -267 -200c-60 0 -104 11 -135 30l-59 -80l-31 23l60 81c-25 27 -35 63 -35 103c0 15 1 31 4 47l49 276c26 147 98 206 266 206c64 0 113 -17 147 -44l69 94zM117 150
c0 -23 4 -42 13 -58l365 498c-24 22 -64 35 -123 35c-128 0 -184 -48 -203 -155l-48 -272c-3 -17 -4 -33 -4 -48zM470 190l50 281c3 14 4 30 4 41c0 16 -3 30 -7 43l-360 -491c24 -15 60 -23 112 -23c134 0 184 55 201 149z" />
    <glyph glyph-name="Ugrave" unicode="&#xd9;" horiz-adv-x="628" 
d="M267 -10c-140 0 -197 68 -197 160c0 14 2 31 4 44l83 472h57l-84 -477c-2 -14 -4 -28 -4 -40c0 -72 44 -108 150 -108c126 0 183 58 199 152l83 473h57l-84 -479c-20 -113 -83 -197 -264 -197zM408 722c-48 27 -76 47 -109 72l30 39c35 -28 59 -45 104 -73z" />
    <glyph glyph-name="Uacute" unicode="&#xda;" horiz-adv-x="628" 
d="M267 -10c-140 0 -197 68 -197 160c0 14 2 31 4 44l83 472h57l-84 -477c-2 -14 -4 -28 -4 -40c0 -72 44 -108 150 -108c126 0 183 58 199 152l83 473h57l-84 -479c-20 -113 -83 -197 -264 -197zM381 720l-25 38c41 26 69 45 104 73l29 -39c-33 -25 -60 -45 -108 -72z" />
    <glyph glyph-name="Ucircumflex" unicode="&#xdb;" horiz-adv-x="628" 
d="M267 -10c-140 0 -197 68 -197 160c0 14 2 31 4 44l83 472h57l-84 -477c-2 -14 -4 -28 -4 -40c0 -72 44 -108 150 -108c126 0 183 58 199 152l83 473h57l-84 -479c-20 -113 -83 -197 -264 -197zM496 722c-45 24 -60 33 -93 54c-37 -21 -67 -37 -98 -54l-19 38
c40 22 75 43 122 73c36 -26 61 -44 109 -76z" />
    <glyph glyph-name="Udieresis" unicode="&#xdc;" horiz-adv-x="628" 
d="M267 -10c-140 0 -197 68 -197 160c0 14 2 31 4 44l83 472h57l-84 -477c-2 -14 -4 -28 -4 -40c0 -72 44 -108 150 -108c126 0 183 58 199 152l83 473h57l-84 -479c-20 -113 -83 -197 -264 -197zM445 734l11 60h64l-11 -60h-64zM271 734l11 60h64l-11 -60h-64z" />
    <glyph glyph-name="Yacute" unicode="&#xdd;" horiz-adv-x="523" 
d="M280 198l-35 -198h-57l37 207l-144 459h56l126 -403l261 403h65zM329 720l-25 38c41 26 69 45 104 73l29 -39c-33 -25 -60 -45 -108 -72z" />
    <glyph glyph-name="Thorn" unicode="&#xde;" horiz-adv-x="549" 
d="M293 133h-167l-24 -133h-57l117 666h57l-21 -122h168c114 0 158 -47 158 -118c0 -12 -2 -25 -4 -38l-18 -102c-18 -100 -57 -153 -209 -153zM445 286l19 107c2 10 3 21 3 28c0 53 -31 72 -109 72h-169l-54 -309h168c92 0 128 24 142 102z" />
    <glyph glyph-name="germandbls" unicode="&#xdf;" horiz-adv-x="587" 
d="M39 -40l101 573c21 121 77 173 205 173c100 0 151 -54 151 -121c0 -56 -13 -91 -65 -162c-37 -50 -52 -77 -52 -108c0 -15 4 -29 61 -70c54 -39 71 -57 71 -94c0 -106 -27 -161 -169 -161c-30 0 -69 5 -100 18l12 47c28 -9 75 -15 98 -15c73 0 101 17 101 99
c0 26 -14 40 -66 77c-51 37 -64 64 -64 95c0 44 18 78 48 119c62 84 69 110 69 152c0 46 -34 76 -104 76c-79 0 -124 -30 -142 -134l-100 -570c-14 -83 -38 -118 -93 -161l-31 36c40 35 56 59 69 131z" />
    <glyph glyph-name="agrave" unicode="&#xe0;" horiz-adv-x="499" 
d="M323 0l10 71c-56 -48 -126 -81 -196 -81c-62 0 -96 22 -96 82c0 11 1 23 3 36l37 209c23 128 76 180 207 180c45 0 111 -11 168 -32l-82 -465h-51zM342 136l52 295c-27 8 -74 16 -114 16c-91 0 -126 -33 -145 -140l-35 -199c-2 -12 -3 -21 -3 -29c0 -31 15 -39 45 -39
c61 0 137 40 200 96zM337 556c-47 29 -79 51 -110 79l31 38c34 -30 61 -49 106 -80z" />
    <glyph glyph-name="aacute" unicode="&#xe1;" horiz-adv-x="499" 
d="M323 0l10 71c-56 -48 -126 -81 -196 -81c-62 0 -96 22 -96 82c0 11 1 23 3 36l37 209c23 128 76 180 207 180c45 0 111 -11 168 -32l-82 -465h-51zM342 136l52 295c-27 8 -74 16 -114 16c-91 0 -126 -33 -145 -140l-35 -199c-2 -12 -3 -21 -3 -29c0 -31 15 -39 45 -39
c61 0 137 40 200 96zM285 556l-22 39c54 26 85 44 140 81l24 -39c-49 -34 -83 -53 -142 -81z" />
    <glyph glyph-name="acircumflex" unicode="&#xe2;" horiz-adv-x="499" 
d="M323 0l10 71c-56 -48 -126 -81 -196 -81c-62 0 -96 22 -96 82c0 11 1 23 3 36l37 209c23 128 76 180 207 180c45 0 111 -11 168 -32l-82 -465h-51zM342 136l52 295c-27 8 -74 16 -114 16c-91 0 -126 -33 -145 -140l-35 -199c-2 -12 -3 -21 -3 -29c0 -31 15 -39 45 -39
c61 0 137 40 200 96zM412 546c-43 26 -67 43 -94 64c-40 -27 -65 -40 -105 -64l-21 37c48 28 76 46 131 86c35 -34 65 -56 112 -89z" />
    <glyph glyph-name="atilde" unicode="&#xe3;" horiz-adv-x="499" 
d="M323 0l10 71c-56 -48 -126 -81 -196 -81c-62 0 -96 22 -96 82c0 11 1 23 3 36l37 209c23 128 76 180 207 180c45 0 111 -11 168 -32l-82 -465h-51zM342 136l52 295c-27 8 -74 16 -114 16c-91 0 -126 -33 -145 -140l-35 -199c-2 -12 -3 -21 -3 -29c0 -31 15 -39 45 -39
c61 0 137 40 200 96zM372 558c-40 0 -78 35 -107 35c-24 0 -41 -15 -59 -31l-22 24c17 26 47 53 88 53c38 0 68 -35 102 -35c19 0 30 6 50 24l24 -24c-20 -29 -41 -46 -76 -46z" />
    <glyph glyph-name="adieresis" unicode="&#xe4;" horiz-adv-x="499" 
d="M323 0l10 71c-56 -48 -126 -81 -196 -81c-62 0 -96 22 -96 82c0 11 1 23 3 36l37 209c23 128 76 180 207 180c45 0 111 -11 168 -32l-82 -465h-51zM342 136l52 295c-27 8 -74 16 -114 16c-91 0 -126 -33 -145 -140l-35 -199c-2 -12 -3 -21 -3 -29c0 -31 15 -39 45 -39
c61 0 137 40 200 96zM372 568l13 69l60 2l-13 -69zM202 568l13 69l60 2l-12 -69z" />
    <glyph glyph-name="aring" unicode="&#xe5;" horiz-adv-x="499" 
d="M323 0l10 71c-56 -48 -126 -81 -196 -81c-62 0 -96 22 -96 82c0 11 1 23 3 36l37 209c23 128 76 180 207 180c45 0 111 -11 168 -32l-82 -465h-51zM342 136l52 295c-27 8 -74 16 -114 16c-91 0 -126 -33 -145 -140l-35 -199c-2 -12 -3 -21 -3 -29c0 -31 15 -39 45 -39
c61 0 137 40 200 96zM313 541c-36 0 -55 22 -55 52c0 44 27 75 76 75c35 0 55 -22 55 -49c0 -41 -25 -78 -76 -78zM330 641c-22 0 -40 -19 -40 -44c0 -15 5 -28 27 -28c26 0 39 22 39 46c0 16 -8 26 -26 26z" />
    <glyph glyph-name="ae" unicode="&#xe6;" horiz-adv-x="738" 
d="M389 207l-15 -83c-1 -8 -2 -16 -2 -24c0 -40 24 -61 86 -61c56 0 124 19 182 43l14 -43c-56 -29 -131 -49 -203 -49c-64 0 -104 17 -122 53c-58 -33 -123 -53 -197 -53c-69 0 -105 35 -105 98c0 133 61 168 169 168h145l17 97c2 10 3 18 3 26c0 50 -34 68 -103 68
c-48 0 -102 -6 -146 -16l-7 45c41 11 109 21 159 21c79 0 125 -25 139 -78c37 52 92 78 162 78c86 0 143 -43 143 -116c0 -126 -103 -161 -319 -174zM407 308l-10 -52c210 8 257 52 257 127c0 43 -33 66 -94 66c-87 0 -135 -46 -153 -141zM332 206h-142
c-76 0 -107 -19 -107 -119c0 -29 16 -47 70 -47c48 0 111 18 165 47c-3 19 1 43 5 66z" />
    <glyph glyph-name="ccedilla" unicode="&#xe7;" horiz-adv-x="399" 
d="M153 -207c-28 0 -53 5 -75 14l11 35c18 -6 40 -11 63 -11c43 0 65 15 65 43c0 16 -15 26 -43 26c-13 0 -33 -1 -45 -3l-6 14l26 79c-67 3 -111 37 -111 100c0 9 1 20 3 30l35 197c24 132 75 180 200 180c38 0 91 -9 121 -20l-12 -47c-38 11 -81 17 -115 17
c-89 0 -121 -32 -140 -140l-34 -194c-1 -8 -2 -15 -2 -22c0 -38 24 -51 72 -51s102 11 158 34l9 -47c-44 -19 -91 -32 -143 -36l-20 -62c10 2 22 3 30 3c36 0 62 -19 62 -53c0 -54 -39 -86 -109 -86z" />
    <glyph glyph-name="egrave" unicode="&#xe8;" horiz-adv-x="443" 
d="M111 194l-12 -67c-1 -9 -2 -18 -2 -26c0 -41 16 -62 84 -62c56 0 112 19 172 47l14 -43c-59 -31 -127 -53 -193 -53c-91 0 -133 36 -133 110c0 15 2 31 5 48l29 164c22 124 86 185 211 185c79 0 129 -40 129 -113c0 -78 -52 -120 -185 -157c-94 -26 -119 -33 -119 -33z
M233 276c91 24 128 57 128 109c0 44 -29 64 -80 64c-87 0 -133 -45 -150 -141l-11 -62s19 5 113 30zM281 556c-47 29 -79 51 -110 79l31 38c34 -30 61 -49 106 -80z" />
    <glyph glyph-name="eacute" unicode="&#xe9;" horiz-adv-x="443" 
d="M111 194l-12 -67c-1 -9 -2 -18 -2 -26c0 -41 16 -62 84 -62c56 0 112 19 172 47l14 -43c-59 -31 -127 -53 -193 -53c-91 0 -133 36 -133 110c0 15 2 31 5 48l29 164c22 124 86 185 211 185c79 0 129 -40 129 -113c0 -78 -52 -120 -185 -157c-94 -26 -119 -33 -119 -33z
M233 276c91 24 128 57 128 109c0 44 -29 64 -80 64c-87 0 -133 -45 -150 -141l-11 -62s19 5 113 30zM258 556l-22 39c54 26 85 44 140 81l24 -39c-49 -34 -83 -53 -142 -81z" />
    <glyph glyph-name="ecircumflex" unicode="&#xea;" horiz-adv-x="443" 
d="M111 194l-12 -67c-1 -9 -2 -18 -2 -26c0 -41 16 -62 84 -62c56 0 112 19 172 47l14 -43c-59 -31 -127 -53 -193 -53c-91 0 -133 36 -133 110c0 15 2 31 5 48l29 164c22 124 86 185 211 185c79 0 129 -40 129 -113c0 -78 -52 -120 -185 -157c-94 -26 -119 -33 -119 -33z
M233 276c91 24 128 57 128 109c0 44 -29 64 -80 64c-87 0 -133 -45 -150 -141l-11 -62s19 5 113 30zM385 546c-43 26 -67 43 -94 64c-40 -27 -65 -40 -105 -64l-21 37c48 28 76 46 131 86c35 -34 65 -56 112 -89z" />
    <glyph glyph-name="edieresis" unicode="&#xeb;" horiz-adv-x="443" 
d="M111 194l-12 -67c-1 -9 -2 -18 -2 -26c0 -41 16 -62 84 -62c56 0 112 19 172 47l14 -43c-59 -31 -127 -53 -193 -53c-91 0 -133 36 -133 110c0 15 2 31 5 48l29 164c22 124 86 185 211 185c79 0 129 -40 129 -113c0 -78 -52 -120 -185 -157c-94 -26 -119 -33 -119 -33z
M233 276c91 24 128 57 128 109c0 44 -29 64 -80 64c-87 0 -133 -45 -150 -141l-11 -62s19 5 113 30zM346 568l13 69l60 2l-13 -69zM176 568l13 69l60 2l-12 -69z" />
    <glyph glyph-name="igrave" unicode="&#xec;" horiz-adv-x="226" 
d="M40 0l85 483l57 8l-86 -491h-56zM162 556c-47 29 -79 51 -110 79l31 38c34 -30 61 -49 106 -80z" />
    <glyph glyph-name="iacute" unicode="&#xed;" horiz-adv-x="226" 
d="M40 0l85 483l57 8l-86 -491h-56zM149 556l-22 39c54 26 85 44 140 81l24 -39c-49 -34 -83 -53 -142 -81z" />
    <glyph glyph-name="icircumflex" unicode="&#xee;" horiz-adv-x="226" 
d="M40 0l85 483l57 8l-86 -491h-56zM266 546c-43 26 -67 43 -94 64c-40 -27 -65 -40 -105 -64l-21 37c48 28 76 46 131 86c35 -34 65 -56 112 -89z" />
    <glyph glyph-name="idieresis" unicode="&#xef;" horiz-adv-x="226" 
d="M40 0l85 483l57 8l-86 -491h-56zM225 568l13 69l60 2l-13 -69zM55 568l13 69l60 2l-12 -69z" />
    <glyph glyph-name="eth" unicode="&#xf0;" horiz-adv-x="510" 
d="M248 547l86 59c-29 21 -69 40 -108 53l19 42c45 -14 90 -36 133 -65l73 51l19 -33l-63 -43c44 -41 68 -87 68 -160c0 -20 -3 -43 -7 -65l-39 -221c-18 -100 -65 -175 -220 -175c-112 0 -159 55 -159 134c0 10 1 24 4 40l23 131c22 125 90 167 201 167
c51 0 103 -10 143 -26c1 7 2 19 2 28c0 44 -18 87 -58 117l-96 -65zM218 40c94 0 141 42 155 124l39 221c-38 18 -99 27 -135 27c-91 0 -131 -37 -147 -129l-21 -118c-2 -13 -4 -25 -4 -36c0 -60 24 -89 113 -89z" />
    <glyph glyph-name="ntilde" unicode="&#xf1;" horiz-adv-x="518" 
d="M337 0l70 396c1 6 2 12 2 16c0 24 -13 33 -41 33c-51 0 -146 -45 -208 -84l-64 -361h-56l85 483l49 8l-8 -75c49 34 153 81 212 81c60 0 86 -31 86 -80c0 -8 -1 -20 -3 -31l-68 -386h-56zM371 558c-40 0 -78 35 -107 35c-24 0 -41 -15 -59 -31l-22 24c17 26 47 53 88 53
c38 0 68 -35 102 -35c19 0 30 6 50 24l24 -24c-20 -29 -41 -46 -76 -46z" />
    <glyph glyph-name="ograve" unicode="&#xf2;" horiz-adv-x="496" 
d="M201 -10c-115 0 -160 58 -160 136c0 14 1 29 4 44l26 148c19 107 75 179 219 179c108 0 162 -56 162 -137c0 -12 -2 -24 -4 -37l-28 -159c-19 -108 -79 -174 -219 -174zM364 165l28 158c2 12 3 23 3 34c0 60 -35 90 -114 90c-92 0 -139 -44 -154 -129l-27 -153
c-2 -13 -3 -26 -3 -37c0 -57 31 -88 113 -88c90 0 139 42 154 125zM310 556c-47 29 -79 51 -110 79l31 38c34 -30 61 -49 106 -80z" />
    <glyph glyph-name="oacute" unicode="&#xf3;" horiz-adv-x="496" 
d="M201 -10c-115 0 -160 58 -160 136c0 14 1 29 4 44l26 148c19 107 75 179 219 179c108 0 162 -56 162 -137c0 -12 -2 -24 -4 -37l-28 -159c-19 -108 -79 -174 -219 -174zM364 165l28 158c2 12 3 23 3 34c0 60 -35 90 -114 90c-92 0 -139 -44 -154 -129l-27 -153
c-2 -13 -3 -26 -3 -37c0 -57 31 -88 113 -88c90 0 139 42 154 125zM275 556l-22 39c54 26 85 44 140 81l24 -39c-49 -34 -83 -53 -142 -81z" />
    <glyph glyph-name="ocircumflex" unicode="&#xf4;" horiz-adv-x="496" 
d="M201 -10c-115 0 -160 58 -160 136c0 14 1 29 4 44l26 148c19 107 75 179 219 179c108 0 162 -56 162 -137c0 -12 -2 -24 -4 -37l-28 -159c-19 -108 -79 -174 -219 -174zM364 165l28 158c2 12 3 23 3 34c0 60 -35 90 -114 90c-92 0 -139 -44 -154 -129l-27 -153
c-2 -13 -3 -26 -3 -37c0 -57 31 -88 113 -88c90 0 139 42 154 125zM397 546c-43 26 -67 43 -94 64c-40 -27 -65 -40 -105 -64l-21 37c48 28 76 46 131 86c35 -34 65 -56 112 -89z" />
    <glyph glyph-name="otilde" unicode="&#xf5;" horiz-adv-x="496" 
d="M201 -10c-115 0 -160 58 -160 136c0 14 1 29 4 44l26 148c19 107 75 179 219 179c108 0 162 -56 162 -137c0 -12 -2 -24 -4 -37l-28 -159c-19 -108 -79 -174 -219 -174zM364 165l28 158c2 12 3 23 3 34c0 60 -35 90 -114 90c-92 0 -139 -44 -154 -129l-27 -153
c-2 -13 -3 -26 -3 -37c0 -57 31 -88 113 -88c90 0 139 42 154 125zM362 558c-40 0 -78 35 -107 35c-24 0 -41 -15 -59 -31l-22 24c17 26 47 53 88 53c38 0 68 -35 102 -35c19 0 30 6 50 24l24 -24c-20 -29 -41 -46 -76 -46z" />
    <glyph glyph-name="odieresis" unicode="&#xf6;" horiz-adv-x="496" 
d="M201 -10c-115 0 -160 58 -160 136c0 14 1 29 4 44l26 148c19 107 75 179 219 179c108 0 162 -56 162 -137c0 -12 -2 -24 -4 -37l-28 -159c-19 -108 -79 -174 -219 -174zM364 165l28 158c2 12 3 23 3 34c0 60 -35 90 -114 90c-92 0 -139 -44 -154 -129l-27 -153
c-2 -13 -3 -26 -3 -37c0 -57 31 -88 113 -88c90 0 139 42 154 125zM360 568l13 69l60 2l-13 -69zM190 568l13 69l60 2l-12 -69z" />
    <glyph glyph-name="divide" unicode="&#xf7;" horiz-adv-x="534" 
d="M237 368v74h60v-74h-60zM65 218v50h404v-50h-404zM237 44v74h60v-74h-60z" />
    <glyph glyph-name="oslash" unicode="&#xf8;" horiz-adv-x="496" 
d="M481 515l-56 -71c18 -23 27 -51 27 -84c0 -12 -2 -24 -4 -37l-28 -159c-19 -108 -79 -174 -219 -174c-48 0 -83 10 -108 27l-52 -67l-29 22l54 69c-17 23 -25 52 -25 85c0 14 1 29 4 44l26 148c19 107 75 179 219 179c46 0 82 -10 109 -28l53 68zM97 128
c0 -15 2 -28 6 -39l262 337c-18 14 -46 21 -84 21c-92 0 -139 -44 -154 -129l-27 -153c-2 -13 -3 -26 -3 -37zM364 165l28 158c2 12 3 23 3 34c0 15 -2 28 -7 39l-262 -336c18 -13 45 -20 84 -20c90 0 139 42 154 125z" />
    <glyph glyph-name="ugrave" unicode="&#xf9;" horiz-adv-x="518" 
d="M178 491l-71 -400c-1 -6 -2 -13 -2 -18c0 -20 13 -31 41 -31c51 0 146 45 208 84l63 357l58 8l-87 -491h-48l8 71c-56 -39 -150 -81 -212 -81c-60 0 -86 31 -86 80c0 10 1 20 3 31l67 382zM326 556c-47 29 -79 51 -110 79l31 38c34 -30 61 -49 106 -80z" />
    <glyph glyph-name="uacute" unicode="&#xfa;" horiz-adv-x="518" 
d="M178 491l-71 -400c-1 -6 -2 -13 -2 -18c0 -20 13 -31 41 -31c51 0 146 45 208 84l63 357l58 8l-87 -491h-48l8 71c-56 -39 -150 -81 -212 -81c-60 0 -86 31 -86 80c0 10 1 20 3 31l67 382zM277 556l-22 39c54 26 85 44 140 81l24 -39c-49 -34 -83 -53 -142 -81z" />
    <glyph glyph-name="ucircumflex" unicode="&#xfb;" horiz-adv-x="518" 
d="M178 491l-71 -400c-1 -6 -2 -13 -2 -18c0 -20 13 -31 41 -31c51 0 146 45 208 84l63 357l58 8l-87 -491h-48l8 71c-56 -39 -150 -81 -212 -81c-60 0 -86 31 -86 80c0 10 1 20 3 31l67 382zM417 546c-43 26 -67 43 -94 64c-40 -27 -65 -40 -105 -64l-21 37
c48 28 76 46 131 86c35 -34 65 -56 112 -89z" />
    <glyph glyph-name="udieresis" unicode="&#xfc;" horiz-adv-x="518" 
d="M178 491l-71 -400c-1 -6 -2 -13 -2 -18c0 -20 13 -31 41 -31c51 0 146 45 208 84l63 357l58 8l-87 -491h-48l8 71c-56 -39 -150 -81 -212 -81c-60 0 -86 31 -86 80c0 10 1 20 3 31l67 382zM366 568l13 69l60 2l-13 -69zM196 568l13 69l60 2l-12 -69z" />
    <glyph glyph-name="yacute" unicode="&#xfd;" horiz-adv-x="418" 
d="M222 0c-53 -93 -98 -164 -221 -205l-15 43c80 29 128 70 179 162h-28l-80 483l54 8l73 -454l155 307c16 31 22 56 22 78s-6 41 -12 61l57 8c5 -18 10 -41 10 -67s-5 -54 -18 -82zM213 556l-22 39c54 26 85 44 140 81l24 -39c-49 -34 -83 -53 -142 -81z" />
    <glyph glyph-name="thorn" unicode="&#xfe;" horiz-adv-x="507" 
d="M219 694l-50 -276c56 47 128 79 197 79c62 0 97 -22 97 -82c0 -11 -2 -23 -4 -36l-43 -243c-18 -102 -63 -146 -174 -146c-41 0 -94 7 -144 19l-37 -206l-57 -8l157 891zM158 351l-51 -291c50 -12 99 -20 146 -20c67 0 95 28 108 100l42 239c2 12 3 21 3 30
c0 31 -15 38 -45 38c-62 0 -140 -40 -203 -96z" />
    <glyph glyph-name="ydieresis" unicode="&#xff;" horiz-adv-x="418" 
d="M222 0c-53 -93 -98 -164 -221 -205l-15 43c80 29 128 70 179 162h-28l-80 483l54 8l73 -454l155 307c16 31 22 56 22 78s-6 41 -12 61l57 8c5 -18 10 -41 10 -67s-5 -54 -18 -82zM306 568l13 69l60 2l-13 -69zM136 568l13 69l60 2l-12 -69z" />
    <glyph glyph-name="Amacron" unicode="&#x100;" horiz-adv-x="616" 
d="M481 0l-29 176h-301l-93 -176h-59l342 666h86l112 -666h-58zM381 636l-204 -410h265zM275 740l8 44h234l-8 -44h-234z" />
    <glyph glyph-name="amacron" unicode="&#x101;" horiz-adv-x="499" 
d="M323 0l10 71c-56 -48 -126 -81 -196 -81c-62 0 -96 22 -96 82c0 11 1 23 3 36l37 209c23 128 76 180 207 180c45 0 111 -11 168 -32l-82 -465h-51zM342 136l52 295c-27 8 -74 16 -114 16c-91 0 -126 -33 -145 -140l-35 -199c-2 -12 -3 -21 -3 -29c0 -31 15 -39 45 -39
c61 0 137 40 200 96zM198 570l8 44h234l-8 -44h-234z" />
    <glyph glyph-name="Abreve" unicode="&#x102;" horiz-adv-x="616" 
d="M481 0l-29 176h-301l-93 -176h-59l342 666h86l112 -666h-58zM381 636l-204 -410h265zM395 719c-59 0 -92 30 -112 64l35 27c16 -27 37 -47 78 -47c40 0 65 16 93 47l28 -28c-26 -37 -64 -63 -122 -63z" />
    <glyph glyph-name="abreve" unicode="&#x103;" horiz-adv-x="499" 
d="M323 0l10 71c-56 -48 -126 -81 -196 -81c-62 0 -96 22 -96 82c0 11 1 23 3 36l37 209c23 128 76 180 207 180c45 0 111 -11 168 -32l-82 -465h-51zM342 136l52 295c-27 8 -74 16 -114 16c-91 0 -126 -33 -145 -140l-35 -199c-2 -12 -3 -21 -3 -29c0 -31 15 -39 45 -39
c61 0 137 40 200 96zM315 545c-55 0 -95 32 -115 70l35 27c17 -32 40 -53 81 -53c43 0 70 21 98 52l28 -28c-28 -37 -63 -68 -127 -68z" />
    <glyph glyph-name="Aogonek" unicode="&#x104;" horiz-adv-x="616" 
d="M505 -192c-20 -10 -41 -15 -67 -15c-39 0 -72 22 -72 64c0 63 60 113 115 143l-29 176h-301l-93 -176h-59l342 666h86l112 -666c-66 -40 -124 -82 -124 -135c0 -18 10 -30 36 -30c16 0 31 2 48 8zM381 636l-204 -410h265z" />
    <glyph glyph-name="aogonek" unicode="&#x105;" horiz-adv-x="499" 
d="M340 -192c-20 -10 -41 -15 -67 -15c-39 0 -72 22 -72 64c0 63 63 111 122 143l10 71c-56 -48 -126 -81 -196 -81c-62 0 -96 22 -96 82c0 11 1 23 3 36l37 209c23 128 76 180 207 180c45 0 111 -11 168 -32l-82 -465c-71 -42 -124 -82 -124 -135c0 -18 10 -30 36 -30
c16 0 31 2 48 8zM342 136l52 295c-27 8 -74 16 -114 16c-91 0 -126 -33 -145 -140l-35 -199c-2 -12 -3 -21 -3 -29c0 -31 15 -39 45 -39c61 0 137 40 200 96z" />
    <glyph glyph-name="Cacute" unicode="&#x106;" horiz-adv-x="507" 
d="M248 -10c-137 0 -191 53 -191 143c0 16 2 32 5 50l53 300c24 135 93 193 254 193c48 0 109 -7 155 -19l-10 -49c-44 10 -106 17 -149 17c-121 0 -175 -39 -194 -148l-52 -293c-3 -16 -4 -30 -4 -43c0 -69 41 -100 147 -100c43 0 104 6 153 14l2 -49
c-51 -10 -121 -16 -169 -16zM347 720l-25 38c41 26 69 45 104 73l29 -39c-33 -25 -60 -45 -108 -72z" />
    <glyph glyph-name="cacute" unicode="&#x107;" horiz-adv-x="399" 
d="M397 477l-12 -47c-38 11 -81 17 -115 17c-89 0 -121 -32 -140 -140l-34 -194c-1 -8 -2 -15 -2 -22c0 -38 24 -51 72 -51s102 11 158 34l9 -47c-52 -23 -110 -37 -174 -37c-72 0 -121 34 -121 100c0 9 1 20 3 30l35 197c24 132 75 180 200 180c38 0 91 -9 121 -20z
M234 556l-22 39c54 26 85 44 140 81l24 -39c-49 -34 -83 -53 -142 -81z" />
    <glyph glyph-name="Ccircumflex" unicode="&#x108;" horiz-adv-x="507" 
d="M248 -10c-137 0 -191 53 -191 143c0 16 2 32 5 50l53 300c24 135 93 193 254 193c48 0 109 -7 155 -19l-10 -49c-44 10 -106 17 -149 17c-121 0 -175 -39 -194 -148l-52 -293c-3 -16 -4 -30 -4 -43c0 -69 41 -100 147 -100c43 0 104 6 153 14l2 -49
c-51 -10 -121 -16 -169 -16zM466 722c-45 24 -60 33 -93 54c-37 -21 -67 -37 -98 -54l-19 38c40 22 75 43 122 73c36 -26 61 -44 109 -76z" />
    <glyph glyph-name="ccircumflex" unicode="&#x109;" horiz-adv-x="399" 
d="M397 477l-12 -47c-38 11 -81 17 -115 17c-89 0 -121 -32 -140 -140l-34 -194c-1 -8 -2 -15 -2 -22c0 -38 24 -51 72 -51s102 11 158 34l9 -47c-52 -23 -110 -37 -174 -37c-72 0 -121 34 -121 100c0 9 1 20 3 30l35 197c24 132 75 180 200 180c38 0 91 -9 121 -20z
M381 546c-43 26 -67 43 -94 64c-40 -27 -65 -40 -105 -64l-21 37c48 28 76 46 131 86c35 -34 65 -56 112 -89z" />
    <glyph glyph-name="Cdotaccent" unicode="&#x10a;" horiz-adv-x="507" 
d="M248 -10c-137 0 -191 53 -191 143c0 16 2 32 5 50l53 300c24 135 93 193 254 193c48 0 109 -7 155 -19l-10 -49c-44 10 -106 17 -149 17c-121 0 -175 -39 -194 -148l-52 -293c-3 -16 -4 -30 -4 -43c0 -69 41 -100 147 -100c43 0 104 6 153 14l2 -49
c-51 -10 -121 -16 -169 -16zM336 726l19 113l58 8l-20 -113z" />
    <glyph glyph-name="cdotaccent" unicode="&#x10b;" horiz-adv-x="399" 
d="M397 477l-12 -47c-38 11 -81 17 -115 17c-89 0 -121 -32 -140 -140l-34 -194c-1 -8 -2 -15 -2 -22c0 -38 24 -51 72 -51s102 11 158 34l9 -47c-52 -23 -110 -37 -174 -37c-72 0 -121 34 -121 100c0 9 1 20 3 30l35 197c24 132 75 180 200 180c38 0 91 -9 121 -20z
M254 573l19 113l58 8l-20 -113z" />
    <glyph glyph-name="Ccaron" unicode="&#x10c;" horiz-adv-x="507" 
d="M248 -10c-137 0 -191 53 -191 143c0 16 2 32 5 50l53 300c24 135 93 193 254 193c48 0 109 -7 155 -19l-10 -49c-44 10 -106 17 -149 17c-121 0 -175 -39 -194 -148l-52 -293c-3 -16 -4 -30 -4 -43c0 -69 41 -100 147 -100c43 0 104 6 153 14l2 -49
c-51 -10 -121 -16 -169 -16zM278 831c45 -24 60 -33 93 -54c37 21 67 37 98 54l19 -38c-40 -22 -75 -43 -122 -73c-36 26 -61 44 -109 76z" />
    <glyph glyph-name="ccaron" unicode="&#x10d;" horiz-adv-x="399" 
d="M397 477l-12 -47c-38 11 -81 17 -115 17c-89 0 -121 -32 -140 -140l-34 -194c-1 -8 -2 -15 -2 -22c0 -38 24 -51 72 -51s102 11 158 34l9 -47c-52 -23 -110 -37 -174 -37c-72 0 -121 34 -121 100c0 9 1 20 3 30l35 197c24 132 75 180 200 180c38 0 91 -9 121 -20z
M196 664c43 -26 67 -43 94 -64c40 27 65 40 105 64l21 -37c-48 -28 -76 -46 -131 -86c-35 34 -65 56 -112 89z" />
    <glyph glyph-name="Dcaron" unicode="&#x10e;" horiz-adv-x="591" 
d="M270 0h-225l117 666h217c129 0 179 -60 179 -149c0 -16 -2 -34 -5 -52l-49 -279c-23 -129 -73 -186 -234 -186zM497 466c3 18 5 35 5 50c0 66 -35 99 -128 99h-163l-100 -564h163c124 0 158 47 175 143zM276 831c45 -24 60 -33 93 -54c37 21 67 37 98 54l19 -38
c-40 -22 -75 -43 -122 -73c-36 26 -61 44 -109 76z" />
    <glyph glyph-name="dcaron" unicode="&#x10f;" horiz-adv-x="606" 
d="M326 0l10 71c-56 -48 -129 -81 -199 -81c-62 0 -96 22 -96 82c0 11 1 23 3 36l37 209c23 132 83 180 207 180c32 0 88 -7 118 -16l36 205l57 8l-122 -694h-51zM345 136l52 295c-39 10 -78 16 -117 16c-89 0 -126 -32 -145 -140l-35 -199c-2 -12 -3 -21 -3 -29
c0 -31 15 -39 45 -39c62 0 140 40 203 96zM578 492l-22 14l53 94h-23l15 86h60l-15 -86z" />
    <glyph glyph-name="Dcroat" unicode="&#x110;" horiz-adv-x="606" 
d="M38 315l9 48h77l53 303h217c129 0 179 -60 179 -149c0 -16 -2 -34 -5 -52l-49 -279c-23 -129 -73 -186 -234 -186h-225l55 315h-77zM512 466c3 18 5 35 5 50c0 66 -35 99 -128 99h-163l-45 -252h141l-9 -48h-140l-47 -264h163c124 0 158 47 175 143z" />
    <glyph glyph-name="dcroat" unicode="&#x111;" horiz-adv-x="507" 
d="M299 566l8 43h121l14 77l57 8l-15 -85h77l-8 -43h-77l-99 -566h-51l10 71c-56 -48 -129 -81 -199 -81c-62 0 -96 22 -96 82c0 11 1 23 3 36l37 209c23 132 83 180 207 180c32 0 88 -7 118 -16l15 85h-122zM345 136l52 295c-39 10 -78 16 -117 16
c-89 0 -126 -32 -145 -140l-35 -199c-2 -12 -3 -21 -3 -29c0 -31 15 -39 45 -39c62 0 140 40 203 96z" />
    <glyph glyph-name="Emacron" unicode="&#x112;" horiz-adv-x="524" 
d="M45 0l117 666h374l-9 -51h-316l-44 -250h294l-9 -51h-294l-47 -263h317l-8 -51h-375zM243 740l8 44h234l-8 -44h-234z" />
    <glyph glyph-name="emacron" unicode="&#x113;" horiz-adv-x="443" 
d="M111 194l-12 -67c-1 -9 -2 -18 -2 -26c0 -41 16 -62 84 -62c56 0 112 19 172 47l14 -43c-59 -31 -127 -53 -193 -53c-91 0 -133 36 -133 110c0 15 2 31 5 48l29 164c22 124 86 185 211 185c79 0 129 -40 129 -113c0 -78 -52 -120 -185 -157c-94 -26 -119 -33 -119 -33z
M233 276c91 24 128 57 128 109c0 44 -29 64 -80 64c-87 0 -133 -45 -150 -141l-11 -62s19 5 113 30zM173 570l8 44h234l-8 -44h-234z" />
    <glyph glyph-name="Ebreve" unicode="&#x114;" horiz-adv-x="524" 
d="M45 0l117 666h374l-9 -51h-316l-44 -250h294l-9 -51h-294l-47 -263h317l-8 -51h-375zM362 719c-59 0 -92 30 -112 64l35 27c16 -27 37 -47 78 -47c40 0 65 16 93 47l28 -28c-26 -37 -64 -63 -122 -63z" />
    <glyph glyph-name="ebreve" unicode="&#x115;" horiz-adv-x="443" 
d="M111 194l-12 -67c-1 -9 -2 -18 -2 -26c0 -41 16 -62 84 -62c56 0 112 19 172 47l14 -43c-59 -31 -127 -53 -193 -53c-91 0 -133 36 -133 110c0 15 2 31 5 48l29 164c22 124 86 185 211 185c79 0 129 -40 129 -113c0 -78 -52 -120 -185 -157c-94 -26 -119 -33 -119 -33z
M233 276c91 24 128 57 128 109c0 44 -29 64 -80 64c-87 0 -133 -45 -150 -141l-11 -62s19 5 113 30zM293 545c-55 0 -95 32 -115 70l35 27c17 -32 40 -53 81 -53c43 0 70 21 98 52l28 -28c-28 -37 -63 -68 -127 -68z" />
    <glyph glyph-name="Edotaccent" unicode="&#x116;" horiz-adv-x="524" 
d="M45 0l117 666h374l-9 -51h-316l-44 -250h294l-9 -51h-294l-47 -263h317l-8 -51h-375zM333 726l19 113l58 8l-20 -113z" />
    <glyph glyph-name="edotaccent" unicode="&#x117;" horiz-adv-x="443" 
d="M111 194l-12 -67c-1 -9 -2 -18 -2 -26c0 -41 16 -62 84 -62c56 0 112 19 172 47l14 -43c-59 -31 -127 -53 -193 -53c-91 0 -133 36 -133 110c0 15 2 31 5 48l29 164c22 124 86 185 211 185c79 0 129 -40 129 -113c0 -78 -52 -120 -185 -157c-94 -26 -119 -33 -119 -33z
M233 276c91 24 128 57 128 109c0 44 -29 64 -80 64c-87 0 -133 -45 -150 -141l-11 -62s19 5 113 30zM263 573l19 113l58 8l-20 -113z" />
    <glyph glyph-name="Eogonek" unicode="&#x118;" horiz-adv-x="524" 
d="M45 0l117 666h374l-9 -51h-316l-44 -250h294l-9 -51h-294l-47 -263h317l-8 -51h-58c-66 -40 -124 -82 -124 -135c0 -18 10 -30 36 -30c16 0 31 2 48 8l6 -35c-20 -10 -41 -15 -67 -15c-39 0 -72 22 -72 64c0 65 63 113 118 143h-262z" />
    <glyph glyph-name="eogonek" unicode="&#x119;" horiz-adv-x="443" 
d="M274 -192c-20 -10 -41 -15 -67 -15c-39 0 -72 22 -72 64c0 58 65 112 127 144c-29 -7 -59 -11 -88 -11c-91 0 -133 36 -133 110c0 15 2 31 5 48l29 164c22 124 86 185 211 185c79 0 129 -40 129 -113c0 -78 -52 -120 -185 -157c-94 -26 -119 -33 -119 -33l-12 -67
c-1 -9 -2 -18 -2 -26c0 -41 16 -62 84 -62c56 0 112 19 172 47l14 -43c-90 -53 -183 -124 -183 -178c0 -18 10 -30 36 -30c16 0 31 2 48 8zM233 276c91 24 128 57 128 109c0 44 -29 64 -80 64c-87 0 -133 -45 -150 -141l-11 -62s19 5 113 30z" />
    <glyph glyph-name="Ecaron" unicode="&#x11a;" horiz-adv-x="524" 
d="M45 0l117 666h374l-9 -51h-316l-44 -250h294l-9 -51h-294l-47 -263h317l-8 -51h-375zM273 831c45 -24 60 -33 93 -54c37 21 67 37 98 54l19 -38c-40 -22 -75 -43 -122 -73c-36 26 -61 44 -109 76z" />
    <glyph glyph-name="ecaron" unicode="&#x11b;" horiz-adv-x="443" 
d="M111 194l-12 -67c-1 -9 -2 -18 -2 -26c0 -41 16 -62 84 -62c56 0 112 19 172 47l14 -43c-59 -31 -127 -53 -193 -53c-91 0 -133 36 -133 110c0 15 2 31 5 48l29 164c22 124 86 185 211 185c79 0 129 -40 129 -113c0 -78 -52 -120 -185 -157c-94 -26 -119 -33 -119 -33z
M233 276c91 24 128 57 128 109c0 44 -29 64 -80 64c-87 0 -133 -45 -150 -141l-11 -62s19 5 113 30zM195 664c43 -26 67 -43 94 -64c40 27 65 40 105 64l21 -37c-48 -28 -76 -46 -131 -86c-35 34 -65 56 -112 89z" />
    <glyph glyph-name="Gcircumflex" unicode="&#x11c;" horiz-adv-x="580" 
d="M241 -10c-134 0 -184 51 -184 140c0 17 2 36 6 57l52 295c23 132 78 194 255 194c57 0 130 -11 178 -27l-11 -49c-43 11 -118 25 -175 25c-130 0 -171 -39 -190 -144l-52 -294c-3 -19 -5 -34 -5 -52c0 -62 32 -94 139 -94c41 0 99 6 149 19l42 237h57l-48 -276
c-69 -23 -148 -31 -213 -31zM474 722c-45 24 -60 33 -93 54c-37 -21 -67 -37 -98 -54l-19 38c40 22 75 43 122 73c36 -26 61 -44 109 -76z" />
    <glyph glyph-name="gcircumflex" unicode="&#x11d;" horiz-adv-x="502" 
d="M460 469l-98 -554c-17 -94 -54 -122 -158 -122c-56 0 -140 20 -193 43l14 45c63 -26 135 -38 183 -38c71 0 89 19 100 83l29 163c-55 -47 -127 -79 -196 -79c-62 0 -96 22 -96 82c0 11 1 23 3 36l33 189c22 125 76 180 207 180c45 0 112 -8 172 -28zM349 156l49 279
c-31 7 -78 12 -118 12c-91 0 -126 -33 -145 -140l-31 -179c-2 -12 -3 -21 -3 -29c0 -31 15 -39 45 -39c62 0 140 40 203 96zM410 546c-43 26 -67 43 -94 64c-40 -27 -65 -40 -105 -64l-21 37c48 28 76 46 131 86c35 -34 65 -56 112 -89z" />
    <glyph glyph-name="Gbreve" unicode="&#x11e;" horiz-adv-x="580" 
d="M241 -10c-134 0 -184 51 -184 140c0 17 2 36 6 57l52 295c23 132 78 194 255 194c57 0 130 -11 178 -27l-11 -49c-43 11 -118 25 -175 25c-130 0 -171 -39 -190 -144l-52 -294c-3 -19 -5 -34 -5 -52c0 -62 32 -94 139 -94c41 0 99 6 149 19l42 237h57l-48 -276
c-69 -23 -148 -31 -213 -31zM381 719c-59 0 -92 30 -112 64l35 27c16 -27 37 -47 78 -47c40 0 65 16 93 47l28 -28c-26 -37 -64 -63 -122 -63z" />
    <glyph glyph-name="gbreve" unicode="&#x11f;" horiz-adv-x="502" 
d="M460 469l-98 -554c-17 -94 -54 -122 -158 -122c-56 0 -140 20 -193 43l14 45c63 -26 135 -38 183 -38c71 0 89 19 100 83l29 163c-55 -47 -127 -79 -196 -79c-62 0 -96 22 -96 82c0 11 1 23 3 36l33 189c22 125 76 180 207 180c45 0 112 -8 172 -28zM349 156l49 279
c-31 7 -78 12 -118 12c-91 0 -126 -33 -145 -140l-31 -179c-2 -12 -3 -21 -3 -29c0 -31 15 -39 45 -39c62 0 140 40 203 96zM310 545c-55 0 -95 32 -115 70l35 27c17 -32 40 -53 81 -53c43 0 70 21 98 52l28 -28c-28 -37 -63 -68 -127 -68z" />
    <glyph glyph-name="Gdotaccent" unicode="&#x120;" horiz-adv-x="580" 
d="M241 -10c-134 0 -184 51 -184 140c0 17 2 36 6 57l52 295c23 132 78 194 255 194c57 0 130 -11 178 -27l-11 -49c-43 11 -118 25 -175 25c-130 0 -171 -39 -190 -144l-52 -294c-3 -19 -5 -34 -5 -52c0 -62 32 -94 139 -94c41 0 99 6 149 19l42 237h57l-48 -276
c-69 -23 -148 -31 -213 -31zM350 726l19 113l58 8l-20 -113z" />
    <glyph glyph-name="gdotaccent" unicode="&#x121;" horiz-adv-x="502" 
d="M460 469l-98 -554c-17 -94 -54 -122 -158 -122c-56 0 -140 20 -193 43l14 45c63 -26 135 -38 183 -38c71 0 89 19 100 83l29 163c-55 -47 -127 -79 -196 -79c-62 0 -96 22 -96 82c0 11 1 23 3 36l33 189c22 125 76 180 207 180c45 0 112 -8 172 -28zM349 156l49 279
c-31 7 -78 12 -118 12c-91 0 -126 -33 -145 -140l-31 -179c-2 -12 -3 -21 -3 -29c0 -31 15 -39 45 -39c62 0 140 40 203 96zM295 573l19 113l58 8l-20 -113z" />
    <glyph glyph-name="Gcommaaccent" unicode="&#x122;" horiz-adv-x="580" 
d="M241 -10c-134 0 -184 51 -184 140c0 17 2 36 6 57l52 295c23 132 78 194 255 194c57 0 130 -11 178 -27l-11 -49c-43 11 -118 25 -175 25c-130 0 -171 -39 -190 -144l-52 -294c-3 -19 -5 -34 -5 -52c0 -62 32 -94 139 -94c41 0 99 6 149 19l42 237h57l-48 -276
c-69 -23 -148 -31 -213 -31zM200 -251l-22 14l53 94h-23l15 86h60l-15 -86z" />
    <glyph glyph-name="gcommaaccent" unicode="&#x123;" horiz-adv-x="502" 
d="M357 737l22 -14l-53 -94h23l-15 -86h-60l15 86zM460 469l-98 -554c-17 -94 -54 -122 -158 -122c-56 0 -140 20 -193 43l14 45c63 -26 135 -38 183 -38c71 0 89 19 100 83l29 163c-55 -47 -127 -79 -196 -79c-62 0 -96 22 -96 82c0 11 1 23 3 36l33 189
c22 125 76 180 207 180c45 0 112 -8 172 -28zM349 156l49 279c-31 7 -78 12 -118 12c-91 0 -126 -33 -145 -140l-31 -179c-2 -12 -3 -21 -3 -29c0 -31 15 -39 45 -39c62 0 140 40 203 96z" />
    <glyph glyph-name="Hcircumflex" unicode="&#x124;" horiz-adv-x="618" 
d="M426 0l55 317h-323l-56 -317h-57l117 666h57l-52 -298h323l53 298h57l-117 -666h-57zM489 722c-45 24 -60 33 -93 54c-37 -21 -67 -37 -98 -54l-19 38c40 22 75 43 122 73c36 -26 61 -44 109 -76z" />
    <glyph glyph-name="hcircumflex" unicode="&#x125;" horiz-adv-x="518" 
d="M337 0l70 396c1 6 2 12 2 16c0 24 -13 33 -41 33c-51 0 -146 -45 -208 -84l-64 -361h-56l121 686l57 8l-48 -276c51 34 150 79 208 79c60 0 86 -31 86 -80c0 -8 -1 -20 -3 -31l-68 -386h-56zM296 752c-45 24 -60 33 -93 54c-37 -21 -67 -37 -98 -54l-19 38
c40 22 75 43 122 73c36 -26 61 -44 109 -76z" />
    <glyph glyph-name="Hbar" unicode="&#x126;" horiz-adv-x="628" 
d="M60 521l8 43h81l18 102h57l-18 -102h323l19 102h57l-18 -102h83l-8 -43h-83l-91 -521h-57l55 317h-323l-56 -317h-57l91 521h-81zM172 368h323l27 153h-324z" />
    <glyph glyph-name="hbar" unicode="&#x127;" horiz-adv-x="518" 
d="M75 560l8 43h63l15 83l57 8l-16 -91h130l-8 -43h-130l-24 -142c51 34 150 79 208 79c60 0 86 -31 86 -80c0 -8 -1 -20 -3 -31l-68 -386h-56l70 396c1 6 2 12 2 16c0 24 -13 33 -41 33c-51 0 -146 -45 -208 -84l-64 -361h-56l99 560h-64z" />
    <glyph glyph-name="Itilde" unicode="&#x128;" horiz-adv-x="247" 
d="M50 0l117 666h57l-117 -666h-57zM268 728c-40 0 -78 35 -107 35c-24 0 -41 -15 -59 -31l-22 24c17 26 47 53 88 53c38 0 68 -35 102 -35c19 0 30 6 50 24l24 -24c-20 -29 -41 -46 -76 -46z" />
    <glyph glyph-name="itilde" unicode="&#x129;" horiz-adv-x="226" 
d="M40 0l85 483l57 8l-86 -491h-56zM225 558c-40 0 -78 35 -107 35c-24 0 -41 -15 -59 -31l-22 24c17 26 47 53 88 53c38 0 68 -35 102 -35c19 0 30 6 50 24l24 -24c-20 -29 -41 -46 -76 -46z" />
    <glyph glyph-name="Imacron" unicode="&#x12a;" horiz-adv-x="247" 
d="M50 0l117 666h57l-117 -666h-57zM91 740l8 44h234l-8 -44h-234z" />
    <glyph glyph-name="imacron" unicode="&#x12b;" horiz-adv-x="226" 
d="M40 0l85 483l57 8l-86 -491h-56zM47 570l8 44h234l-8 -44h-234z" />
    <glyph glyph-name="Ibreve" unicode="&#x12c;" horiz-adv-x="247" 
d="M50 0l117 666h57l-117 -666h-57zM208 719c-59 0 -92 30 -112 64l35 27c16 -27 37 -47 78 -47c40 0 65 16 93 47l28 -28c-26 -37 -64 -63 -122 -63z" />
    <glyph glyph-name="ibreve" unicode="&#x12d;" horiz-adv-x="226" 
d="M40 0l85 483l57 8l-86 -491h-56zM164 545c-55 0 -95 32 -115 70l35 27c17 -32 40 -53 81 -53c43 0 70 21 98 52l28 -28c-28 -37 -63 -68 -127 -68z" />
    <glyph glyph-name="Iogonek" unicode="&#x12e;" horiz-adv-x="247" 
d="M50 0l117 666h57l-117 -666c-50 -42 -93 -87 -93 -136c0 -18 10 -31 34 -31c19 0 33 4 49 10l6 -35c-20 -10 -39 -15 -65 -15c-47 0 -71 28 -71 65c0 49 38 101 83 142z" />
    <glyph glyph-name="iogonek" unicode="&#x12f;" horiz-adv-x="226" 
d="M40 0l85 483l57 8l-86 -491c-50 -42 -92 -87 -92 -136c0 -18 10 -31 34 -31c19 0 33 4 49 10l6 -35c-20 -10 -39 -15 -65 -15c-47 0 -71 28 -71 65c0 49 38 101 83 142zM141 573l19 113l58 8l-20 -113z" />
    <glyph glyph-name="Idotaccent" unicode="&#x130;" horiz-adv-x="247" 
d="M50 0l117 666h57l-117 -666h-57zM176 726l19 113l58 8l-20 -113z" />
    <glyph glyph-name="dotlessi" unicode="&#x131;" horiz-adv-x="226" 
d="M40 0l85 483l57 8l-86 -491h-56z" />
    <glyph glyph-name="IJ" unicode="&#x132;" horiz-adv-x="484" 
d="M50 0l117 666h57l-117 -666h-57zM467 666l-120 -679c-13 -72 -32 -80 -150 -180l-31 40c114 96 117 101 126 152l118 667h57z" />
    <glyph glyph-name="ij" unicode="&#x133;" horiz-adv-x="447" 
d="M141 573l19 113l58 8l-20 -113zM40 0l85 483l57 8l-86 -491h-56zM409 491l-94 -529c-10 -59 -16 -72 -141 -169l-30 41c96 78 108 87 117 139l90 510zM367 573l19 113l58 8l-20 -113z" />
    <glyph glyph-name="Jcircumflex" unicode="&#x134;" horiz-adv-x="237" 
d="M220 666l-120 -679c-13 -72 -32 -80 -150 -180l-31 40c114 96 117 101 126 152l118 667h57zM296 722c-45 24 -60 33 -93 54c-37 -21 -67 -37 -98 -54l-19 38c40 22 75 43 122 73c36 -26 61 -44 109 -76z" />
    <glyph glyph-name="jcircumflex" unicode="&#x135;" horiz-adv-x="221" 
d="M183 491l-94 -529c-10 -59 -16 -72 -141 -169l-30 41c96 78 108 87 117 139l90 510zM266 546c-43 26 -67 43 -94 64c-40 -27 -65 -40 -105 -64l-21 37c48 28 76 46 131 86c35 -34 65 -56 112 -89z" />
    <glyph glyph-name="Kcommaaccent" unicode="&#x136;" horiz-adv-x="551" 
d="M409 0l-223 339l317 327h72l-322 -330l220 -336h-64zM45 0l117 666h57l-117 -666h-57zM191 -251l-22 14l53 94h-23l15 86h60l-15 -86z" />
    <glyph glyph-name="kcommaaccent" unicode="&#x137;" horiz-adv-x="452" 
d="M317 0l-146 247l223 247l54 -20l-215 -229l146 -245h-62zM40 0l121 686l57 8l-122 -694h-56zM138 -251l-22 14l53 94h-23l15 86h60l-15 -86z" />
    <glyph glyph-name="kgreenlandic" unicode="&#x138;" horiz-adv-x="454" 
d="M317 0l-146 247l217 240h70l-225 -242l146 -245h-62zM40 0l86 487h56l-86 -487h-56z" />
    <glyph glyph-name="Lacute" unicode="&#x139;" horiz-adv-x="491" 
d="M45 0l117 666h57l-109 -615h300l-8 -51h-357zM200 720l-25 38c41 26 69 45 104 73l29 -39c-33 -25 -60 -45 -108 -72z" />
    <glyph glyph-name="lacute" unicode="&#x13a;" horiz-adv-x="226" 
d="M40 0l121 686l57 8l-122 -694h-56zM190 748l-25 38c41 26 69 45 104 73l29 -39c-33 -25 -60 -45 -108 -72z" />
    <glyph glyph-name="Lcommaaccent" unicode="&#x13b;" horiz-adv-x="491" 
d="M45 0l117 666h57l-109 -615h300l-8 -51h-357zM179 -251l-22 14l53 94h-23l15 86h60l-15 -86z" />
    <glyph glyph-name="lcommaaccent" unicode="&#x13c;" horiz-adv-x="226" 
d="M40 0l121 686l57 8l-122 -694h-56zM6 -251l-22 14l53 94h-23l15 86h60l-15 -86z" />
    <glyph glyph-name="Lcaron" unicode="&#x13d;" horiz-adv-x="491" 
d="M45 0l117 666h57l-109 -615h300l-8 -51h-357zM374 492l-22 14l53 94h-23l15 86h60l-15 -86z" />
    <glyph glyph-name="lcaron" unicode="&#x13e;" horiz-adv-x="327" 
d="M294 492l-22 14l53 94h-23l15 86h60l-15 -86zM40 0l121 686l57 8l-122 -694h-56z" />
    <glyph glyph-name="Ldot" unicode="&#x13f;" horiz-adv-x="491" 
d="M295 298l15 86h60l-15 -86h-60zM45 0l117 666h57l-109 -615h300l-8 -51h-357z" />
    <glyph glyph-name="ldot" unicode="&#x140;" horiz-adv-x="340" 
d="M40 0l121 686l57 8l-122 -694h-56zM236 230l15 86h60l-15 -86h-60z" />
    <glyph glyph-name="Lslash" unicode="&#x141;" horiz-adv-x="515" 
d="M50 255l-16 43l96 48l56 320h57l-51 -289l161 81l17 -43l-188 -94l-48 -270h300l-8 -51h-357l51 290z" />
    <glyph glyph-name="lslash" unicode="&#x142;" horiz-adv-x="259" 
d="M35 255l-16 43l95 47l60 341l57 8l-56 -318l86 43l17 -43l-113 -56l-56 -320h-56l51 289z" />
    <glyph glyph-name="Nacute" unicode="&#x143;" horiz-adv-x="640" 
d="M419 0l-210 613l-108 -613h-56l117 666h86l210 -614l108 614h56l-117 -666h-86zM400 720l-25 38c41 26 69 45 104 73l29 -39c-33 -25 -60 -45 -108 -72z" />
    <glyph glyph-name="nacute" unicode="&#x144;" horiz-adv-x="518" 
d="M337 0l70 396c1 6 2 12 2 16c0 24 -13 33 -41 33c-51 0 -146 -45 -208 -84l-64 -361h-56l85 483l49 8l-8 -75c49 34 153 81 212 81c60 0 86 -31 86 -80c0 -8 -1 -20 -3 -31l-68 -386h-56zM277 556l-22 39c54 26 85 44 140 81l24 -39c-49 -34 -83 -53 -142 -81z" />
    <glyph glyph-name="Ncommaaccent" unicode="&#x145;" horiz-adv-x="640" 
d="M419 0l-210 613l-108 -613h-56l117 666h86l210 -614l108 614h56l-117 -666h-86zM209 -251l-22 14l53 94h-23l15 86h60l-15 -86z" />
    <glyph glyph-name="ncommaaccent" unicode="&#x146;" horiz-adv-x="518" 
d="M337 0l70 396c1 6 2 12 2 16c0 24 -13 33 -41 33c-51 0 -146 -45 -208 -84l-64 -361h-56l85 483l49 8l-8 -75c49 34 153 81 212 81c60 0 86 -31 86 -80c0 -8 -1 -20 -3 -31l-68 -386h-56zM160 -251l-22 14l53 94h-23l15 86h60l-15 -86z" />
    <glyph glyph-name="Ncaron" unicode="&#x147;" horiz-adv-x="640" 
d="M419 0l-210 613l-108 -613h-56l117 666h86l210 -614l108 614h56l-117 -666h-86zM324 831c45 -24 60 -33 93 -54c37 21 67 37 98 54l19 -38c-40 -22 -75 -43 -122 -73c-36 26 -61 44 -109 76z" />
    <glyph glyph-name="ncaron" unicode="&#x148;" horiz-adv-x="518" 
d="M337 0l70 396c1 6 2 12 2 16c0 24 -13 33 -41 33c-51 0 -146 -45 -208 -84l-64 -361h-56l85 483l49 8l-8 -75c49 34 153 81 212 81c60 0 86 -31 86 -80c0 -8 -1 -20 -3 -31l-68 -386h-56zM219 664c43 -26 67 -43 94 -64c40 27 65 40 105 64l21 -37
c-48 -28 -76 -46 -131 -86c-35 34 -65 56 -112 89z" />
    <glyph glyph-name="Eng" unicode="&#x14a;" horiz-adv-x="640" 
d="M419 0l-210 613l-108 -613h-56l117 666h86l210 -614l108 614h56l-117 -666l-7 -38c-10 -59 -16 -72 -141 -169l-30 41c96 78 108 87 117 139l5 27h-30z" />
    <glyph glyph-name="eng" unicode="&#x14b;" horiz-adv-x="518" 
d="M337 0l70 396c1 6 2 12 2 16c0 24 -13 33 -41 33c-51 0 -146 -45 -208 -84l-64 -361h-56l85 483l49 8l-8 -75c49 34 153 81 212 81c60 0 86 -31 86 -80c0 -8 -1 -20 -3 -31l-68 -386l-7 -38c-10 -59 -16 -72 -141 -169l-30 41c96 78 108 87 117 139z" />
    <glyph glyph-name="Omacron" unicode="&#x14c;" horiz-adv-x="614" 
d="M260 -10c-146 0 -200 66 -200 157c0 15 1 31 4 47l49 276c26 147 98 206 266 206c136 0 202 -74 202 -167c0 -11 -2 -26 -4 -39l-50 -280c-21 -118 -86 -200 -267 -200zM470 190l50 281c3 14 4 30 4 41c0 71 -43 113 -152 113c-128 0 -184 -48 -203 -155l-48 -272
c-3 -17 -4 -33 -4 -48c0 -69 37 -109 152 -109c134 0 184 55 201 149zM273 740l8 44h234l-8 -44h-234z" />
    <glyph glyph-name="omacron" unicode="&#x14d;" horiz-adv-x="496" 
d="M201 -10c-115 0 -160 58 -160 136c0 14 1 29 4 44l26 148c19 107 75 179 219 179c108 0 162 -56 162 -137c0 -12 -2 -24 -4 -37l-28 -159c-19 -108 -79 -174 -219 -174zM364 165l28 158c2 12 3 23 3 34c0 60 -35 90 -114 90c-92 0 -139 -44 -154 -129l-27 -153
c-2 -13 -3 -26 -3 -37c0 -57 31 -88 113 -88c90 0 139 42 154 125zM189 570l8 44h234l-8 -44h-234z" />
    <glyph glyph-name="Obreve" unicode="&#x14e;" horiz-adv-x="614" 
d="M260 -10c-146 0 -200 66 -200 157c0 15 1 31 4 47l49 276c26 147 98 206 266 206c136 0 202 -74 202 -167c0 -11 -2 -26 -4 -39l-50 -280c-21 -118 -86 -200 -267 -200zM470 190l50 281c3 14 4 30 4 41c0 71 -43 113 -152 113c-128 0 -184 -48 -203 -155l-48 -272
c-3 -17 -4 -33 -4 -48c0 -69 37 -109 152 -109c134 0 184 55 201 149zM395 719c-59 0 -92 30 -112 64l35 27c16 -27 37 -47 78 -47c40 0 65 16 93 47l28 -28c-26 -37 -64 -63 -122 -63z" />
    <glyph glyph-name="obreve" unicode="&#x14f;" horiz-adv-x="496" 
d="M201 -10c-115 0 -160 58 -160 136c0 14 1 29 4 44l26 148c19 107 75 179 219 179c108 0 162 -56 162 -137c0 -12 -2 -24 -4 -37l-28 -159c-19 -108 -79 -174 -219 -174zM364 165l28 158c2 12 3 23 3 34c0 60 -35 90 -114 90c-92 0 -139 -44 -154 -129l-27 -153
c-2 -13 -3 -26 -3 -37c0 -57 31 -88 113 -88c90 0 139 42 154 125zM308 545c-55 0 -95 32 -115 70l35 27c17 -32 40 -53 81 -53c43 0 70 21 98 52l28 -28c-28 -37 -63 -68 -127 -68z" />
    <glyph glyph-name="Ohungarumlaut" unicode="&#x150;" horiz-adv-x="614" 
d="M260 -10c-146 0 -200 66 -200 157c0 15 1 31 4 47l49 276c26 147 98 206 266 206c136 0 202 -74 202 -167c0 -11 -2 -26 -4 -39l-50 -280c-21 -118 -86 -200 -267 -200zM470 190l50 281c3 14 4 30 4 41c0 71 -43 113 -152 113c-128 0 -184 -48 -203 -155l-48 -272
c-3 -17 -4 -33 -4 -48c0 -69 37 -109 152 -109c134 0 184 55 201 149zM323 718l-28 33c35 28 61 53 89 81l31 -37c-36 -34 -57 -52 -92 -77zM466 718l-28 33c35 28 61 53 89 81l31 -37c-36 -34 -57 -52 -92 -77z" />
    <glyph glyph-name="ohungarumlaut" unicode="&#x151;" horiz-adv-x="496" 
d="M201 -10c-115 0 -160 58 -160 136c0 14 1 29 4 44l26 148c19 107 75 179 219 179c108 0 162 -56 162 -137c0 -12 -2 -24 -4 -37l-28 -159c-19 -108 -79 -174 -219 -174zM364 165l28 158c2 12 3 23 3 34c0 60 -35 90 -114 90c-92 0 -139 -44 -154 -129l-27 -153
c-2 -13 -3 -26 -3 -37c0 -57 31 -88 113 -88c90 0 139 42 154 125zM238 539l-31 31c35 34 61 60 98 106l33 -35c-35 -43 -63 -70 -100 -102zM372 539l-31 31c35 34 61 60 98 106l33 -35c-35 -43 -63 -70 -100 -102z" />
    <glyph glyph-name="OE" unicode="&#x152;" horiz-adv-x="882" 
d="M778 0h-518c-146 0 -200 66 -200 157c0 15 1 31 4 47l45 256c26 147 98 206 266 206h519l-9 -51h-316l-44 -250h294l-9 -51h-294l-47 -263h317zM511 615h-143c-128 0 -184 -48 -203 -155l-44 -252c-3 -17 -4 -33 -4 -48c0 -69 37 -109 152 -109h143z" />
    <glyph glyph-name="oe" unicode="&#x153;" horiz-adv-x="772" 
d="M427 199l-12 -68c-2 -9 -2 -18 -2 -27c0 -41 22 -65 83 -65c56 0 125 19 183 43l14 -43c-56 -29 -132 -49 -204 -49c-65 0 -110 24 -119 74c-34 -45 -79 -74 -169 -74c-115 0 -160 58 -160 136c0 14 1 29 4 44l26 148c19 107 72 179 216 179c69 0 125 -27 147 -88
c29 62 94 88 170 88c86 0 143 -43 143 -116c0 -79 -46 -127 -179 -155c-100 -21 -141 -27 -141 -27zM364 165l28 158c2 12 3 23 3 34c0 60 -35 90 -114 90c-92 0 -139 -44 -154 -129l-27 -153c-2 -13 -3 -26 -3 -37c0 -57 31 -88 113 -88c90 0 139 42 154 125zM563 274
c108 22 130 59 130 108c0 44 -32 67 -94 67c-87 0 -136 -46 -153 -141l-10 -57s30 4 127 23z" />
    <glyph glyph-name="Racute" unicode="&#x154;" horiz-adv-x="608" 
d="M468 0l-128 257h-193l-45 -257h-57l117 666h232c116 0 161 -47 161 -120c0 -11 -1 -23 -3 -36l-19 -107c-14 -77 -46 -121 -134 -139l132 -264h-63zM477 408l19 107c2 10 3 20 3 28c0 55 -37 72 -110 72h-179l-54 -307h179c88 0 129 26 142 100zM346 720l-25 38
c41 26 69 45 104 73l29 -39c-33 -25 -60 -45 -108 -72z" />
    <glyph glyph-name="racute" unicode="&#x155;" horiz-adv-x="301" 
d="M310 497l3 -55c-53 -31 -104 -64 -156 -98l-60 -344h-56l84 483l52 8l-12 -86c37 28 101 70 145 92zM174 556l-22 39c54 26 85 44 140 81l24 -39c-49 -34 -83 -53 -142 -81z" />
    <glyph glyph-name="Rcommaaccent" unicode="&#x156;" horiz-adv-x="608" 
d="M468 0l-128 257h-193l-45 -257h-57l117 666h232c116 0 161 -47 161 -120c0 -11 -1 -23 -3 -36l-19 -107c-14 -77 -46 -121 -134 -139l132 -264h-63zM477 408l19 107c2 10 3 20 3 28c0 55 -37 72 -110 72h-179l-54 -307h179c88 0 129 26 142 100zM218 -251l-22 14l53 94
h-23l15 86h60l-15 -86z" />
    <glyph glyph-name="rcommaaccent" unicode="&#x157;" horiz-adv-x="301" 
d="M310 497l3 -55c-53 -31 -104 -64 -156 -98l-60 -344h-56l84 483l52 8l-12 -86c37 28 101 70 145 92zM9 -251l-22 14l53 94h-23l15 86h60l-15 -86z" />
    <glyph glyph-name="Rcaron" unicode="&#x158;" horiz-adv-x="608" 
d="M468 0l-128 257h-193l-45 -257h-57l117 666h232c116 0 161 -47 161 -120c0 -11 -1 -23 -3 -36l-19 -107c-14 -77 -46 -121 -134 -139l132 -264h-63zM477 408l19 107c2 10 3 20 3 28c0 55 -37 72 -110 72h-179l-54 -307h179c88 0 129 26 142 100zM281 831
c45 -24 60 -33 93 -54c37 21 67 37 98 54l19 -38c-40 -22 -75 -43 -122 -73c-36 26 -61 44 -109 76z" />
    <glyph glyph-name="rcaron" unicode="&#x159;" horiz-adv-x="301" 
d="M310 497l3 -55c-53 -31 -104 -64 -156 -98l-60 -344h-56l84 483l52 8l-12 -86c37 28 101 70 145 92zM138 664c43 -26 67 -43 94 -64c40 27 65 40 105 64l21 -37c-48 -28 -76 -46 -131 -86c-35 34 -65 56 -112 89z" />
    <glyph glyph-name="Sacute" unicode="&#x15a;" horiz-adv-x="531" 
d="M207 -10c-58 0 -128 12 -185 34l14 47c62 -19 125 -30 179 -30c119 0 152 34 168 124c5 26 8 46 8 62c0 46 -28 57 -133 84c-114 30 -150 61 -150 132c0 19 2 42 7 68c23 129 74 165 231 165c41 0 112 -7 166 -22l-10 -48c-55 13 -119 19 -158 19
c-132 0 -156 -26 -172 -115c-5 -27 -8 -47 -8 -64c0 -50 30 -60 126 -87c123 -34 158 -60 158 -125c0 -19 -3 -42 -8 -69c-20 -115 -56 -175 -233 -175zM338 720l-25 38c41 26 69 45 104 73l29 -39c-33 -25 -60 -45 -108 -72z" />
    <glyph glyph-name="sacute" unicode="&#x15b;" horiz-adv-x="408" 
d="M164 -10c-44 0 -102 9 -139 25l12 46c40 -13 92 -21 129 -21c82 0 102 11 113 80c8 50 -7 62 -90 106c-94 50 -122 76 -110 154c12 76 46 117 169 117c43 0 98 -8 135 -20l-10 -47c-39 10 -92 17 -128 17c-82 0 -99 -12 -110 -72c-10 -56 8 -67 77 -105
c115 -63 134 -83 121 -159c-14 -84 -42 -121 -169 -121zM219 556l-22 39c54 26 85 44 140 81l24 -39c-49 -34 -83 -53 -142 -81z" />
    <glyph glyph-name="Scircumflex" unicode="&#x15c;" horiz-adv-x="531" 
d="M207 -10c-58 0 -128 12 -185 34l14 47c62 -19 125 -30 179 -30c119 0 152 34 168 124c5 26 8 46 8 62c0 46 -28 57 -133 84c-114 30 -150 61 -150 132c0 19 2 42 7 68c23 129 74 165 231 165c41 0 112 -7 166 -22l-10 -48c-55 13 -119 19 -158 19
c-132 0 -156 -26 -172 -115c-5 -27 -8 -47 -8 -64c0 -50 30 -60 126 -87c123 -34 158 -60 158 -125c0 -19 -3 -42 -8 -69c-20 -115 -56 -175 -233 -175zM449 722c-45 24 -60 33 -93 54c-37 -21 -67 -37 -98 -54l-19 38c40 22 75 43 122 73c36 -26 61 -44 109 -76z" />
    <glyph glyph-name="scircumflex" unicode="&#x15d;" horiz-adv-x="408" 
d="M164 -10c-44 0 -102 9 -139 25l12 46c40 -13 92 -21 129 -21c82 0 102 11 113 80c8 50 -7 62 -90 106c-94 50 -122 76 -110 154c12 76 46 117 169 117c43 0 98 -8 135 -20l-10 -47c-39 10 -92 17 -128 17c-82 0 -99 -12 -110 -72c-10 -56 8 -67 77 -105
c115 -63 134 -83 121 -159c-14 -84 -42 -121 -169 -121zM367 546c-43 26 -67 43 -94 64c-40 -27 -65 -40 -105 -64l-21 37c48 28 76 46 131 86c35 -34 65 -56 112 -89z" />
    <glyph glyph-name="Scedilla" unicode="&#x15e;" horiz-adv-x="531" 
d="M185 -207c-28 0 -53 5 -75 14l11 35c18 -6 40 -11 63 -11c43 0 65 15 65 43c0 16 -15 26 -43 26c-13 0 -33 -1 -45 -3l-6 14l27 80c-53 3 -111 14 -160 33l14 47c62 -19 125 -30 179 -30c119 0 152 34 168 124c5 26 8 46 8 62c0 46 -28 57 -133 84
c-114 30 -150 61 -150 132c0 19 2 42 7 68c23 129 74 165 231 165c41 0 112 -7 166 -22l-10 -48c-55 13 -119 19 -158 19c-132 0 -156 -26 -172 -115c-5 -27 -8 -47 -8 -64c0 -50 30 -60 126 -87c123 -34 158 -60 158 -125c0 -19 -3 -42 -8 -69c-20 -112 -54 -171 -218 -175
l-20 -61c10 2 22 3 30 3c36 0 62 -19 62 -53c0 -54 -39 -86 -109 -86z" />
    <glyph glyph-name="scedilla" unicode="&#x15f;" horiz-adv-x="408" 
d="M131 -207c-28 0 -53 5 -75 14l11 35c18 -6 40 -11 63 -11c43 0 65 15 65 43c0 16 -15 26 -43 26c-13 0 -33 -1 -45 -3l-6 14l27 81c-37 3 -76 11 -103 23l12 46c40 -13 92 -21 129 -21c82 0 102 11 113 80c8 50 -7 62 -90 106c-94 50 -122 76 -110 154
c12 76 46 117 169 117c43 0 98 -8 135 -20l-10 -47c-39 10 -92 17 -128 17c-82 0 -99 -12 -110 -72c-10 -56 8 -67 77 -105c115 -63 134 -83 121 -159c-14 -83 -42 -120 -165 -121l-20 -61c10 2 22 3 30 3c36 0 62 -19 62 -53c0 -54 -39 -86 -109 -86z" />
    <glyph glyph-name="Scaron" unicode="&#x160;" horiz-adv-x="531" 
d="M207 -10c-58 0 -128 12 -185 34l14 47c62 -19 125 -30 179 -30c119 0 152 34 168 124c5 26 8 46 8 62c0 46 -28 57 -133 84c-114 30 -150 61 -150 132c0 19 2 42 7 68c23 129 74 165 231 165c41 0 112 -7 166 -22l-10 -48c-55 13 -119 19 -158 19
c-132 0 -156 -26 -172 -115c-5 -27 -8 -47 -8 -64c0 -50 30 -60 126 -87c123 -34 158 -60 158 -125c0 -19 -3 -42 -8 -69c-20 -115 -56 -175 -233 -175zM260 831c45 -24 60 -33 93 -54c37 21 67 37 98 54l19 -38c-40 -22 -75 -43 -122 -73c-36 26 -61 44 -109 76z" />
    <glyph glyph-name="scaron" unicode="&#x161;" horiz-adv-x="408" 
d="M164 -10c-44 0 -102 9 -139 25l12 46c40 -13 92 -21 129 -21c82 0 102 11 113 80c8 50 -7 62 -90 106c-94 50 -122 76 -110 154c12 76 46 117 169 117c43 0 98 -8 135 -20l-10 -47c-39 10 -92 17 -128 17c-82 0 -99 -12 -110 -72c-10 -56 8 -67 77 -105
c115 -63 134 -83 121 -159c-14 -84 -42 -121 -169 -121zM164 664c43 -26 67 -43 94 -64c40 27 65 40 105 64l21 -37c-48 -28 -76 -46 -131 -86c-35 34 -65 56 -112 89z" />
    <glyph glyph-name="Tcommaaccent" unicode="&#x162;" horiz-adv-x="517" 
d="M350 615l-108 -615h-57l108 615h-205l9 51h467l-9 -51h-205zM153 -251l-22 14l53 94h-23l15 86h60l-15 -86z" />
    <glyph glyph-name="Tcommaaccent" unicode="&#x21a;" horiz-adv-x="517" 
d="M350 615l-108 -615h-57l108 615h-205l9 51h467l-9 -51h-205zM153 -251l-22 14l53 94h-23l15 86h60l-15 -86z" />
    <glyph glyph-name="tcommaaccent" unicode="&#x163;" horiz-adv-x="360" 
d="M168 -10c-49 0 -80 21 -80 65c0 6 1 12 2 19l64 365h-93l8 48h94l21 119l57 8l-22 -127h146l-11 -48h-144l-63 -359c-1 -7 -2 -13 -2 -18c0 -19 10 -24 33 -24c27 0 61 8 97 23l14 -38c-37 -21 -79 -33 -121 -33zM117 -251l-22 14l53 94h-23l15 86h60l-15 -86z" />
    <glyph glyph-name="tcommaaccent" unicode="&#x21b;" horiz-adv-x="360" 
d="M168 -10c-49 0 -80 21 -80 65c0 6 1 12 2 19l64 365h-93l8 48h94l21 119l57 8l-22 -127h146l-11 -48h-144l-63 -359c-1 -7 -2 -13 -2 -18c0 -19 10 -24 33 -24c27 0 61 8 97 23l14 -38c-37 -21 -79 -33 -121 -33zM117 -251l-22 14l53 94h-23l15 86h60l-15 -86z" />
    <glyph glyph-name="Tcaron" unicode="&#x164;" horiz-adv-x="517" 
d="M350 615l-108 -615h-57l108 615h-205l9 51h467l-9 -51h-205zM249 831c45 -24 60 -33 93 -54c37 21 67 37 98 54l19 -38c-40 -22 -75 -43 -122 -73c-36 26 -61 44 -109 76z" />
    <glyph glyph-name="tcaron" unicode="&#x165;" horiz-adv-x="360" 
d="M345 622l13 74h58l-13 -74l-51 -77l-23 14l37 63h-21zM168 -10c-49 0 -80 21 -80 65c0 6 1 12 2 19l64 365h-93l8 48h94l21 119l57 8l-22 -127h146l-11 -48h-144l-63 -359c-1 -7 -2 -13 -2 -18c0 -19 10 -24 33 -24c27 0 61 8 97 23l14 -38c-37 -21 -79 -33 -121 -33z
" />
    <glyph glyph-name="Tbar" unicode="&#x166;" horiz-adv-x="517" 
d="M62 307l8 42h176l47 266h-205l9 51h467l-9 -51h-205l-47 -266h176l-8 -42h-175l-54 -307h-57l54 307h-177z" />
    <glyph glyph-name="tbar" unicode="&#x167;" horiz-adv-x="360" 
d="M22 231l8 42h94l29 166h-93l8 48h94l21 119l57 8l-22 -127h146l-11 -48h-144l-29 -166h132l-8 -42h-132l-26 -151c-1 -7 -2 -13 -2 -18c0 -19 10 -24 33 -24c27 0 61 8 97 23l14 -38c-37 -21 -79 -33 -121 -33c-49 0 -80 21 -80 65c0 6 1 12 2 19l27 157h-94z" />
    <glyph glyph-name="Utilde" unicode="&#x168;" horiz-adv-x="628" 
d="M267 -10c-140 0 -197 68 -197 160c0 14 2 31 4 44l83 472h57l-84 -477c-2 -14 -4 -28 -4 -40c0 -72 44 -108 150 -108c126 0 183 58 199 152l83 473h57l-84 -479c-20 -113 -83 -197 -264 -197zM463 728c-40 0 -78 35 -107 35c-24 0 -41 -15 -59 -31l-22 24
c17 26 47 53 88 53c38 0 68 -35 102 -35c19 0 30 6 50 24l24 -24c-20 -29 -41 -46 -76 -46z" />
    <glyph glyph-name="utilde" unicode="&#x169;" horiz-adv-x="518" 
d="M178 491l-71 -400c-1 -6 -2 -13 -2 -18c0 -20 13 -31 41 -31c51 0 146 45 208 84l63 357l58 8l-87 -491h-48l8 71c-56 -39 -150 -81 -212 -81c-60 0 -86 31 -86 80c0 10 1 20 3 31l67 382zM375 558c-40 0 -78 35 -107 35c-24 0 -41 -15 -59 -31l-22 24c17 26 47 53 88 53
c38 0 68 -35 102 -35c19 0 30 6 50 24l24 -24c-20 -29 -41 -46 -76 -46z" />
    <glyph glyph-name="Umacron" unicode="&#x16a;" horiz-adv-x="628" 
d="M267 -10c-140 0 -197 68 -197 160c0 14 2 31 4 44l83 472h57l-84 -477c-2 -14 -4 -28 -4 -40c0 -72 44 -108 150 -108c126 0 183 58 199 152l83 473h57l-84 -479c-20 -113 -83 -197 -264 -197zM282 740l8 44h234l-8 -44h-234z" />
    <glyph glyph-name="umacron" unicode="&#x16b;" horiz-adv-x="518" 
d="M178 491l-71 -400c-1 -6 -2 -13 -2 -18c0 -20 13 -31 41 -31c51 0 146 45 208 84l63 357l58 8l-87 -491h-48l8 71c-56 -39 -150 -81 -212 -81c-60 0 -86 31 -86 80c0 10 1 20 3 31l67 382zM200 570l8 44h234l-8 -44h-234z" />
    <glyph glyph-name="Ubreve" unicode="&#x16c;" horiz-adv-x="628" 
d="M267 -10c-140 0 -197 68 -197 160c0 14 2 31 4 44l83 472h57l-84 -477c-2 -14 -4 -28 -4 -40c0 -72 44 -108 150 -108c126 0 183 58 199 152l83 473h57l-84 -479c-20 -113 -83 -197 -264 -197zM400 719c-59 0 -92 30 -112 64l35 27c16 -27 37 -47 78 -47
c40 0 65 16 93 47l28 -28c-26 -37 -64 -63 -122 -63z" />
    <glyph glyph-name="ubreve" unicode="&#x16d;" horiz-adv-x="518" 
d="M178 491l-71 -400c-1 -6 -2 -13 -2 -18c0 -20 13 -31 41 -31c51 0 146 45 208 84l63 357l58 8l-87 -491h-48l8 71c-56 -39 -150 -81 -212 -81c-60 0 -86 31 -86 80c0 10 1 20 3 31l67 382zM320 545c-55 0 -95 32 -115 70l35 27c17 -32 40 -53 81 -53c43 0 70 21 98 52
l28 -28c-28 -37 -63 -68 -127 -68z" />
    <glyph glyph-name="Uring" unicode="&#x16e;" horiz-adv-x="628" 
d="M267 -10c-140 0 -197 68 -197 160c0 14 2 31 4 44l83 472h57l-84 -477c-2 -14 -4 -28 -4 -40c0 -72 44 -108 150 -108c126 0 183 58 199 152l83 473h57l-84 -479c-20 -113 -83 -197 -264 -197zM394 713c-34 0 -53 20 -53 50c0 44 27 73 74 73c35 0 53 -21 53 -47
c0 -41 -22 -76 -74 -76zM411 809c-22 0 -38 -17 -38 -42c0 -15 6 -26 25 -26c26 0 37 20 37 44c0 16 -6 24 -24 24z" />
    <glyph glyph-name="uring" unicode="&#x16f;" horiz-adv-x="518" 
d="M178 491l-71 -400c-1 -6 -2 -13 -2 -18c0 -20 13 -31 41 -31c51 0 146 45 208 84l63 357l58 8l-87 -491h-48l8 71c-56 -39 -150 -81 -212 -81c-60 0 -86 31 -86 80c0 10 1 20 3 31l67 382zM308 540c-36 0 -55 22 -55 52c0 44 27 75 76 75c35 0 55 -22 55 -49
c0 -41 -25 -78 -76 -78zM325 640c-22 0 -40 -19 -40 -44c0 -15 5 -28 27 -28c26 0 39 22 39 46c0 16 -8 26 -26 26z" />
    <glyph glyph-name="Uhungarumlaut" unicode="&#x170;" horiz-adv-x="628" 
d="M267 -10c-140 0 -197 68 -197 160c0 14 2 31 4 44l83 472h57l-84 -477c-2 -14 -4 -28 -4 -40c0 -72 44 -108 150 -108c126 0 183 58 199 152l83 473h57l-84 -479c-20 -113 -83 -197 -264 -197zM318 718l-28 33c35 28 61 53 89 81l31 -37c-36 -34 -57 -52 -92 -77z
M461 718l-28 33c35 28 61 53 89 81l31 -37c-36 -34 -57 -52 -92 -77z" />
    <glyph glyph-name="uhungarumlaut" unicode="&#x171;" horiz-adv-x="518" 
d="M178 491l-71 -400c-1 -6 -2 -13 -2 -18c0 -20 13 -31 41 -31c51 0 146 45 208 84l63 357l58 8l-87 -491h-48l8 71c-56 -39 -150 -81 -212 -81c-60 0 -86 31 -86 80c0 10 1 20 3 31l67 382zM241 539l-31 31c35 34 61 60 98 106l33 -35c-35 -43 -63 -70 -100 -102zM375 539
l-31 31c35 34 61 60 98 106l33 -35c-35 -43 -63 -70 -100 -102z" />
    <glyph glyph-name="Uogonek" unicode="&#x172;" horiz-adv-x="628" 
d="M329 -192c-20 -10 -41 -15 -67 -15c-39 0 -72 22 -72 64c0 58 61 103 125 136c-15 -2 -31 -3 -48 -3c-140 0 -197 68 -197 160c0 14 2 31 4 44l83 472h57l-84 -477c-2 -14 -4 -28 -4 -40c0 -72 44 -108 150 -108c126 0 183 58 199 152l83 473h57l-84 -479
c-13 -74 -45 -136 -116 -170c-106 -53 -176 -101 -176 -152c0 -18 10 -30 36 -30c16 0 31 2 48 8z" />
    <glyph glyph-name="uogonek" unicode="&#x173;" horiz-adv-x="518" 
d="M354 -192c-20 -10 -41 -15 -67 -15c-39 0 -72 22 -72 64c0 65 67 115 125 143l8 71c-56 -39 -150 -81 -212 -81c-60 0 -86 31 -86 80c0 10 1 20 3 31l67 382l58 8l-71 -400c-1 -6 -2 -13 -2 -18c0 -20 13 -31 41 -31c51 0 146 45 208 84l63 357l58 8l-87 -491
c-66 -40 -124 -82 -124 -135c0 -18 10 -30 36 -30c16 0 31 2 48 8z" />
    <glyph glyph-name="Wcircumflex" unicode="&#x174;" horiz-adv-x="882" 
d="M647 0h-94l-43 629l-254 -629h-92l-62 666h53l60 -626l256 626h88l46 -626l259 626h58zM626 722c-45 24 -60 33 -93 54c-37 -21 -67 -37 -98 -54l-19 38c40 22 75 43 122 73c36 -26 61 -44 109 -76z" />
    <glyph glyph-name="wcircumflex" unicode="&#x175;" horiz-adv-x="672" 
d="M329 483l48 8l91 -457l113 279c15 39 17 69 17 99c0 25 -3 49 -8 71l53 8c4 -24 7 -50 7 -76c0 -37 -4 -71 -19 -112l-123 -303h-86l-60 307l-166 -307h-85c-1 200 -17 353 -48 483l52 8c23 -117 44 -258 44 -457l189 347zM469 546c-43 26 -67 43 -94 64
c-40 -27 -65 -40 -105 -64l-21 37c48 28 76 46 131 86c35 -34 65 -56 112 -89z" />
    <glyph glyph-name="Ycircumflex" unicode="&#x176;" horiz-adv-x="523" 
d="M280 198l-35 -198h-57l37 207l-144 459h56l126 -403l261 403h65zM435 722c-45 24 -60 33 -93 54c-37 -21 -67 -37 -98 -54l-19 38c40 22 75 43 122 73c36 -26 61 -44 109 -76z" />
    <glyph glyph-name="ycircumflex" unicode="&#x177;" horiz-adv-x="418" 
d="M222 0c-53 -93 -98 -164 -221 -205l-15 43c80 29 128 70 179 162h-28l-80 483l54 8l73 -454l155 307c16 31 22 56 22 78s-6 41 -12 61l57 8c5 -18 10 -41 10 -67s-5 -54 -18 -82zM347 546c-43 26 -67 43 -94 64c-40 -27 -65 -40 -105 -64l-21 37c48 28 76 46 131 86
c35 -34 65 -56 112 -89z" />
    <glyph glyph-name="Ydieresis" unicode="&#x178;" horiz-adv-x="523" 
d="M280 198l-35 -198h-57l37 207l-144 459h56l126 -403l261 403h65zM389 734l11 60h64l-11 -60h-64zM215 734l11 60h64l-11 -60h-64z" />
    <glyph glyph-name="Zacute" unicode="&#x179;" horiz-adv-x="554" 
d="M55 0l-4 52l429 563h-339l9 51h390l3 -52l-429 -563h346l-8 -51h-397zM333 720l-25 38c41 26 69 45 104 73l29 -39c-33 -25 -60 -45 -108 -72z" />
    <glyph glyph-name="zacute" unicode="&#x17a;" horiz-adv-x="434" 
d="M28 0l-3 46l323 396h-252l7 45h308v-46l-323 -396h264l-7 -45h-317zM226 556l-22 39c54 26 85 44 140 81l24 -39c-49 -34 -83 -53 -142 -81z" />
    <glyph glyph-name="Zdotaccent" unicode="&#x17b;" horiz-adv-x="554" 
d="M55 0l-4 52l429 563h-339l9 51h390l3 -52l-429 -563h346l-8 -51h-397zM328 726l19 113l58 8l-20 -113z" />
    <glyph glyph-name="zdotaccent" unicode="&#x17c;" horiz-adv-x="434" 
d="M28 0l-3 46l323 396h-252l7 45h308v-46l-323 -396h264l-7 -45h-317zM244 573l19 113l58 8l-20 -113z" />
    <glyph glyph-name="Zcaron" unicode="&#x17d;" horiz-adv-x="554" 
d="M55 0l-4 52l429 563h-339l9 51h390l3 -52l-429 -563h346l-8 -51h-397zM259 831c45 -24 60 -33 93 -54c37 21 67 37 98 54l19 -38c-40 -22 -75 -43 -122 -73c-36 26 -61 44 -109 76z" />
    <glyph glyph-name="zcaron" unicode="&#x17e;" horiz-adv-x="434" 
d="M28 0l-3 46l323 396h-252l7 45h308v-46l-323 -396h264l-7 -45h-317zM175 664c43 -26 67 -43 94 -64c40 27 65 40 105 64l21 -37c-48 -28 -76 -46 -131 -86c-35 34 -65 56 -112 89z" />
    <glyph glyph-name="florin" unicode="&#x192;" horiz-adv-x="484" 
d="M492 647c-24 7 -52 11 -74 11c-56 0 -76 -9 -91 -66l-43 -166h140l-20 -48h-134l-122 -468c-21 -79 -42 -107 -121 -107c-27 0 -59 8 -82 19l13 43c18 -7 44 -14 65 -14c49 0 58 15 70 65l121 462h-91l14 48h91l46 175c19 72 49 105 140 105c28 0 65 -6 90 -15z" />
    <glyph glyph-name="Aringacute" unicode="&#x1fa;" horiz-adv-x="616" 
d="M481 0l-29 176h-301l-93 -176h-59l342 666h86l112 -666h-58zM381 636l-204 -410h265zM395 703c-34 0 -53 20 -53 50c0 44 27 73 74 73c35 0 53 -21 53 -47c0 -41 -22 -76 -74 -76zM412 799c-22 0 -38 -17 -38 -42c0 -15 6 -26 25 -26c26 0 37 20 37 44c0 16 -6 24 -24 24
zM424 843l-20 31c32 21 58 37 90 62l22 -34c-33 -25 -53 -36 -92 -59z" />
    <glyph glyph-name="aringacute" unicode="&#x1fb;" horiz-adv-x="499" 
d="M323 0l10 71c-56 -48 -126 -81 -196 -81c-62 0 -96 22 -96 82c0 11 1 23 3 36l37 209c23 128 76 180 207 180c45 0 111 -11 168 -32l-82 -465h-51zM342 136l52 295c-27 8 -74 16 -114 16c-91 0 -126 -33 -145 -140l-35 -199c-2 -12 -3 -21 -3 -29c0 -31 15 -39 45 -39
c61 0 137 40 200 96zM312 537c-34 0 -53 20 -53 50c0 44 27 73 74 73c35 0 53 -21 53 -47c0 -41 -22 -76 -74 -76zM329 633c-22 0 -38 -17 -38 -42c0 -15 6 -26 25 -26c26 0 37 20 37 44c0 16 -6 24 -24 24zM334 686l-20 31c32 21 58 37 90 62l22 -34
c-33 -25 -53 -36 -92 -59z" />
    <glyph glyph-name="AEacute" unicode="&#x1fc;" horiz-adv-x="835" 
d="M481 0l-28 176h-302l-93 -176h-59l342 666h506l-9 -51h-403l41 -250h296l-9 -51h-278l44 -263h210l-8 -51h-250zM381 636l-204 -410h266zM425 720l-25 38c41 26 69 45 104 73l29 -39c-33 -25 -60 -45 -108 -72z" />
    <glyph glyph-name="aeacute" unicode="&#x1fd;" horiz-adv-x="738" 
d="M389 207l-15 -83c-1 -8 -2 -16 -2 -24c0 -40 24 -61 86 -61c56 0 124 19 182 43l14 -43c-56 -29 -131 -49 -203 -49c-64 0 -104 17 -122 53c-58 -33 -123 -53 -197 -53c-69 0 -105 35 -105 98c0 133 61 168 169 168h145l17 97c2 10 3 18 3 26c0 50 -34 68 -103 68
c-48 0 -102 -6 -146 -16l-7 45c41 11 109 21 159 21c79 0 125 -25 139 -78c37 52 92 78 162 78c86 0 143 -43 143 -116c0 -126 -103 -161 -319 -174zM407 308l-10 -52c210 8 257 52 257 127c0 43 -33 66 -94 66c-87 0 -135 -46 -153 -141zM332 206h-142
c-76 0 -107 -19 -107 -119c0 -29 16 -47 70 -47c48 0 111 18 165 47c-3 19 1 43 5 66zM426 556l-22 39c54 26 85 44 140 81l24 -39c-49 -34 -83 -53 -142 -81z" />
    <glyph glyph-name="Oslashacute" unicode="&#x1fe;" horiz-adv-x="614" 
d="M626 703l-74 -100c19 -27 29 -59 29 -94c0 -11 -2 -26 -4 -39l-50 -280c-21 -118 -86 -200 -267 -200c-60 0 -104 11 -135 30l-59 -80l-31 23l60 81c-25 27 -35 63 -35 103c0 15 1 31 4 47l49 276c26 147 98 206 266 206c64 0 113 -17 147 -44l69 94zM117 150
c0 -23 4 -42 13 -58l365 498c-24 22 -64 35 -123 35c-128 0 -184 -48 -203 -155l-48 -272c-3 -17 -4 -33 -4 -48zM470 190l50 281c3 14 4 30 4 41c0 16 -3 30 -7 43l-360 -491c24 -15 60 -23 112 -23c134 0 184 55 201 149zM366 720l-25 38c41 26 69 45 104 73l29 -39
c-33 -25 -60 -45 -108 -72z" />
    <glyph glyph-name="oslashacute" unicode="&#x1ff;" horiz-adv-x="496" 
d="M481 515l-56 -71c18 -23 27 -51 27 -84c0 -12 -2 -24 -4 -37l-28 -159c-19 -108 -79 -174 -219 -174c-48 0 -83 10 -108 27l-52 -67l-29 22l54 69c-17 23 -25 52 -25 85c0 14 1 29 4 44l26 148c19 107 75 179 219 179c46 0 82 -10 109 -28l53 68zM97 128
c0 -15 2 -28 6 -39l262 337c-18 14 -46 21 -84 21c-92 0 -139 -44 -154 -129l-27 -153c-2 -13 -3 -26 -3 -37zM364 165l28 158c2 12 3 23 3 34c0 15 -2 28 -7 39l-262 -336c18 -13 45 -20 84 -20c90 0 139 42 154 125zM268 556l-22 39c54 26 85 44 140 81l24 -39
c-49 -34 -83 -53 -142 -81z" />
    <glyph glyph-name="Scommaaccent" unicode="&#x218;" horiz-adv-x="531" 
d="M207 -10c-58 0 -128 12 -185 34l14 47c62 -19 125 -30 179 -30c119 0 152 34 168 124c5 26 8 46 8 62c0 46 -28 57 -133 84c-114 30 -150 61 -150 132c0 19 2 42 7 68c23 129 74 165 231 165c41 0 112 -7 166 -22l-10 -48c-55 13 -119 19 -158 19
c-132 0 -156 -26 -172 -115c-5 -27 -8 -47 -8 -64c0 -50 30 -60 126 -87c123 -34 158 -60 158 -125c0 -19 -3 -42 -8 -69c-20 -115 -56 -175 -233 -175zM153 -251l-22 14l53 94h-23l15 86h60l-15 -86z" />
    <glyph glyph-name="scommaaccent" unicode="&#x219;" horiz-adv-x="408" 
d="M164 -10c-44 0 -102 9 -139 25l12 46c40 -13 92 -21 129 -21c82 0 102 11 113 80c8 50 -7 62 -90 106c-94 50 -122 76 -110 154c12 76 46 117 169 117c43 0 98 -8 135 -20l-10 -47c-39 10 -92 17 -128 17c-82 0 -99 -12 -110 -72c-10 -56 8 -67 77 -105
c115 -63 134 -83 121 -159c-14 -84 -42 -121 -169 -121zM108 -251l-22 14l53 94h-23l15 86h60l-15 -86z" />
    <glyph glyph-name="circumflex" unicode="&#x2c6;" horiz-adv-x="383" 
d="M350 546c-43 26 -67 43 -94 64c-40 -27 -65 -40 -105 -64l-21 37c48 28 76 46 131 86c35 -34 65 -56 112 -89z" />
    <glyph glyph-name="caron" unicode="&#x2c7;" horiz-adv-x="383" 
d="M153 664c43 -26 67 -43 94 -64c40 27 65 40 105 64l21 -37c-48 -28 -76 -46 -131 -86c-35 34 -65 56 -112 89z" />
    <glyph glyph-name="breve" unicode="&#x2d8;" horiz-adv-x="382" 
d="M245 545c-55 0 -95 32 -115 70l35 27c17 -32 40 -53 81 -53c43 0 70 21 98 52l28 -28c-28 -37 -63 -68 -127 -68z" />
    <glyph glyph-name="dotaccent" unicode="&#x2d9;" horiz-adv-x="217" 
d="M130 573l19 113l58 8l-20 -113z" />
    <glyph glyph-name="ring" unicode="&#x2da;" horiz-adv-x="271" 
d="M180 540c-36 0 -55 22 -55 52c0 44 27 75 76 75c35 0 55 -22 55 -49c0 -41 -25 -78 -76 -78zM197 640c-22 0 -40 -19 -40 -44c0 -15 5 -28 27 -28c26 0 39 22 39 46c0 16 -8 26 -26 26z" />
    <glyph glyph-name="ogonek" unicode="&#x2db;" horiz-adv-x="318" 
d="M144 -192c-20 -10 -41 -15 -67 -15c-39 0 -72 22 -72 64c0 65 63 113 118 143h55c-66 -40 -124 -82 -124 -135c0 -18 10 -30 36 -30c16 0 31 2 48 8z" />
    <glyph glyph-name="tilde" unicode="&#x2dc;" horiz-adv-x="404" 
d="M318 558c-40 0 -78 35 -107 35c-24 0 -41 -15 -59 -31l-22 24c17 26 47 53 88 53c38 0 68 -35 102 -35c19 0 30 6 50 24l24 -24c-20 -29 -41 -46 -76 -46z" />
    <glyph glyph-name="hungarumlaut" unicode="&#x2dd;" horiz-adv-x="405" 
d="M161 539l-31 31c35 34 61 60 98 106l33 -35c-35 -43 -63 -70 -100 -102zM295 539l-31 31c35 34 61 60 98 106l33 -35c-35 -43 -63 -70 -100 -102z" />
    <glyph glyph-name="Omega" unicode="&#x3a9;" horiz-adv-x="679" 
d="M506 192l49 279c3 14 4 28 4 41c0 71 -43 113 -152 113c-128 0 -184 -48 -203 -155l-49 -278c-1 -7 -3 -16 -3 -28c0 -45 21 -83 63 -113l-8 -51h-173l8 50h97c-32 35 -44 70 -44 106c0 12 2 25 4 37l49 277c26 147 98 206 266 206c136 0 202 -74 202 -167
c0 -11 -2 -26 -4 -39l-50 -283c-11 -64 -41 -102 -85 -137h95l-8 -50h-177l8 51c61 35 100 79 111 141z" />
    <glyph glyph-name="pi" unicode="&#x3c0;" horiz-adv-x="672" 
d="M476 -10c-59 0 -87 20 -87 71c0 10 1 21 3 33l61 343h-192c-19 -128 -47 -274 -111 -437h-60c65 165 92 289 116 437h-131l8 50h564l-8 -50h-130l-61 -343c-2 -9 -2 -22 -2 -24c0 -25 12 -32 39 -32s56 10 75 20l4 -43c-20 -14 -61 -25 -88 -25z" />
    <glyph glyph-name="Wgrave" unicode="&#x1e80;" horiz-adv-x="882" 
d="M647 0h-94l-43 629l-254 -629h-92l-62 666h53l60 -626l256 626h88l46 -626l259 626h58zM526 722c-48 27 -76 47 -109 72l30 39c35 -28 59 -45 104 -73z" />
    <glyph glyph-name="wgrave" unicode="&#x1e81;" horiz-adv-x="672" 
d="M329 483l48 8l91 -457l113 279c15 39 17 69 17 99c0 25 -3 49 -8 71l53 8c4 -24 7 -50 7 -76c0 -37 -4 -71 -19 -112l-123 -303h-86l-60 307l-166 -307h-85c-1 200 -17 353 -48 483l52 8c23 -117 44 -258 44 -457l189 347zM350 556c-47 29 -79 51 -110 79l31 38
c34 -30 61 -49 106 -80z" />
    <glyph glyph-name="Wacute" unicode="&#x1e82;" horiz-adv-x="882" 
d="M647 0h-94l-43 629l-254 -629h-92l-62 666h53l60 -626l256 626h88l46 -626l259 626h58zM524 720l-25 38c41 26 69 45 104 73l29 -39c-33 -25 -60 -45 -108 -72z" />
    <glyph glyph-name="wacute" unicode="&#x1e83;" horiz-adv-x="672" 
d="M329 483l48 8l91 -457l113 279c15 39 17 69 17 99c0 25 -3 49 -8 71l53 8c4 -24 7 -50 7 -76c0 -37 -4 -71 -19 -112l-123 -303h-86l-60 307l-166 -307h-85c-1 200 -17 353 -48 483l52 8c23 -117 44 -258 44 -457l189 347zM350 556l-22 39c54 26 85 44 140 81l24 -39
c-49 -34 -83 -53 -142 -81z" />
    <glyph glyph-name="Wdieresis" unicode="&#x1e84;" horiz-adv-x="882" 
d="M647 0h-94l-43 629l-254 -629h-92l-62 666h53l60 -626l256 626h88l46 -626l259 626h58zM587 734l11 60h64l-11 -60h-64zM413 734l11 60h64l-11 -60h-64z" />
    <glyph glyph-name="wdieresis" unicode="&#x1e85;" horiz-adv-x="672" 
d="M329 483l48 8l91 -457l113 279c15 39 17 69 17 99c0 25 -3 49 -8 71l53 8c4 -24 7 -50 7 -76c0 -37 -4 -71 -19 -112l-123 -303h-86l-60 307l-166 -307h-85c-1 200 -17 353 -48 483l52 8c23 -117 44 -258 44 -457l189 347zM424 568l13 69l60 2l-13 -69zM254 568l13 69
l60 2l-12 -69z" />
    <glyph glyph-name="Ygrave" unicode="&#x1ef2;" horiz-adv-x="523" 
d="M280 198l-35 -198h-57l37 207l-144 459h56l126 -403l261 403h65zM345 722c-48 27 -76 47 -109 72l30 39c35 -28 59 -45 104 -73z" />
    <glyph glyph-name="ygrave" unicode="&#x1ef3;" horiz-adv-x="418" 
d="M222 0c-53 -93 -98 -164 -221 -205l-15 43c80 29 128 70 179 162h-28l-80 483l54 8l73 -454l155 307c16 31 22 56 22 78s-6 41 -12 61l57 8c5 -18 10 -41 10 -67s-5 -54 -18 -82zM258 556c-47 29 -79 51 -110 79l31 38c34 -30 61 -49 106 -80z" />
    <glyph glyph-name="endash" unicode="&#x2013;" horiz-adv-x="472" 
d="M70 256l8 49h344l-8 -49h-344z" />
    <glyph glyph-name="emdash" unicode="&#x2014;" horiz-adv-x="602" 
d="M70 256l8 49h474l-8 -49h-474z" />
    <glyph glyph-name="quoteleft" unicode="&#x2018;" horiz-adv-x="230" 
d="M208 697l22 -14l-53 -94h23l-15 -86h-60l15 86z" />
    <glyph glyph-name="quoteright" unicode="&#x2019;" horiz-adv-x="225" 
d="M142 492l-22 14l53 94h-23l15 86h60l-15 -86z" />
    <glyph glyph-name="quotesinglbase" unicode="&#x201a;" horiz-adv-x="240" 
d="M37 -108l-22 14l53 94h-23l15 86h60l-15 -86z" />
    <glyph glyph-name="quotedblleft" unicode="&#x201c;" horiz-adv-x="385" 
d="M363 697l22 -14l-53 -94h23l-15 -86h-60l15 86zM208 697l22 -14l-53 -94h23l-15 -86h-60l15 86z" />
    <glyph glyph-name="quotedblright" unicode="&#x201d;" horiz-adv-x="380" 
d="M142 492l-22 14l53 94h-23l15 86h60l-15 -86zM297 492l-22 14l53 94h-23l15 86h60l-15 -86z" />
    <glyph glyph-name="quotedblbase" unicode="&#x201e;" horiz-adv-x="395" 
d="M37 -108l-22 14l53 94h-23l15 86h60l-15 -86zM192 -108l-22 14l53 94h-23l15 86h60l-15 -86z" />
    <glyph glyph-name="dagger" unicode="&#x2020;" horiz-adv-x="476" 
d="M298 434l-89 -504h-56l89 504h-164l9 50h164l32 182h56l-32 -182h164l-9 -50h-164z" />
    <glyph glyph-name="daggerdbl" unicode="&#x2021;" horiz-adv-x="486" 
d="M246 112l-32 -182h-56l32 182h-164l9 50h164l48 272h-164l9 50h164l32 182h56l-32 -182h164l-9 -50h-164l-48 -272h164l-9 -50h-164z" />
    <glyph glyph-name="bullet" unicode="&#x2022;" horiz-adv-x="375" 
d="M200 207c-63 0 -115 52 -115 116s52 116 115 116s115 -52 115 -116s-52 -116 -115 -116z" />
    <glyph glyph-name="ellipsis" unicode="&#x2026;" horiz-adv-x="700" 
d="M45 0l15 86h60l-15 -86h-60zM275 0l15 86h60l-15 -86h-60zM505 0l15 86h60l-15 -86h-60z" />
    <glyph glyph-name="perthousand" unicode="&#x2030;" horiz-adv-x="1195" 
d="M590 -10c-85 0 -122 35 -122 96c0 10 1 21 3 32l18 104c16 89 57 131 163 131c79 0 122 -40 122 -106c0 -10 -1 -20 -3 -31l-16 -90c-14 -81 -47 -136 -165 -136zM253 -10l-38 23l388 663l39 -23zM707 126l17 95c2 10 3 19 3 26c0 40 -22 64 -81 64
c-71 0 -99 -32 -109 -88l-18 -103c-2 -11 -3 -21 -3 -29c0 -40 19 -59 81 -59c71 0 99 31 110 94zM204 313c-85 0 -122 35 -122 96c0 10 1 21 3 32l18 104c16 89 57 131 163 131c79 0 122 -40 122 -106c0 -10 -1 -20 -3 -31l-16 -90c-14 -81 -47 -136 -165 -136zM321 449
l17 95c2 10 3 19 3 26c0 40 -22 64 -81 64c-71 0 -99 -32 -109 -88l-18 -103c-2 -11 -3 -21 -3 -29c0 -40 19 -59 81 -59c71 0 99 31 110 94zM949 -10c-85 0 -122 35 -122 96c0 10 1 21 3 32l18 104c16 89 57 131 163 131c79 0 122 -40 122 -106c0 -10 -1 -20 -3 -31
l-16 -90c-14 -81 -47 -136 -165 -136zM1066 126l17 95c2 10 3 19 3 26c0 40 -22 64 -81 64c-71 0 -99 -32 -109 -88l-18 -103c-2 -11 -3 -21 -3 -29c0 -40 19 -59 81 -59c71 0 99 31 110 94z" />
    <glyph glyph-name="guilsinglleft" unicode="&#x2039;" horiz-adv-x="283" 
d="M143 52l-92 192l159 193l41 -36l-137 -162l79 -162z" />
    <glyph glyph-name="guilsinglright" unicode="&#x203a;" horiz-adv-x="283" 
d="M143 442l92 -192l-159 -193l-41 36l137 162l-79 162z" />
    <glyph glyph-name="fraction" unicode="&#x2044;" horiz-adv-x="296" 
d="M-15 -31l-35 21l382 682l34 -19z" />
    <glyph glyph-name="Euro" unicode="&#x20ac;" 
d="M50 387l8 44h91l6 32c24 135 93 193 254 193c41 0 85 -4 131 -16l-10 -49c-34 8 -82 14 -125 14c-125 0 -174 -39 -194 -148l-5 -26h210l-8 -44h-210l-21 -120h209l-8 -44h-209l-7 -39c-3 -17 -4 -33 -4 -47c0 -66 37 -96 147 -96c43 0 84 5 129 14l2 -49
c-45 -11 -97 -16 -145 -16c-137 0 -191 53 -191 143c0 16 2 32 5 50l7 40h-92l8 44h92l21 120h-91z" />
    <glyph glyph-name="uni2113" unicode="&#x2113;" horiz-adv-x="459" 
d="M197 -10c-86 0 -115 37 -115 97c0 14 2 28 5 44l16 90c-24 -14 -49 -29 -75 -43l-21 43c36 20 72 42 107 62l49 277c17 94 57 146 158 146c76 0 115 -47 115 -105c0 -140 -104 -242 -270 -344l-23 -133c-2 -13 -4 -25 -4 -35c0 -33 15 -49 59 -49c59 0 108 27 155 54
l20 -42c-52 -35 -110 -62 -176 -62zM219 557l-41 -234c117 78 202 162 202 273c0 38 -22 60 -62 60c-55 0 -87 -29 -99 -99z" />
    <glyph glyph-name="uni2116" unicode="&#x2116;" horiz-adv-x="948" 
d="M376 0l-172 609l-107 -609h-52l117 666h80l170 -610l108 610h52l-117 -666h-79zM951 545l-21 -120c-14 -81 -56 -128 -164 -128c-84 0 -122 39 -122 102c0 10 1 21 3 32l20 113c15 87 63 132 166 132c77 0 121 -42 121 -102c0 -9 -1 -18 -3 -29zM881 425l21 120
c1 7 2 13 2 21c0 42 -24 65 -79 65c-64 0 -97 -31 -107 -86l-21 -120c-2 -11 -3 -18 -3 -26c0 -38 23 -57 80 -57c61 0 97 25 107 83zM616 194l7 44h264l-7 -44h-264z" />
    <glyph glyph-name="trademark" unicode="&#x2122;" horiz-adv-x="515" 
d="M484 460l-2 148l-47 -123h-40l-46 123l-3 -148h-32l6 206h38l57 -154l58 154h35l7 -206h-31zM174 460v178h-64v28h158v-28h-64v-178h-30z" />
    <glyph glyph-name="estimated" unicode="&#x212e;" horiz-adv-x="804" 
d="M774 301h-572v-201c54 -47 127 -76 215 -76c120 0 203 42 291 130l24 -24c-78 -80 -170 -140 -315 -140c-202 0 -357 152 -357 333c0 183 163 333 357 333s357 -150 357 -333v-22zM417 622c-84 0 -159 -31 -215 -80v-209h430v209c-56 49 -131 80 -215 80z" />
    <glyph glyph-name="partialdiff" unicode="&#x2202;" horiz-adv-x="556" 
d="M429 149c-37 -106 -76 -159 -234 -159c-104 0 -150 35 -150 95c0 19 4 40 13 63l42 120c36 104 77 158 219 158c43 0 95 -13 138 -38l8 22c17 47 26 88 26 121c0 79 -46 115 -144 115c-40 0 -85 -12 -119 -29l-17 44c40 20 92 35 149 35c111 0 181 -55 181 -165
c0 -37 -8 -81 -25 -131zM311 376c-97 0 -127 -28 -153 -102l-46 -127c-8 -22 -12 -41 -12 -55c0 -39 32 -52 113 -52c89 0 128 23 158 106l69 193c-32 22 -86 37 -129 37z" />
    <glyph glyph-name="Delta" unicode="&#x2206;" horiz-adv-x="695" 
d="M10 0l379 666h62l145 -666h-586zM414 616l-316 -568h431z" />
    <glyph glyph-name="product" unicode="&#x220f;" horiz-adv-x="787" 
d="M646 616l-126 -716h-56l126 716h-265l-126 -716h-56l126 716h-150l9 50h677l-9 -50h-150z" />
    <glyph glyph-name="summation" unicode="&#x2211;" horiz-adv-x="546" 
d="M15 -100l9 51l312 332l-195 332l9 51h381l-9 -50h-324l203 -333l-305 -333h309l-9 -50h-381z" />
    <glyph glyph-name="minus" unicode="&#x2212;" horiz-adv-x="390" 
d="M65 220v49h260v-49h-260z" />
    <glyph glyph-name="radical" unicode="&#x221a;" horiz-adv-x="649" 
d="M574 682l-304 -682h-63l-84 458l55 7l68 -392l292 657h198l-7 -48h-155z" />
    <glyph glyph-name="infinity" unicode="&#x221e;" horiz-adv-x="842" 
d="M643 110c-97 0 -154 66 -202 134c-48 -68 -105 -134 -202 -134c-100 0 -164 61 -164 164s64 166 164 166c97 0 154 -67 202 -135c48 68 105 135 202 135c100 0 164 -63 164 -166s-64 -164 -164 -164zM642 394c-80 0 -129 -62 -166 -120c41 -60 86 -118 166 -118
c68 0 116 40 116 118s-48 120 -116 120zM240 394c-68 0 -116 -42 -116 -120s48 -118 116 -118c80 0 125 58 166 118c-37 58 -86 120 -166 120z" />
    <glyph glyph-name="integral" unicode="&#x222b;" horiz-adv-x="386" 
d="M379 618c-17 5 -43 10 -64 10c-34 0 -46 -17 -51 -46l-124 -703c-12 -66 -30 -86 -101 -86c-29 0 -63 9 -80 17l12 43c22 -8 44 -12 65 -12c40 0 44 13 49 42l123 699c11 62 30 94 106 94c27 0 59 -7 77 -15z" />
    <glyph glyph-name="approxequal" unicode="&#x2248;" horiz-adv-x="512" 
d="M350 251c-37 0 -60 10 -89 28c-25 15 -51 30 -84 30c-32 0 -56 -11 -81 -27l-21 37c26 22 64 40 102 40s62 -11 94 -30c24 -14 52 -27 79 -27c32 0 56 10 81 26l21 -37c-25 -21 -63 -40 -102 -40zM350 120c-37 0 -60 10 -89 28c-25 15 -51 29 -84 29
c-32 0 -56 -10 -81 -26l-21 37c26 22 64 40 102 40s62 -11 94 -30c24 -14 52 -28 79 -28c32 0 56 11 81 27l21 -37c-25 -21 -63 -40 -102 -40z" />
    <glyph glyph-name="notequal" unicode="&#x2260;" horiz-adv-x="472" 
d="M217 138l-57 -114l-39 21l48 93h-99v45h122l66 127h-188v45h211l57 114l39 -21l-48 -93h88v-45h-111l-66 -127h177v-45h-200z" />
    <glyph glyph-name="lessequal" unicode="&#x2264;" horiz-adv-x="547" 
d="M424 135l-341 167v45l341 167l22 -47l-299 -143l299 -143zM75 0v50h392v-50h-392z" />
    <glyph glyph-name="greaterequal" unicode="&#x2265;" horiz-adv-x="547" 
d="M123 135l-22 46l299 143l-299 143l22 47l341 -167v-45zM80 0v50h392v-50h-392z" />
    <glyph glyph-name="lozenge" unicode="&#x25ca;" horiz-adv-x="600" 
d="M340 0h-30l-235 333l235 333h30l235 -333zM325 605l-190 -272l190 -272l189 272z" />
    <glyph glyph-name="apple" unicode="&#xf8ff;" horiz-adv-x="824" 
d="M456 334v-334h-331v666h664v-332h-333z" />
    <glyph glyph-name="Acute" horiz-adv-x="278" 
d="M190 720l-25 38c41 26 69 45 104 73l29 -39c-33 -25 -60 -45 -108 -72z" />
    <glyph glyph-name="Breve" horiz-adv-x="379" 
d="M277 719c-59 0 -92 30 -112 64l35 27c16 -27 37 -47 78 -47c40 0 65 16 93 47l28 -28c-26 -37 -64 -63 -122 -63z" />
    <glyph glyph-name="Caron" horiz-adv-x="366" 
d="M171 831c45 -24 60 -33 93 -54c37 21 67 37 98 54l19 -38c-40 -22 -75 -43 -122 -73c-36 26 -61 44 -109 76z" />
    <glyph glyph-name="Cedilla" horiz-adv-x="309" 
d="M80 -207c-28 0 -53 5 -75 14l11 35c18 -6 40 -11 63 -11c43 0 65 15 65 43c0 16 -15 26 -43 26c-13 0 -33 -1 -45 -3l-6 14l30 89h40l-23 -71c10 2 22 3 30 3c36 0 62 -19 62 -53c0 -54 -39 -86 -109 -86z" />
    <glyph glyph-name="Circumflex" horiz-adv-x="371" 
d="M365 722c-45 24 -60 33 -93 54c-37 -21 -67 -37 -98 -54l-19 38c40 22 75 43 122 73c36 -26 61 -44 109 -76z" />
    <glyph glyph-name="commaaccent" horiz-adv-x="325" 
d="M72 -251l-22 14l53 94h-23l15 86h60l-15 -86z" />
    <glyph glyph-name="Dieresis" horiz-adv-x="384" 
d="M319 734l11 60h64l-11 -60h-64zM145 734l11 60h64l-11 -60h-64z" />
    <glyph glyph-name="Dotaccent" horiz-adv-x="212" 
d="M155 726l19 113l58 8l-20 -113z" />
    <glyph glyph-name="Grave" horiz-adv-x="289" 
d="M254 722c-48 27 -76 47 -109 72l30 39c35 -28 59 -45 104 -73z" />
    <glyph glyph-name="Hungarumlaut" horiz-adv-x="393" 
d="M193 718l-28 33c35 28 61 53 89 81l31 -37c-36 -34 -57 -52 -92 -77zM336 718l-28 33c35 28 61 53 89 81l31 -37c-36 -34 -57 -52 -92 -77z" />
    <glyph glyph-name="Macron" horiz-adv-x="377" 
d="M155 740l8 44h234l-8 -44h-234z" />
    <glyph glyph-name="Ogonek" horiz-adv-x="318" 
d="M144 -192c-20 -10 -41 -15 -67 -15c-39 0 -72 22 -72 64c0 65 63 113 118 143h55c-66 -40 -124 -82 -124 -135c0 -18 10 -30 36 -30c16 0 31 2 48 8z" />
    <glyph glyph-name="Ring" horiz-adv-x="262" 
d="M208 713c-34 0 -53 20 -53 50c0 44 27 73 74 73c35 0 53 -21 53 -47c0 -41 -22 -76 -74 -76zM225 809c-22 0 -38 -17 -38 -42c0 -15 6 -26 25 -26c26 0 37 20 37 44c0 16 -6 24 -24 24z" />
    <glyph glyph-name="Tilde" horiz-adv-x="389" 
d="M323 728c-40 0 -78 35 -107 35c-24 0 -41 -15 -59 -31l-22 24c17 26 47 53 88 53c38 0 68 -35 102 -35c19 0 30 6 50 24l24 -24c-20 -29 -41 -46 -76 -46z" />
    <glyph glyph-name="ampersand.salt" horiz-adv-x="597" 
d="M480 310l-52 -292c-49 -17 -127 -28 -189 -28c-126 0 -184 32 -184 114c0 11 2 24 4 38l14 79c11 64 52 103 115 116c-46 18 -62 47 -62 86c0 9 1 20 3 30l14 80c19 108 66 143 212 143c49 0 120 -8 167 -22l-10 -48c-62 14 -115 20 -168 20c-96 0 -132 -19 -145 -93
l-15 -85c-1 -7 -2 -14 -2 -20c0 -44 30 -68 91 -68h314l-9 -50h-98zM426 310h-151c-77 0 -135 -28 -149 -105l-10 -57c-2 -13 -4 -25 -4 -35c0 -58 35 -74 133 -74c45 0 92 5 136 16z" />
    <glyph glyph-name="minus.onum" horiz-adv-x="390" 
d="M65 220v49h260v-49h-260z" />
    <glyph glyph-name="multiply.onum" horiz-adv-x="541" 
d="M431 50l-158 158l-158 -158l-35 35l157 159l-157 159l35 35l158 -158l158 158l35 -35l-157 -159l157 -159z" />
    <glyph glyph-name="numbersign.onum" horiz-adv-x="635" 
d="M548 124h-120l-27 -124h-49l27 124h-185l-27 -124h-49l27 124h-112l11 46h112l39 173h-112l10 46h111l28 121h49l-28 -121h185l28 121h49l-28 -121h122l-10 -46h-121l-39 -173h120zM244 343l-39 -173h185l39 173h-185z" />
    <glyph glyph-name="dollar.onum" horiz-adv-x="467" 
d="M135 -96l14 87c-45 4 -95 15 -131 31l12 45c47 -15 107 -27 157 -27c90 0 117 20 128 80c13 73 10 77 -99 114c-132 45 -140 65 -123 163c15 85 48 118 166 122l16 87h54l-16 -87c40 -1 80 -7 113 -16l-10 -48c-45 10 -100 15 -134 15c-103 0 -123 -13 -136 -85
c-11 -65 -6 -69 87 -101c140 -49 155 -70 138 -164c-16 -88 -52 -125 -168 -129l-14 -87h-54z" />
    <glyph glyph-name="percent.onum" horiz-adv-x="728" 
d="M186 15l321 505l37 -25l-320 -505zM320 338c-12 -67 -43 -107 -144 -107c-77 0 -108 30 -108 81c0 10 1 17 2 26l13 78c11 67 46 104 143 104c69 0 109 -31 109 -85c0 -10 -1 -15 -2 -22zM129 414l-13 -77c-2 -11 -3 -21 -3 -25c0 -25 14 -40 70 -40c64 0 84 24 91 65
l13 77c1 7 2 14 2 20c0 29 -17 45 -69 45c-64 0 -84 -23 -91 -65zM650 97c-12 -67 -43 -107 -144 -107c-77 0 -108 30 -108 81c0 10 1 17 2 26l13 78c11 67 46 104 143 104c69 0 109 -31 109 -85c0 -10 -1 -15 -2 -22zM459 173l-13 -77c-2 -11 -3 -21 -3 -25
c0 -25 14 -40 70 -40c64 0 84 24 91 65l13 77c1 7 2 14 2 20c0 29 -17 45 -69 45c-64 0 -84 -23 -91 -65z" />
    <glyph glyph-name="plus.onum" horiz-adv-x="537" 
d="M294 218v-179h-54v179h-175v50h175v179h54v-179h175v-50h-175z" />
    <glyph glyph-name="zero.onum" horiz-adv-x="558" 
d="M232 -10c-125 0 -173 51 -173 128c0 16 2 27 4 41l34 192c22 121 82 169 228 169c120 0 172 -59 172 -138c0 -11 -1 -23 -3 -35l-33 -188c-18 -102 -62 -169 -229 -169zM406 164l32 182c2 13 4 25 4 36c0 58 -34 88 -126 88c-109 0 -149 -41 -164 -124l-32 -181
c-2 -14 -4 -27 -4 -39c0 -59 34 -86 125 -86c109 0 150 37 165 124z" />
    <glyph glyph-name="one.onum" horiz-adv-x="341" 
d="M140 0l78 443l-147 -76l-22 46l185 97h52l-90 -510h-56z" />
    <glyph glyph-name="two.onum" horiz-adv-x="487" 
d="M20 0l8 51c97 74 125 98 200 156c102 78 131 106 138 145l2 11c3 16 4 29 4 41c0 47 -26 66 -122 66c-55 0 -93 -9 -136 -21l-11 45c35 12 96 26 162 26c108 0 164 -36 164 -111c0 -14 -2 -29 -5 -45l-2 -11c-10 -57 -21 -74 -148 -176c-66 -53 -89 -71 -166 -127h269
l-8 -50h-349z" />
    <glyph glyph-name="three.onum" horiz-adv-x="488" 
d="M162 -146c-53 0 -117 10 -167 30l13 46c48 -16 101 -26 157 -26c109 0 137 31 150 108l8 46c1 6 2 13 2 25c0 53 -35 81 -108 81h-129l9 50h133c70 0 111 35 120 87l14 80c1 6 2 12 2 22c0 49 -39 67 -114 67c-45 0 -100 -9 -141 -18l-8 48c48 12 106 20 156 20
c112 0 164 -44 164 -112c0 -9 -1 -18 -3 -28l-13 -74c-11 -66 -34 -93 -98 -117c45 -10 72 -50 72 -103c0 -14 -1 -20 -2 -28l-8 -47c-18 -105 -50 -157 -209 -157z" />
    <glyph glyph-name="four.onum" horiz-adv-x="538" 
d="M382 52l-33 -188h-56l33 188h-314l8 60l363 398h80l-73 -410h99l-9 -48h-98zM397 453l-320 -353h257z" />
    <glyph glyph-name="five.onum" horiz-adv-x="482" 
d="M170 -146c-49 0 -114 9 -162 26l13 46c48 -13 101 -22 147 -22c112 0 140 29 155 114l7 39c2 11 3 22 3 31c0 56 -41 72 -110 76c-49 3 -88 5 -143 8l60 338h319l-6 -50h-265l-43 -242c35 -2 48 -3 94 -6c98 -6 151 -50 151 -121c0 -9 -1 -18 -3 -28l-10 -56
c-18 -102 -60 -153 -207 -153z" />
    <glyph glyph-name="six.onum" horiz-adv-x="522" 
d="M227 -10c-118 0 -164 49 -164 122c0 12 1 24 3 36l50 283c29 165 89 225 279 225c31 0 66 -3 102 -12l-9 -47c-29 6 -63 9 -88 9c-167 0 -205 -43 -228 -176l-17 -101c46 15 100 25 149 25c109 0 148 -38 148 -107c0 -15 -2 -31 -5 -48l-10 -51
c-20 -101 -54 -158 -210 -158zM381 146l11 58c2 13 4 24 4 35c0 45 -25 65 -103 65c-48 0 -104 -13 -148 -30l-23 -127c-2 -13 -3 -21 -3 -29c0 -61 43 -78 117 -78c94 0 131 30 145 106z" />
    <glyph glyph-name="seven.onum" horiz-adv-x="433" 
d="M52 -136l-40 27l366 571h-323l8 48h379l-5 -46z" />
    <glyph glyph-name="eight.onum" horiz-adv-x="551" 
d="M233 -10c-123 0 -179 35 -179 113c0 12 2 25 4 39l4 22c15 83 54 130 167 166c-62 38 -94 84 -94 135c0 8 1 15 2 22l2 14c19 105 75 155 211 155c104 0 160 -51 160 -123c0 -7 -1 -17 -3 -28l-3 -18c-11 -66 -47 -116 -152 -158c77 -35 115 -74 115 -134
c0 -10 -1 -19 -3 -31l-4 -22c-19 -106 -68 -152 -227 -152zM447 483l5 27c1 7 2 15 2 22c0 47 -33 74 -113 74c-96 0 -135 -38 -145 -99l-4 -24c-1 -9 -1 -14 -1 -17c0 -43 34 -79 105 -112c92 39 140 71 151 129zM405 146l4 22c2 11 3 22 3 27c0 48 -35 68 -124 108
c-119 -44 -158 -70 -169 -133l-5 -28c-2 -11 -3 -21 -3 -30c0 -56 38 -72 131 -72c106 0 149 26 163 106z" />
    <glyph glyph-name="nine.onum" horiz-adv-x="522" 
d="M295 520c118 0 164 -49 164 -122c0 -12 -1 -24 -3 -36l-50 -283c-29 -165 -85 -225 -279 -225c-31 0 -66 3 -102 12l9 47c29 -6 63 -9 88 -9c171 0 205 43 228 176l17 101c-46 -15 -100 -25 -149 -25c-109 0 -148 38 -148 107c0 15 2 31 5 48l10 51
c20 101 54 158 210 158zM141 364l-11 -58c-2 -13 -4 -24 -4 -35c0 -45 25 -65 103 -65c48 0 104 13 148 30l23 127c2 13 3 21 3 29c0 61 -43 78 -117 78c-94 0 -131 -30 -145 -106z" />
    <glyph glyph-name="less.onum" horiz-adv-x="549" 
d="M449 -10l-399 233v42l397 232l24 -41l-366 -212l368 -213z" />
    <glyph glyph-name="equal.onum" horiz-adv-x="472" 
d="M70 311v45h347v-45h-347zM70 137v45h347v-45h-347z" />
    <glyph glyph-name="greater.onum" horiz-adv-x="549" 
d="M105 -10l-24 41l368 213l-366 212l24 41l397 -232v-42z" />
    <glyph glyph-name="cent.onum" horiz-adv-x="446" 
d="M156 -83l16 90c-72 0 -121 34 -121 100c0 9 1 20 3 30l30 170c22 121 67 172 172 179l16 91h54l-16 -91c33 -3 71 -11 95 -19l-12 -47c-38 11 -81 17 -115 17c-89 0 -121 -32 -140 -140l-29 -167c-1 -8 -2 -15 -2 -22c0 -38 24 -51 72 -51s102 11 158 34l9 -47
c-32 -16 -78 -30 -120 -34l-16 -93h-54z" />
    <glyph glyph-name="sterling.onum" horiz-adv-x="499" 
d="M66 234l9 47h83c-15 31 -23 58 -24 88c0 104 51 151 195 151c41 0 97 -7 138 -20l-10 -46c-36 9 -98 16 -135 16c-95 0 -130 -29 -130 -90c0 -39 13 -67 29 -99h197l-8 -47h-174c2 -7 4 -18 4 -28c0 -58 -32 -110 -100 -156h272l-9 -50h-360l8 48c57 31 133 89 133 158
c0 9 -2 20 -6 28h-112z" />
    <glyph glyph-name="section.onum" horiz-adv-x="502" 
d="M230 14l-44 -24c-68 97 -98 203 -98 311c0 36 3 72 10 109c14 80 48 110 145 110c41 0 97 -8 137 -22l-11 -45c-45 11 -97 19 -131 19c-56 0 -77 -16 -85 -66c-6 -38 -9 -73 -9 -107c0 -97 26 -182 86 -285zM285 326l44 24c68 -97 98 -203 98 -311c0 -36 -3 -72 -10 -109
c-14 -80 -48 -110 -145 -110c-41 0 -97 8 -137 22l11 45c45 -11 97 -19 131 -19c56 0 77 16 85 66c6 38 9 73 9 107c0 97 -26 182 -86 285z" />
    <glyph glyph-name="yen.onum" horiz-adv-x="505" 
d="M59 209l8 42h105l-99 259h59l111 -302l212 302h65l-188 -259h104l-8 -42h-127l-38 -53l-7 -35h157l-8 -42h-156l-14 -79h-56l14 79h-157l8 42h156l7 38l-19 50h-129z" />
    <glyph glyph-name="florin.onum" horiz-adv-x="452" 
d="M441 459c-21 7 -52 13 -74 13c-56 0 -76 -9 -91 -66l-38 -147h140l-12 -46h-142l-77 -303c-21 -79 -42 -107 -121 -107c-27 0 -59 8 -82 19l13 43c18 -7 44 -14 65 -14c49 0 58 15 70 65l76 297h-91l14 46h91l41 156c19 72 49 105 140 105c28 0 61 -6 90 -17z" />
    <glyph glyph-name="endash.onum" horiz-adv-x="472" 
d="M70 256l8 49h344l-8 -49h-344z" />
    <glyph glyph-name="divide.onum" horiz-adv-x="534" 
d="M237 368v74h60v-74h-60zM65 218v50h404v-50h-404zM237 44v74h60v-74h-60z" />
    <glyph glyph-name="Euro.onum" horiz-adv-x="526" 
d="M64 307l7 40h80l4 22c19 107 57 151 209 151c48 0 100 -9 138 -21l-12 -47c-43 11 -91 18 -134 18c-105 0 -131 -21 -145 -102l-4 -21h223l-7 -40h-223l-17 -97h223l-8 -40h-222l-5 -30c-15 -81 13 -100 123 -100c36 0 80 5 123 13l1 -47c-38 -10 -93 -16 -134 -16
c-142 0 -187 50 -169 151l5 29h-81l8 40h80l17 97h-80z" />
    <glyph glyph-name="perthousand.onum" horiz-adv-x="1053" 
d="M186 15l321 505l37 -25l-320 -505zM320 338c-12 -67 -43 -107 -144 -107c-77 0 -108 30 -108 81c0 10 1 17 2 26l13 78c11 67 46 104 143 104c69 0 109 -31 109 -85c0 -10 -1 -15 -2 -22zM129 414l-13 -77c-2 -11 -3 -21 -3 -25c0 -25 14 -40 70 -40c64 0 84 24 91 65
l13 77c1 7 2 14 2 20c0 29 -17 45 -69 45c-64 0 -84 -23 -91 -65zM650 97c-12 -67 -43 -107 -144 -107c-77 0 -108 30 -108 81c0 10 1 17 2 26l13 78c11 67 46 104 143 104c69 0 109 -31 109 -85c0 -10 -1 -15 -2 -22zM459 173l-13 -77c-2 -11 -3 -21 -3 -25
c0 -25 14 -40 70 -40c64 0 84 24 91 65l13 77c1 7 2 14 2 20c0 29 -17 45 -69 45c-64 0 -84 -23 -91 -65zM975 97c-12 -67 -43 -107 -144 -107c-77 0 -108 30 -108 81c0 10 1 17 2 26l13 78c11 67 46 104 143 104c69 0 109 -31 109 -85c0 -10 -1 -15 -2 -22zM784 173
l-13 -77c-2 -11 -3 -21 -3 -25c0 -25 14 -40 70 -40c64 0 84 24 91 65l13 77c1 7 2 14 2 20c0 29 -17 45 -69 45c-64 0 -84 -23 -91 -65z" />
    <glyph glyph-name="minus.tnum" 
d="M147 220v49h260v-49h-260z" />
    <glyph glyph-name="multiply.tnum" 
d="M436 50l-158 158l-158 -158l-35 35l157 159l-157 159l35 35l158 -158l158 158l35 -35l-157 -159l157 -159z" />
    <glyph glyph-name="numbersign.tnum" 
d="M526 436h-86l-47 -211h86l-11 -45h-86l-40 -180h-49l40 180h-170l-40 -180h-49l40 180h-86l11 45h86l47 211h-86l11 45h86l38 165h49l-38 -165h170l38 165h49l-38 -165h86zM221 436l-47 -211h170l47 211h-170z" />
    <glyph glyph-name="dollar.tnum" 
d="M180 -109l18 100c-48 2 -97 10 -147 29l13 46c58 -16 116 -26 162 -26c111 0 135 23 151 113c5 27 8 48 8 64c0 45 -22 56 -115 86c-107 35 -135 59 -135 120c0 20 4 45 9 75c22 122 57 155 191 158l18 99h54l-18 -100c37 -2 78 -9 116 -19l-9 -47c-46 11 -95 17 -141 17
c-132 0 -139 -24 -155 -112c-5 -29 -9 -50 -9 -66c0 -40 21 -49 110 -80c111 -38 140 -59 140 -124c0 -19 -3 -42 -8 -70c-21 -112 -41 -156 -181 -163l-18 -100h-54z" />
    <glyph glyph-name="percent.tnum" horiz-adv-x="836" 
d="M590 -10c-85 0 -122 35 -122 96c0 10 1 21 3 32l18 104c16 89 57 131 163 131c79 0 122 -40 122 -106c0 -10 -1 -20 -3 -31l-16 -90c-14 -81 -47 -136 -165 -136zM253 -10l-38 23l388 663l39 -23zM707 126l17 95c2 10 3 19 3 26c0 40 -22 64 -81 64
c-71 0 -99 -32 -109 -88l-18 -103c-2 -11 -3 -21 -3 -29c0 -40 19 -59 81 -59c71 0 99 31 110 94zM204 313c-85 0 -122 35 -122 96c0 10 1 21 3 32l18 104c16 89 57 131 163 131c79 0 122 -40 122 -106c0 -10 -1 -20 -3 -31l-16 -90c-14 -81 -47 -136 -165 -136zM321 449
l17 95c2 10 3 19 3 26c0 40 -22 64 -81 64c-71 0 -99 -32 -109 -88l-18 -103c-2 -11 -3 -21 -3 -29c0 -40 19 -59 81 -59c71 0 99 31 110 94z" />
    <glyph glyph-name="plus.tnum" 
d="M296 218v-179h-54v179h-175v50h175v179h54v-179h175v-50h-175z" />
    <glyph glyph-name="zero.tnum" 
d="M216 -10c-122 0 -173 51 -173 130c0 12 2 25 4 39l58 329c22 124 85 168 228 168c113 0 172 -56 172 -141c0 -12 -2 -25 -4 -38l-55 -313c-20 -112 -64 -174 -230 -174zM390 165l55 312c3 14 4 27 4 38c0 59 -34 91 -125 91c-109 0 -149 -38 -164 -124l-57 -322
c-3 -16 -4 -26 -4 -38c0 -56 34 -82 126 -82c109 0 150 41 165 125z" />
    <glyph glyph-name="one.tnum" 
d="M51 0l8 49h165l94 530l-167 -77l-22 46l205 98h52l-106 -597h172l-8 -49h-393z" />
    <glyph glyph-name="two.tnum" 
d="M38 0l8 51c105 107 131 135 221 230c97 102 137 142 147 196l4 22c3 15 4 28 4 40c0 45 -25 67 -121 67c-47 0 -115 -14 -152 -25l-7 46c50 16 110 29 174 29c110 0 162 -42 162 -117c0 -11 -1 -22 -3 -34l-5 -28c-13 -73 -43 -103 -161 -228
c-80 -85 -107 -112 -192 -199h283l-8 -50h-354z" />
    <glyph glyph-name="three.tnum" 
d="M207 -10c-53 0 -117 10 -167 30l13 47c41 -14 101 -27 157 -27c109 0 137 31 150 108l8 46c1 6 2 13 2 25c0 53 -35 81 -108 81h-129l9 50h133c70 0 111 35 120 87l14 80c1 6 2 12 2 22c0 49 -39 67 -114 67c-45 0 -100 -9 -141 -18l-8 48c48 12 106 20 156 20
c112 0 164 -44 164 -112c0 -9 -1 -18 -3 -28l-13 -74c-11 -66 -34 -93 -98 -117c45 -10 72 -50 72 -103c0 -14 -1 -20 -2 -28l-8 -47c-18 -105 -50 -157 -209 -157z" />
    <glyph glyph-name="four.tnum" 
d="M386 175l-31 -175h-56l31 175h-299l8 60l350 411h80l-75 -423h93l-9 -48h-92zM403 589l-307 -366h242z" />
    <glyph glyph-name="five.tnum" 
d="M207 -10c-44 0 -107 9 -157 26l13 47c49 -13 99 -23 153 -23c106 0 140 29 155 114l8 44c2 12 4 25 4 36c0 51 -30 73 -105 74c-15 0 -142 2 -156 2l59 336h326l-8 -50h-271l-41 -236c43 -1 55 -1 108 -2c100 -2 144 -49 144 -120c0 -11 -1 -22 -3 -34l-9 -52
c-19 -108 -58 -162 -220 -162z" />
    <glyph glyph-name="six.tnum" 
d="M231 -10c-118 0 -164 49 -164 122c0 12 1 24 3 36l50 283c29 165 89 225 279 225c31 0 71 -4 104 -14l-11 -47c-24 6 -63 11 -88 11c-168 0 -204 -43 -228 -176l-17 -96c46 15 100 25 149 25c109 0 148 -38 148 -107c0 -15 -2 -31 -5 -48l-10 -56
c-18 -102 -58 -158 -210 -158zM385 146l11 63c2 13 4 24 4 35c0 45 -25 65 -103 65c-48 0 -104 -13 -148 -30l-23 -132c-2 -12 -2 -20 -2 -28c0 -61 42 -79 116 -79c94 0 132 30 145 106z" />
    <glyph glyph-name="seven.tnum" 
d="M143 0h-59l385 598h-333l8 48h392l-8 -46z" />
    <glyph glyph-name="eight.tnum" 
d="M229 -10c-123 0 -179 35 -179 113c0 12 2 25 4 39l4 22c15 83 54 130 167 166c-62 38 -94 84 -94 135c0 8 1 15 2 22l2 14c19 105 75 155 211 155c104 0 160 -51 160 -123c0 -7 -1 -17 -3 -28l-3 -18c-11 -66 -47 -116 -152 -158c77 -35 115 -74 115 -134
c0 -10 -1 -19 -3 -31l-4 -22c-19 -106 -68 -152 -227 -152zM443 483l5 27c1 7 2 15 2 22c0 47 -33 74 -113 74c-96 0 -135 -38 -145 -99l-4 -24c-1 -9 -1 -14 -1 -17c0 -43 34 -79 105 -112c92 39 140 71 151 129zM401 146l4 22c2 11 3 22 3 27c0 48 -35 68 -124 108
c-119 -44 -158 -70 -169 -133l-5 -28c-2 -11 -3 -21 -3 -30c0 -56 38 -72 131 -72c106 0 149 26 163 106z" />
    <glyph glyph-name="nine.tnum" 
d="M325 656c114 0 164 -51 164 -125c0 -10 -1 -21 -3 -33l-50 -283c-29 -165 -80 -225 -279 -225c-31 0 -71 4 -104 14l11 47c24 -6 63 -11 88 -11c171 0 205 43 228 176l17 96c-46 -15 -100 -25 -149 -25c-109 0 -148 38 -148 108c0 14 2 30 5 47l10 56
c18 102 58 158 210 158zM171 500l-11 -63c-2 -13 -3 -24 -3 -34c0 -46 25 -66 102 -66c48 0 104 13 148 30l23 132c2 10 3 20 3 29c0 60 -42 78 -117 78c-93 0 -132 -30 -145 -106z" />
    <glyph glyph-name="less.tnum" 
d="M443 -10l-399 233v42l397 232l24 -41l-366 -212l368 -213z" />
    <glyph glyph-name="equal.tnum" 
d="M104 311v45h347v-45h-347zM104 137v45h347v-45h-347z" />
    <glyph glyph-name="greater.tnum" 
d="M99 -10l-24 41l368 213l-366 212l24 41l397 -232v-42z" />
    <glyph glyph-name="cent.tnum" 
d="M203 -10l16 90c-72 0 -121 34 -121 100c0 9 1 20 3 30l35 197c22 121 67 172 172 179l16 91h54l-16 -91c33 -3 71 -11 95 -19l-12 -47c-38 11 -81 17 -115 17c-89 0 -121 -32 -140 -140l-34 -194c-1 -8 -2 -15 -2 -22c0 -38 24 -51 72 -51s102 11 158 34l9 -47
c-32 -16 -78 -30 -120 -34l-16 -93h-54z" />
    <glyph glyph-name="sterling.tnum" 
d="M54 0l8 51c83 61 151 140 151 222c0 12 -1 23 -4 35h-117l6 48h97c-21 42 -30 91 -30 130c0 109 54 170 203 170c46 0 111 -10 145 -22l-11 -46c-35 10 -90 18 -131 18c-113 0 -150 -34 -150 -121c0 -40 11 -85 32 -129h196l-8 -48h-175c2 -11 3 -23 3 -34
c0 -82 -53 -158 -130 -224h295l-8 -50h-372z" />
    <glyph glyph-name="section.tnum" 
d="M399 605c-41 12 -94 23 -129 23c-58 0 -75 -15 -84 -65c-6 -35 -9 -73 -9 -114c0 -131 24 -282 62 -438l-53 -11c-38 146 -64 312 -64 453c0 41 2 80 8 114c14 79 44 109 145 109c41 0 97 -12 135 -27zM169 -115c41 -12 94 -23 129 -23c58 0 75 15 84 65c6 35 9 73 9 114
c0 131 -24 282 -62 438l53 11c38 -146 64 -312 64 -453c0 -41 -2 -80 -8 -114c-14 -79 -44 -109 -145 -109c-41 0 -97 12 -135 27z" />
    <glyph glyph-name="yen.tnum" 
d="M85 311l8 45h105l-72 290h56l91 -383l219 383h65l-173 -290h98l-8 -45h-117l-67 -113l-3 -14h165l-8 -44h-165l-24 -140h-57l25 140h-168l8 44h168l4 23l-26 104h-124z" />
    <glyph glyph-name="florin.tnum" 
d="M514 647c-24 7 -52 11 -74 11c-56 0 -76 -9 -91 -66l-43 -166h140l-20 -48h-134l-122 -468c-21 -79 -42 -107 -121 -107c-27 0 -59 8 -82 19l13 43c18 -7 44 -14 65 -14c49 0 58 15 70 65l121 462h-91l14 48h91l46 175c19 72 49 105 140 105c28 0 65 -6 90 -15z" />
    <glyph glyph-name="endash.tnum" 
d="M102 256l8 49h344l-8 -49h-344z" />
    <glyph glyph-name="divide.tnum" 
d="M239 368v74h60v-74h-60zM67 218v50h404v-50h-404zM239 44v74h60v-74h-60z" />
    <glyph glyph-name="Euro.tnum" 
d="M77 387l8 44h81l6 32c24 135 85 193 246 193c34 0 74 -2 118 -13l-9 -49c-35 7 -80 11 -113 11c-125 0 -166 -39 -186 -148l-5 -26h230l-8 -44h-230l-21 -120h229l-8 -44h-229l-7 -39c-3 -17 -5 -32 -5 -47c0 -66 27 -96 148 -96c34 0 64 3 109 12l2 -49
c-37 -11 -86 -14 -125 -14c-137 0 -191 53 -191 143c0 16 2 32 5 50l7 40h-82l8 44h82l21 120h-81z" />
    <glyph glyph-name="perthousand.tnum" horiz-adv-x="1195" 
d="M590 -10c-85 0 -122 35 -122 96c0 10 1 21 3 32l18 104c16 89 57 131 163 131c79 0 122 -40 122 -106c0 -10 -1 -20 -3 -31l-16 -90c-14 -81 -47 -136 -165 -136zM253 -10l-38 23l388 663l39 -23zM707 126l17 95c2 10 3 19 3 26c0 40 -22 64 -81 64
c-71 0 -99 -32 -109 -88l-18 -103c-2 -11 -3 -21 -3 -29c0 -40 19 -59 81 -59c71 0 99 31 110 94zM204 313c-85 0 -122 35 -122 96c0 10 1 21 3 32l18 104c16 89 57 131 163 131c79 0 122 -40 122 -106c0 -10 -1 -20 -3 -31l-16 -90c-14 -81 -47 -136 -165 -136zM321 449
l17 95c2 10 3 19 3 26c0 40 -22 64 -81 64c-71 0 -99 -32 -109 -88l-18 -103c-2 -11 -3 -21 -3 -29c0 -40 19 -59 81 -59c71 0 99 31 110 94zM949 -10c-85 0 -122 35 -122 96c0 10 1 21 3 32l18 104c16 89 57 131 163 131c79 0 122 -40 122 -106c0 -10 -1 -20 -3 -31
l-16 -90c-14 -81 -47 -136 -165 -136zM1066 126l17 95c2 10 3 19 3 26c0 40 -22 64 -81 64c-71 0 -99 -32 -109 -88l-18 -103c-2 -11 -3 -21 -3 -29c0 -40 19 -59 81 -59c71 0 99 31 110 94z" />
    <glyph glyph-name="minusonum.tnum" 
d="M132 220v49h260v-49h-260z" />
    <glyph glyph-name="multiplyonum.tnum" 
d="M421 50l-158 158l-158 -158l-35 35l157 159l-157 159l35 35l158 -158l158 158l35 -35l-157 -159l157 -159z" />
    <glyph glyph-name="numbersignonum.tnum" 
d="M441 124h-80l-27 -124h-47l27 124h-159l-27 -124h-47l27 124h-77l11 45h77l39 175h-77l10 45h76l28 121h47l-28 -121h159l28 121h47l-28 -121h82l-10 -45h-81l-39 -175h80zM205 344l-39 -175h159l39 175h-159z" />
    <glyph glyph-name="dollaronum.tnum" 
d="M168 -96l14 87c-45 4 -95 15 -131 31l12 45c47 -15 107 -27 157 -27c90 0 117 20 128 80c13 73 10 77 -99 114c-132 45 -140 65 -123 163c15 85 48 118 166 122l16 87h54l-16 -87c40 -1 80 -7 113 -16l-10 -48c-45 10 -100 15 -134 15c-103 0 -123 -13 -136 -85
c-11 -65 -6 -69 87 -101c140 -49 155 -70 138 -164c-16 -88 -52 -125 -168 -129l-14 -87h-54z" />
    <glyph glyph-name="percentonum.tnum" horiz-adv-x="728" 
d="M186 15l321 505l37 -25l-320 -505zM320 338c-12 -67 -43 -107 -144 -107c-77 0 -108 30 -108 81c0 10 1 17 2 26l13 78c11 67 46 104 143 104c69 0 109 -31 109 -85c0 -10 -1 -15 -2 -22zM129 414l-13 -77c-2 -11 -3 -21 -3 -25c0 -25 14 -40 70 -40c64 0 84 24 91 65
l13 77c1 7 2 14 2 20c0 29 -17 45 -69 45c-64 0 -84 -23 -91 -65zM650 97c-12 -67 -43 -107 -144 -107c-77 0 -108 30 -108 81c0 10 1 17 2 26l13 78c11 67 46 104 143 104c69 0 109 -31 109 -85c0 -10 -1 -15 -2 -22zM459 173l-13 -77c-2 -11 -3 -21 -3 -25
c0 -25 14 -40 70 -40c64 0 84 24 91 65l13 77c1 7 2 14 2 20c0 29 -17 45 -69 45c-64 0 -84 -23 -91 -65z" />
    <glyph glyph-name="plusonum.tnum" 
d="M281 218v-179h-54v179h-175v50h175v179h54v-179h175v-50h-175z" />
    <glyph glyph-name="zeroonum.tnum" 
d="M215 -10c-125 0 -173 51 -173 128c0 16 2 27 4 41l34 192c22 121 82 169 228 169c120 0 172 -59 172 -138c0 -11 -1 -23 -3 -35l-33 -188c-18 -102 -62 -169 -229 -169zM389 164l32 182c2 13 4 25 4 36c0 58 -34 88 -126 88c-109 0 -149 -41 -164 -124l-32 -181
c-2 -14 -4 -27 -4 -39c0 -59 34 -86 125 -86c109 0 150 37 165 124z" />
    <glyph glyph-name="oneonum.tnum" 
d="M48 0l8 49h164l70 395l-167 -70l-19 47l202 89h52l-82 -461h173l-8 -49h-393z" />
    <glyph glyph-name="twoonum.tnum" 
d="M45 0l8 51c97 74 125 98 200 156c102 78 131 106 138 145l2 11c3 16 4 29 4 41c0 47 -26 66 -122 66c-55 0 -93 -9 -136 -21l-11 45c35 12 96 26 162 26c108 0 164 -36 164 -111c0 -14 -2 -29 -5 -45l-2 -11c-10 -57 -21 -74 -148 -176c-66 -53 -89 -71 -166 -127h269
l-8 -50h-349z" />
    <glyph glyph-name="threeonum.tnum" 
d="M177 -146c-53 0 -117 10 -167 30l13 46c48 -16 101 -26 157 -26c109 0 137 31 150 108l8 46c1 6 2 13 2 25c0 53 -35 81 -108 81h-129l9 50h133c70 0 111 35 120 87l14 80c1 6 2 12 2 22c0 49 -39 67 -114 67c-45 0 -100 -9 -141 -18l-8 48c48 12 106 20 156 20
c112 0 164 -44 164 -112c0 -9 -1 -18 -3 -28l-13 -74c-11 -66 -34 -93 -98 -117c45 -10 72 -50 72 -103c0 -14 -1 -20 -2 -28l-8 -47c-18 -105 -50 -157 -209 -157z" />
    <glyph glyph-name="fouronum.tnum" 
d="M348 52l-33 -188h-56l33 188h-286l8 60l335 398h80l-73 -410h99l-9 -48h-98zM363 453l-292 -353h229z" />
    <glyph glyph-name="fiveonum.tnum" 
d="M185 -146c-49 0 -114 9 -162 26l13 46c48 -13 101 -22 147 -22c112 0 140 29 155 114l7 39c2 11 3 22 3 31c0 56 -41 72 -110 76c-49 3 -88 5 -143 8l60 338h319l-6 -50h-265l-43 -242c35 -2 48 -3 94 -6c98 -6 151 -50 151 -121c0 -9 -1 -18 -3 -28l-10 -56
c-18 -102 -60 -153 -207 -153z" />
    <glyph glyph-name="sixonum.tnum" 
d="M225 -10c-118 0 -164 49 -164 122c0 12 1 24 3 36l50 283c29 165 89 225 279 225c31 0 66 -3 102 -12l-9 -47c-29 6 -63 9 -88 9c-167 0 -205 -43 -228 -176l-17 -101c46 15 100 25 149 25c109 0 148 -38 148 -107c0 -15 -2 -31 -5 -48l-10 -51
c-20 -101 -54 -158 -210 -158zM379 146l11 58c2 13 4 24 4 35c0 45 -25 65 -103 65c-48 0 -104 -13 -148 -30l-23 -127c-2 -13 -3 -21 -3 -29c0 -61 43 -78 117 -78c94 0 131 30 145 106z" />
    <glyph glyph-name="sevenonum.tnum" 
d="M105 -136l-40 28l366 570h-343l8 48h399l-5 -46z" />
    <glyph glyph-name="eightonum.tnum" 
d="M221 -10c-123 0 -179 35 -179 113c0 12 2 25 4 39l4 22c15 83 54 130 167 166c-62 38 -94 84 -94 135c0 8 1 15 2 22l2 14c19 105 75 155 211 155c104 0 160 -51 160 -123c0 -7 -1 -17 -3 -28l-3 -18c-11 -66 -47 -116 -152 -158c77 -35 115 -74 115 -134
c0 -10 -1 -19 -3 -31l-4 -22c-19 -106 -68 -152 -227 -152zM435 483l5 27c1 7 2 15 2 22c0 47 -33 74 -113 74c-96 0 -135 -38 -145 -99l-4 -24c-1 -9 -1 -14 -1 -17c0 -43 34 -79 105 -112c92 39 140 71 151 129zM393 146l4 22c2 11 3 22 3 27c0 48 -35 68 -124 108
c-119 -44 -158 -70 -169 -133l-5 -28c-2 -11 -3 -21 -3 -30c0 -56 38 -72 131 -72c106 0 149 26 163 106z" />
    <glyph glyph-name="nineonum.tnum" 
d="M292 520c118 0 164 -49 164 -122c0 -12 -1 -24 -3 -36l-50 -283c-29 -165 -85 -225 -279 -225c-31 0 -66 3 -102 12l9 47c29 -6 63 -9 88 -9c171 0 205 43 228 176l17 101c-46 -15 -100 -25 -149 -25c-109 0 -148 38 -148 107c0 15 2 31 5 48l10 51
c20 101 54 158 210 158zM138 364l-11 -58c-2 -13 -4 -24 -4 -35c0 -45 25 -65 103 -65c48 0 104 13 148 30l23 127c2 13 3 21 3 29c0 61 -43 78 -117 78c-94 0 -131 -30 -145 -106z" />
    <glyph glyph-name="lessonum.tnum" 
d="M443 -10l-399 233v42l397 232l24 -41l-366 -212l368 -213z" />
    <glyph glyph-name="equalonum.tnum" 
d="M83 311v45h347v-45h-347zM83 137v45h347v-45h-347z" />
    <glyph glyph-name="greateronum.tnum" 
d="M74 -10l-24 41l368 213l-366 212l24 41l397 -232v-42z" />
    <glyph glyph-name="centonum.tnum" 
d="M205 -83l16 90c-72 0 -121 34 -121 100c0 9 1 20 3 30l30 170c22 121 67 172 172 179l16 91h54l-16 -91c33 -3 71 -11 95 -19l-12 -47c-38 11 -81 17 -115 17c-89 0 -121 -32 -140 -140l-29 -167c-1 -8 -2 -15 -2 -22c0 -38 24 -51 72 -51s102 11 158 34l9 -47
c-32 -16 -78 -30 -120 -34l-16 -93h-54z" />
    <glyph glyph-name="sterlingonum.tnum" 
d="M89 234l9 47h83c-15 31 -23 58 -24 88c0 104 51 151 195 151c41 0 97 -7 138 -20l-10 -46c-36 9 -98 16 -135 16c-95 0 -130 -29 -130 -90c0 -39 13 -67 29 -99h197l-8 -47h-174c2 -7 4 -18 4 -28c0 -58 -32 -110 -100 -156h272l-9 -50h-360l8 48c57 31 133 89 133 158
c0 9 -2 20 -6 28h-112z" />
    <glyph glyph-name="sectiononum.tnum" 
d="M242 14l-44 -24c-68 97 -98 203 -98 311c0 36 3 72 10 109c14 80 48 110 145 110c41 0 97 -8 137 -22l-11 -45c-45 11 -97 19 -131 19c-56 0 -77 -16 -85 -66c-6 -38 -9 -73 -9 -107c0 -97 26 -182 86 -285zM297 326l44 24c68 -97 98 -203 98 -311c0 -36 -3 -72 -10 -109
c-14 -80 -48 -110 -145 -110c-41 0 -97 8 -137 22l11 45c45 -11 97 -19 131 -19c56 0 77 16 85 66c6 38 9 73 9 107c0 97 -26 182 -86 285z" />
    <glyph glyph-name="yenonum.tnum" 
d="M74 209l8 42h105l-99 259h59l111 -302l212 302h65l-188 -259h104l-8 -42h-127l-38 -53l-7 -35h157l-8 -41h-156l-14 -80h-56l14 80h-157l8 41h156l7 38l-19 50h-129z" />
    <glyph glyph-name="florinonum.tnum" 
d="M482 459c-21 7 -52 13 -74 13c-56 0 -76 -9 -91 -66l-38 -147h140l-12 -46h-142l-77 -303c-21 -79 -42 -107 -121 -107c-27 0 -59 8 -82 19l13 43c18 -7 44 -14 65 -14c49 0 58 15 70 65l76 297h-91l14 46h91l41 156c19 72 49 105 140 105c28 0 61 -6 90 -17z" />
    <glyph glyph-name="endashonum.tnum" 
d="M94 256l8 49h344l-8 -49h-344z" />
    <glyph glyph-name="divideonum.tnum" 
d="M239 368v74h60v-74h-60zM67 218v50h404v-50h-404zM239 44v74h60v-74h-60z" />
    <glyph glyph-name="Euroonum.tnum" 
d="M72 307l7 40h80l4 22c19 107 57 151 209 151c48 0 100 -9 138 -21l-12 -47c-43 11 -91 18 -134 18c-106 0 -129 -21 -145 -102l-4 -21h223l-7 -40h-223l-17 -97h223l-8 -40h-222l-5 -30c-2 -13 -4 -27 -4 -35c0 -52 35 -65 127 -65c36 0 80 5 123 13l1 -47
c-38 -10 -93 -16 -134 -16c-122 0 -173 37 -173 112c0 12 2 25 4 39l5 29h-81l8 40h80l17 97h-80z" />
    <glyph glyph-name="perthousandonum.tnum" horiz-adv-x="1053" 
d="M186 15l321 505l37 -25l-320 -505zM320 338c-12 -67 -43 -107 -144 -107c-77 0 -108 30 -108 81c0 10 1 17 2 26l13 78c11 67 46 104 143 104c69 0 109 -31 109 -85c0 -10 -1 -15 -2 -22zM129 414l-13 -77c-2 -11 -3 -21 -3 -25c0 -25 14 -40 70 -40c64 0 84 24 91 65
l13 77c1 7 2 14 2 20c0 29 -17 45 -69 45c-64 0 -84 -23 -91 -65zM650 97c-12 -67 -43 -107 -144 -107c-77 0 -108 30 -108 81c0 10 1 17 2 26l13 78c11 67 46 104 143 104c69 0 109 -31 109 -85c0 -10 -1 -15 -2 -22zM459 173l-13 -77c-2 -11 -3 -21 -3 -25
c0 -25 14 -40 70 -40c64 0 84 24 91 65l13 77c1 7 2 14 2 20c0 29 -17 45 -69 45c-64 0 -84 -23 -91 -65zM975 97c-12 -67 -43 -107 -144 -107c-77 0 -108 30 -108 81c0 10 1 17 2 26l13 78c11 67 46 104 143 104c69 0 109 -31 109 -85c0 -10 -1 -15 -2 -22zM784 173
l-13 -77c-2 -11 -3 -21 -3 -25c0 -25 14 -40 70 -40c64 0 84 24 91 65l13 77c1 7 2 14 2 20c0 29 -17 45 -69 45c-64 0 -84 -23 -91 -65z" />
    <glyph glyph-name="minussmcp.tnum" 
d="M125 220v49h260v-49h-260z" />
    <glyph glyph-name="multiplysmcp.tnum" 
d="M432 50l-158 158l-158 -158l-35 35l157 159l-157 159l35 35l158 -158l158 158l35 -35l-157 -159l157 -159z" />
    <glyph glyph-name="numbersignsmcp.tnum" 
d="M523 350h-95l-40 -177h94l-11 -45h-94l-28 -128h-50l28 128h-163l-28 -128h-50l28 128h-92l11 45h92l40 177h-91l11 45h90l29 125h50l-29 -125h163l29 125h50l-29 -125h94zM215 350l-40 -177h163l40 177h-163z" />
    <glyph glyph-name="dollarsmcp.tnum" 
d="M177 -92l16 92c-44 3 -88 13 -126 28l12 46c52 -18 102 -26 155 -26c96 0 113 13 125 80c4 22 7 39 7 51c0 36 -21 42 -96 60c-106 26 -138 44 -138 103c0 16 2 34 6 57c15 91 49 120 167 123l15 86h54l-15 -87c33 -2 73 -8 113 -19l-10 -47c-48 10 -100 17 -134 17
c-111 0 -123 -9 -136 -83c-3 -18 -6 -35 -6 -44c0 -33 22 -41 104 -62c101 -26 131 -42 131 -97c0 -16 -2 -35 -6 -58c-16 -93 -36 -123 -169 -129l-15 -91h-54z" />
    <glyph glyph-name="percentsmcp.tnum" horiz-adv-x="722" 
d="M215 -10l-36 25l326 515l35 -23zM170 237c-77 0 -107 31 -107 81c0 10 1 18 3 28l14 79c13 74 52 105 142 105c69 0 107 -28 107 -81c0 -10 -1 -17 -2 -23l-14 -80c-12 -68 -42 -109 -143 -109zM267 346l14 79c1 7 2 12 2 20c0 28 -16 44 -68 44c-63 0 -81 -24 -89 -65
l-15 -83c-1 -7 -2 -14 -2 -21c0 -27 15 -42 69 -42c63 0 81 24 89 68zM498 -10c-77 0 -107 31 -107 81c0 8 1 18 3 28l14 79c13 74 52 105 142 105c69 0 107 -28 107 -81c0 -10 -1 -17 -2 -23l-14 -80c-12 -68 -42 -109 -143 -109zM595 99l14 79c1 7 2 12 2 20
c0 28 -16 44 -68 44c-63 0 -81 -24 -89 -65l-15 -83c-1 -7 -2 -14 -2 -21c0 -27 15 -42 69 -42c63 0 81 24 89 68z" />
    <glyph glyph-name="plussmcp.tnum" horiz-adv-x="537" 
d="M294 218v-179h-54v179h-175v50h175v179h54v-179h175v-50h-175z" />
    <glyph glyph-name="zerosmcp.tnum" 
d="M216 -10c-113 0 -158 47 -158 111c0 9 1 19 3 29l47 267c16 89 73 133 203 133c110 0 158 -50 158 -117c0 -6 -1 -16 -3 -27l-46 -261c-14 -79 -60 -135 -204 -135zM365 130l46 261c2 11 2 17 2 23c0 46 -31 66 -111 66c-92 0 -128 -26 -140 -94l-45 -255
c-2 -11 -2 -21 -2 -25c0 -45 28 -66 110 -66c90 0 129 28 140 90z" />
    <glyph glyph-name="onesmcp.tnum" 
d="M49 0l8 49h165l73 408l-170 -80l-20 45l205 98h52l-84 -471h172l-8 -49h-393z" />
    <glyph glyph-name="twosmcp.tnum" 
d="M57 0l3 45c84 74 107 94 191 169c102 91 114 109 123 160l5 29c2 11 3 21 3 29c0 36 -22 48 -104 48c-35 0 -93 -7 -135 -17l-6 47c47 13 113 20 155 20c97 0 147 -29 147 -94c0 -8 -1 -18 -3 -28l-7 -39c-10 -58 -16 -78 -134 -184c-91 -82 -105 -94 -152 -135h238
l-8 -50h-316z" />
    <glyph glyph-name="threesmcp.tnum" 
d="M186 -10c-38 0 -93 8 -132 20l11 44c36 -10 90 -17 126 -17c87 0 126 14 137 76l10 57c1 6 2 11 2 15c0 40 -33 53 -86 53h-119l9 46h120c60 0 88 25 95 67l12 69c1 6 2 13 2 17c0 37 -28 48 -92 48c-38 0 -92 -6 -132 -14l-2 44c37 8 94 15 143 15
c101 0 139 -31 139 -88c0 -9 -1 -18 -3 -28l-12 -68c-7 -39 -24 -69 -71 -85c36 -10 53 -34 53 -69c0 -8 -1 -16 -3 -26l-10 -57c-15 -86 -59 -119 -197 -119z" />
    <glyph glyph-name="foursmcp.tnum" 
d="M366 127l-22 -127h-56l22 127h-272l2 52l317 341h79l-62 -347h82l-7 -46h-83zM370 467l-269 -294h217z" />
    <glyph glyph-name="fivesmcp.tnum" 
d="M203 -10c-46 0 -102 7 -144 21l11 47c43 -11 90 -18 142 -18c90 0 124 17 135 79l7 40c1 6 2 12 2 18c0 38 -27 60 -89 60h-154l50 283h300l-7 -50h-246l-32 -183h99c94 0 135 -42 135 -104c0 -13 -2 -22 -3 -30l-7 -40c-14 -79 -49 -123 -199 -123z" />
    <glyph glyph-name="sixsmcp.tnum" 
d="M231 -10c-112 0 -151 36 -151 96c0 10 1 21 3 32l43 245c22 126 70 167 215 167c40 0 88 -6 134 -21l-11 -45c-45 12 -95 18 -128 18c-116 0 -139 -31 -156 -130l-14 -80c36 13 84 21 127 21c98 0 140 -28 140 -91c0 -10 -1 -20 -3 -32l-9 -51
c-15 -85 -50 -129 -190 -129zM374 169c2 10 3 20 3 27c0 39 -25 47 -93 47c-41 0 -84 -9 -127 -23l-19 -106c-2 -12 -2 -17 -2 -23c0 -43 30 -53 103 -53c77 0 115 19 125 76z" />
    <glyph glyph-name="sevensmcp.tnum" 
d="M155 0h-63l335 470h-307l9 50h365l-2 -47z" />
    <glyph glyph-name="eightsmcp.tnum" 
d="M223 -10c-114 0 -161 34 -161 98c0 10 2 23 3 30l4 23c10 57 45 97 138 125c-61 34 -78 69 -78 105c0 8 1 17 2 25l3 18c13 79 60 116 184 116c106 0 146 -41 146 -97c0 -11 -1 -18 -2 -24l-4 -23c-9 -51 -30 -85 -123 -120c68 -31 97 -62 97 -107c0 -8 -1 -18 -2 -23
l-4 -22c-16 -87 -60 -124 -203 -124zM405 390l4 24c1 5 2 12 2 15c0 36 -28 56 -101 56c-81 0 -115 -26 -123 -71l-4 -23c-1 -7 -1 -11 -1 -16c0 -34 22 -59 93 -86c89 28 122 54 130 101zM371 114l5 27c1 6 1 11 1 14c0 40 -36 59 -110 87c-97 -36 -134 -53 -143 -105
l-4 -23c-1 -7 -2 -13 -2 -19c0 -42 32 -58 113 -58c84 0 129 17 140 77z" />
    <glyph glyph-name="ninesmcp.tnum" 
d="M297 530c107 0 150 -40 150 -105c0 -11 -1 -21 -3 -33l-43 -243c-22 -126 -69 -159 -214 -159c-46 0 -90 8 -136 23l11 45c35 -11 90 -20 130 -20c111 0 137 24 154 121l16 89c-41 -14 -81 -21 -127 -21c-98 0 -140 29 -140 92c0 10 1 21 3 32l9 51c15 85 54 128 190 128
zM154 351c-2 -10 -3 -19 -3 -27c0 -39 25 -47 93 -47c44 0 85 8 127 23l18 103c1 6 2 16 2 23c0 43 -31 56 -102 56c-77 0 -115 -18 -126 -79z" />
    <glyph glyph-name="lesssmcp.tnum" 
d="M430 -10l-399 233v42l397 232l24 -41l-366 -212l368 -213z" />
    <glyph glyph-name="equalsmcp.tnum" 
d="M85 311v45h347v-45h-347zM85 137v45h347v-45h-347z" />
    <glyph glyph-name="greatersmcp.tnum" 
d="M79 -10l-24 41l368 213l-366 212l24 41l397 -232v-42z" />
    <glyph glyph-name="centsmcp.tnum" 
d="M267 35l-19 -105h-54l19 106c-96 8 -132 44 -132 108c0 12 2 24 4 38l28 157c18 103 63 139 179 145l19 106h54l-19 -106c35 -1 69 -6 98 -14l-8 -47c-35 7 -84 12 -120 12c-105 0 -133 -24 -148 -106l-25 -141c-2 -13 -4 -30 -4 -42c0 -47 26 -61 115 -61
c31 0 74 3 120 12l1 -47c-32 -8 -68 -13 -108 -15z" />
    <glyph glyph-name="sterlingsmcp.tnum" 
d="M77 241l9 45h84c-15 31 -24 63 -25 93c0 99 51 151 195 151c41 0 97 -7 138 -20l-10 -44c-36 9 -98 16 -135 16c-95 0 -132 -31 -132 -92c0 -39 13 -72 29 -104h199l-8 -45h-176c2 -7 4 -20 4 -30c0 -58 -33 -114 -103 -161h277l-9 -50h-360l8 48c63 33 133 94 133 163
c0 9 -2 22 -6 30h-112z" />
    <glyph glyph-name="sectionsmcp.tnum" 
d="M239 14l-44 -24c-68 97 -105 213 -105 321c0 36 3 72 10 109c14 80 48 110 145 110c41 0 97 -8 137 -22l-11 -45c-45 11 -97 19 -131 19c-56 0 -77 -16 -85 -66c-6 -38 -9 -73 -9 -107c0 -97 26 -187 93 -295zM286 359l44 24c68 -97 105 -213 105 -321
c0 -36 -3 -72 -10 -109c-14 -80 -48 -110 -145 -110c-41 0 -97 8 -137 22l11 45c45 -11 97 -19 131 -19c56 0 77 16 85 66c6 38 9 73 9 107c0 97 -26 187 -93 295z" />
    <glyph glyph-name="yensmcp.tnum" 
d="M69 214l8 41h104l-100 265h56l116 -310l216 310h66l-189 -265h98l-8 -41h-119l-45 -63l-5 -27h154l-8 -41h-153l-15 -83h-56l14 83h-157l8 41h157l6 35l-21 55h-127z" />
    <glyph glyph-name="florinsmcp.tnum" 
d="M489 459c-21 7 -52 13 -74 13c-56 0 -76 -9 -91 -66l-38 -147h140l-12 -46h-142l-77 -303c-21 -79 -42 -107 -121 -107c-27 0 -59 8 -82 19l13 43c18 -7 44 -14 65 -14c49 0 58 15 70 65l76 297h-91l14 46h91l41 156c19 72 49 105 140 105c28 0 61 -6 90 -17z" />
    <glyph glyph-name="endashsmcp.tnum" 
d="M78 256l8 49h344l-8 -49h-344z" />
    <glyph glyph-name="dividesmcp.tnum" 
d="M232 368v74h60v-74h-60zM60 218v50h404v-50h-404zM232 44v74h60v-74h-60z" />
    <glyph glyph-name="Eurosmcp.tnum" 
d="M274 -10c-124 0 -165 32 -165 100c0 13 1 27 4 43l7 40h-80l7 39h80l17 96h-80l7 39h80l7 40c18 102 66 143 211 143c41 0 95 -7 131 -20l-11 -46c-43 11 -91 17 -127 17c-106 0 -135 -19 -150 -101l-6 -33h222l-7 -39h-222l-17 -96h222l-7 -39h-221l-6 -33
c-3 -17 -5 -29 -5 -43c0 -45 26 -58 119 -58c36 0 81 6 128 17l3 -46c-41 -13 -100 -20 -141 -20z" />
    <glyph glyph-name="perthousandsmcp.tnum" horiz-adv-x="1035" 
d="M215 -10l-36 25l326 515l35 -23zM170 237c-77 0 -107 31 -107 81c0 10 1 18 3 28l14 79c13 74 52 105 142 105c69 0 107 -28 107 -81c0 -10 -1 -17 -2 -23l-14 -80c-12 -68 -42 -109 -143 -109zM267 346l14 79c1 7 2 12 2 20c0 28 -16 44 -68 44c-63 0 -81 -24 -89 -65
l-15 -83c-1 -7 -2 -14 -2 -21c0 -27 15 -42 69 -42c63 0 81 24 89 68zM498 -10c-77 0 -107 31 -107 81c0 8 1 18 3 28l14 79c13 74 52 105 142 105c69 0 107 -28 107 -81c0 -10 -1 -17 -2 -23l-14 -80c-12 -68 -42 -109 -143 -109zM595 99l14 79c1 7 2 12 2 20
c0 28 -16 44 -68 44c-63 0 -81 -24 -89 -65l-15 -83c-1 -7 -2 -14 -2 -21c0 -27 15 -42 69 -42c63 0 81 24 89 68zM811 -10c-77 0 -107 31 -107 81c0 8 1 18 3 28l14 79c13 74 52 105 142 105c69 0 107 -28 107 -81c0 -10 -1 -17 -2 -23l-14 -80c-12 -68 -42 -109 -143 -109
zM908 99l14 79c1 7 2 12 2 20c0 28 -16 44 -68 44c-63 0 -81 -24 -89 -65l-15 -83c-1 -7 -2 -14 -2 -21c0 -27 15 -42 69 -42c63 0 81 24 89 68z" />
    <glyph glyph-name="minus.smcp" horiz-adv-x="390" 
d="M65 220v49h260v-49h-260z" />
    <glyph glyph-name="multiply.smcp" horiz-adv-x="541" 
d="M431 50l-158 158l-158 -158l-35 35l157 159l-157 159l35 35l158 -158l158 158l35 -35l-157 -159l157 -159z" />
    <glyph glyph-name="exclam.smcp" horiz-adv-x="263" 
d="M133 172h-32l5 97l44 251h56l-44 -251zM57 0l14 84h60l-14 -84h-60z" />
    <glyph glyph-name="numbersign.smcp" horiz-adv-x="646" 
d="M604 350h-115l-40 -177h114l-11 -45h-114l-28 -128h-50l28 128h-183l-28 -128h-50l28 128h-112l11 45h112l40 177h-111l11 45h110l29 125h50l-29 -125h183l29 125h50l-29 -125h114zM256 350l-40 -177h183l40 177h-183z" />
    <glyph glyph-name="dollar.smcp" horiz-adv-x="470" 
d="M143 -92l16 92c-44 3 -88 13 -126 28l12 46c52 -18 102 -26 155 -26c96 0 113 13 125 80c4 22 7 39 7 51c0 36 -21 42 -96 60c-106 26 -138 44 -138 103c0 16 2 34 6 57c15 91 49 120 167 123l15 86h54l-15 -87c33 -2 73 -8 113 -19l-10 -47c-48 10 -100 17 -134 17
c-111 0 -123 -9 -136 -83c-3 -18 -6 -35 -6 -44c0 -33 22 -41 104 -62c101 -26 131 -42 131 -97c0 -16 -2 -35 -6 -58c-16 -93 -36 -123 -169 -129l-15 -91h-54z" />
    <glyph glyph-name="percent.smcp" horiz-adv-x="722" 
d="M215 -10l-36 25l326 515l35 -23zM170 237c-77 0 -107 31 -107 81c0 10 1 18 3 28l14 79c13 74 52 105 142 105c69 0 107 -28 107 -81c0 -10 -1 -17 -2 -23l-14 -80c-12 -68 -42 -109 -143 -109zM267 346l14 79c1 7 2 12 2 20c0 28 -16 44 -68 44c-63 0 -81 -24 -89 -65
l-15 -83c-1 -7 -2 -14 -2 -21c0 -27 15 -42 69 -42c63 0 81 24 89 68zM498 -10c-77 0 -107 31 -107 81c0 8 1 18 3 28l14 79c13 74 52 105 142 105c69 0 107 -28 107 -81c0 -10 -1 -17 -2 -23l-14 -80c-12 -68 -42 -109 -143 -109zM595 99l14 79c1 7 2 12 2 20
c0 28 -16 44 -68 44c-63 0 -81 -24 -89 -65l-15 -83c-1 -7 -2 -14 -2 -21c0 -27 15 -42 69 -42c63 0 81 24 89 68z" />
    <glyph glyph-name="ampersand.smcp" horiz-adv-x="569" 
d="M446 238l-39 -226c-53 -15 -118 -22 -172 -22c-117 0 -169 32 -169 99c0 9 1 19 3 30l10 56c10 58 34 81 84 89c-30 15 -41 36 -41 64c0 8 1 19 3 29l11 63c14 79 57 110 190 110c54 0 107 -7 151 -18l-8 -44c-48 9 -109 14 -150 14c-88 0 -118 -12 -129 -73l-10 -57
c-7 -45 10 -66 75 -66h283l-6 -48h-86zM392 238h-152c-67 0 -99 -22 -108 -74l-8 -45c-1 -7 -2 -14 -2 -21c0 -44 32 -60 123 -60c39 0 76 4 114 11z" />
    <glyph glyph-name="plus.smcp" horiz-adv-x="537" 
d="M294 218v-179h-54v179h-175v50h175v179h54v-179h175v-50h-175z" />
    <glyph glyph-name="zero.smcp" horiz-adv-x="510" 
d="M208 -10c-113 0 -158 47 -158 111c0 9 1 19 3 29l47 267c16 89 73 133 203 133c110 0 158 -50 158 -117c0 -6 -1 -16 -3 -27l-46 -261c-14 -79 -60 -135 -204 -135zM357 130l46 261c2 11 2 17 2 23c0 46 -31 66 -111 66c-92 0 -128 -26 -140 -94l-45 -255
c-2 -11 -2 -21 -2 -25c0 -45 28 -66 110 -66c90 0 129 28 140 90z" />
    <glyph glyph-name="one.smcp" horiz-adv-x="321" 
d="M120 0l81 458l-142 -63l-19 43l177 82h51l-92 -520h-56z" />
    <glyph glyph-name="two.smcp" horiz-adv-x="456" 
d="M21 0l3 45c84 74 107 94 191 169c102 91 114 109 123 160l5 29c2 11 3 21 3 29c0 36 -22 48 -104 48c-35 0 -93 -7 -135 -17l-6 47c47 13 113 20 155 20c97 0 147 -29 147 -94c0 -8 -1 -18 -3 -28l-7 -39c-10 -58 -16 -78 -134 -184c-91 -82 -105 -94 -152 -135h238
l-8 -50h-316z" />
    <glyph glyph-name="three.smcp" horiz-adv-x="447" 
d="M148 -10c-38 0 -93 8 -132 20l11 44c36 -10 90 -17 126 -17c87 0 126 14 137 76l10 57c1 6 2 11 2 15c0 40 -33 53 -86 53h-119l9 46h120c60 0 88 25 95 67l12 69c1 6 2 13 2 17c0 37 -28 48 -92 48c-38 0 -92 -6 -132 -14l-2 44c37 8 94 15 143 15
c101 0 139 -31 139 -88c0 -9 -1 -18 -3 -28l-12 -68c-7 -39 -24 -69 -71 -85c36 -10 53 -34 53 -69c0 -8 -1 -16 -3 -26l-10 -57c-15 -86 -59 -119 -197 -119z" />
    <glyph glyph-name="four.smcp" horiz-adv-x="483" 
d="M345 127l-22 -127h-56l22 127h-272l2 52l317 341h79l-62 -347h82l-7 -46h-83zM349 467l-269 -294h217z" />
    <glyph glyph-name="five.smcp" horiz-adv-x="465" 
d="M174 -10c-46 0 -102 7 -144 21l11 47c43 -11 90 -18 142 -18c90 0 124 17 135 79l7 40c1 6 2 12 2 18c0 38 -27 60 -89 60h-154l50 283h300l-7 -50h-246l-32 -183h99c94 0 135 -42 135 -104c0 -13 -2 -22 -3 -30l-7 -40c-14 -79 -49 -123 -199 -123z" />
    <glyph glyph-name="six.smcp" horiz-adv-x="476" 
d="M199 -10c-112 0 -151 36 -151 96c0 10 1 21 3 32l43 245c22 126 70 167 215 167c40 0 88 -6 134 -21l-11 -45c-45 12 -95 18 -128 18c-116 0 -139 -31 -156 -130l-14 -80c36 13 84 21 127 21c98 0 140 -28 140 -91c0 -10 -1 -20 -3 -32l-9 -51
c-15 -85 -50 -129 -190 -129zM342 169c2 10 3 20 3 27c0 39 -25 47 -93 47c-41 0 -84 -9 -127 -23l-19 -106c-2 -12 -2 -17 -2 -23c0 -43 30 -53 103 -53c77 0 115 19 125 76z" />
    <glyph glyph-name="seven.smcp" horiz-adv-x="424" 
d="M98 0h-63l335 470h-287l9 50h345l-2 -47z" />
    <glyph glyph-name="eight.smcp" horiz-adv-x="510" 
d="M212 -10c-114 0 -161 34 -161 98c0 10 2 23 3 30l4 23c10 57 45 97 138 125c-61 34 -78 69 -78 105c0 8 1 17 2 25l3 18c13 79 60 116 184 116c106 0 146 -41 146 -97c0 -11 -1 -18 -2 -24l-4 -23c-9 -51 -30 -85 -123 -120c68 -31 97 -62 97 -107c0 -8 -1 -18 -2 -23
l-4 -22c-16 -87 -60 -124 -203 -124zM394 390l4 24c1 5 2 12 2 15c0 36 -28 56 -101 56c-81 0 -115 -26 -123 -71l-4 -23c-1 -7 -1 -11 -1 -16c0 -34 22 -59 93 -86c89 28 122 54 130 101zM360 114l5 27c1 6 1 11 1 14c0 40 -36 59 -110 87c-97 -36 -134 -53 -143 -105
l-4 -23c-1 -7 -2 -13 -2 -19c0 -42 32 -58 113 -58c84 0 129 17 140 77z" />
    <glyph glyph-name="nine.smcp" horiz-adv-x="474" 
d="M276 530c107 0 150 -40 150 -105c0 -11 -1 -21 -3 -33l-43 -243c-22 -126 -69 -159 -214 -159c-46 0 -90 8 -136 23l11 45c35 -11 90 -20 130 -20c111 0 137 24 154 121l16 89c-41 -14 -81 -21 -127 -21c-98 0 -140 29 -140 92c0 10 1 21 3 32l9 51c15 85 54 128 190 128
zM133 351c-2 -10 -3 -19 -3 -27c0 -39 25 -47 93 -47c44 0 85 8 127 23l18 103c1 6 2 16 2 23c0 43 -31 56 -102 56c-77 0 -115 -18 -126 -79z" />
    <glyph glyph-name="less.smcp" horiz-adv-x="549" 
d="M449 -10l-399 233v42l397 232l24 -41l-366 -212l368 -213z" />
    <glyph glyph-name="equal.smcp" horiz-adv-x="472" 
d="M70 311v45h347v-45h-347zM70 137v45h347v-45h-347z" />
    <glyph glyph-name="greater.smcp" horiz-adv-x="549" 
d="M105 -10l-24 41l368 213l-366 212l24 41l397 -232v-42z" />
    <glyph glyph-name="question.smcp" horiz-adv-x="419" 
d="M287 241c-48 -30 -72 -45 -128 -78l-26 43c46 27 60 35 115 68c64 38 67 45 79 114c3 18 5 33 5 46c0 38 -20 49 -95 49c-30 0 -83 -5 -126 -13l-5 46c39 8 102 14 141 14c101 0 141 -28 141 -95c0 -14 -2 -28 -5 -45c-15 -88 -23 -103 -96 -149zM102 0l14 84h60l-14 -84
h-60z" />
    <glyph glyph-name="at.smcp" horiz-adv-x="662" 
d="M457 362l-29 -163c7 -2 16 -3 25 -3c89 0 115 70 115 148c0 87 -69 142 -186 142c-151 0 -274 -101 -274 -276c0 -103 56 -176 220 -176c58 0 113 11 175 31l10 -37c-49 -24 -126 -38 -192 -38c-181 0 -264 90 -264 215c0 195 129 325 334 325c145 0 229 -77 229 -186
c0 -111 -48 -187 -163 -187c-24 0 -51 10 -66 23c-26 -13 -55 -21 -91 -21c-50 0 -70 31 -63 68l15 85c10 57 36 73 103 73c29 0 73 -10 102 -23zM350 347c-34 0 -45 -7 -50 -35l-17 -95c-2 -13 6 -19 28 -19c21 0 52 8 72 19l22 123c-20 5 -39 7 -55 7z" />
    <glyph glyph-name="a.smcp" horiz-adv-x="560" 
d="M422 0l-27 135h-255l-75 -135h-60l286 520h79l107 -520h-55zM325 485l-159 -304h220z" />
    <glyph glyph-name="b.smcp" horiz-adv-x="518" 
d="M285 0h-235l91 520h212c72 0 118 -26 118 -83c0 -7 -1 -16 -2 -22l-11 -62c-7 -40 -17 -69 -73 -87c35 -9 61 -36 61 -78c0 -6 -1 -12 -2 -19l-10 -56c-13 -72 -55 -113 -149 -113zM403 359l10 56c1 5 1 11 1 14c0 28 -20 42 -60 42h-165l-32 -180h157c59 0 81 22 89 68z
M378 114l11 61c1 6 2 11 2 16c0 35 -26 52 -82 52h-161l-34 -194h173c59 0 84 25 91 65z" />
    <glyph glyph-name="c.smcp" horiz-adv-x="474" 
d="M227 -10c-124 0 -173 38 -173 112c0 13 2 26 4 40l42 239c19 108 77 149 219 149c41 0 93 -6 134 -17l-9 -46c-39 8 -94 13 -130 13c-106 0 -144 -21 -159 -105l-41 -233c-2 -13 -4 -27 -4 -35c0 -54 36 -67 127 -67c36 0 86 5 130 13l3 -46c-45 -11 -102 -17 -143 -17z
" />
    <glyph glyph-name="d.smcp" horiz-adv-x="540" 
d="M244 0h-194l92 520h187c117 0 159 -51 159 -120c0 -14 -2 -25 -4 -38l-38 -214c-16 -91 -50 -148 -202 -148zM391 158l36 205c2 13 4 25 4 36c0 52 -31 71 -109 71h-133l-74 -420h133c100 0 130 34 143 108z" />
    <glyph glyph-name="e.smcp" horiz-adv-x="499" 
d="M50 0l91 520h331l-9 -50h-274l-30 -172h255l-9 -50h-255l-35 -198h275l-8 -50h-332z" />
    <glyph glyph-name="f.smcp" horiz-adv-x="479" 
d="M188 470l-33 -190h258l-9 -50h-258l-40 -230h-56l91 520h334l-9 -50h-278z" />
    <glyph glyph-name="g.smcp" horiz-adv-x="529" 
d="M223 -10c-122 0 -169 36 -169 110c0 15 1 24 4 41l42 240c20 112 73 149 219 149c43 0 105 -7 152 -21l-9 -46c-51 11 -102 17 -149 17c-109 0 -143 -22 -158 -106l-41 -232c-2 -14 -4 -26 -4 -37c0 -47 28 -65 120 -65c36 0 86 5 122 13l33 180h54l-38 -217
c-56 -18 -122 -26 -178 -26z" />
    <glyph glyph-name="h.smcp" horiz-adv-x="581" 
d="M385 0l43 246h-279l-43 -246h-56l92 520h56l-40 -224h279l40 224h56l-92 -520h-56z" />
    <glyph glyph-name="i.smcp" horiz-adv-x="252" 
d="M53 0l92 520h56l-92 -520h-56z" />
    <glyph glyph-name="j.smcp" horiz-adv-x="241" 
d="M-27 -150l-30 39c96 76 102 82 108 116l91 515h56l-91 -514c-10 -58 -11 -62 -134 -156z" />
    <glyph glyph-name="k.smcp" horiz-adv-x="509" 
d="M366 0l-197 265l269 255h74l-275 -260l195 -260h-66zM50 0l91 520h56l-91 -520h-56z" />
    <glyph glyph-name="l.smcp" horiz-adv-x="453" 
d="M50 0l91 520h56l-83 -470h260l-8 -50h-316z" />
    <glyph glyph-name="m.smcp" horiz-adv-x="708" 
d="M519 0l67 456l-225 -390h-83l-86 393l-93 -459h-55l109 520h75l96 -418l244 418h80l-73 -520h-56z" />
    <glyph glyph-name="n.smcp" horiz-adv-x="591" 
d="M374 0l-188 466l-82 -466h-54l91 520h77l187 -469l83 469h55l-92 -520h-77z" />
    <glyph glyph-name="o.smcp" horiz-adv-x="565" 
d="M236 -10c-136 0 -180 53 -180 125c0 11 1 22 3 33l39 222c20 112 84 160 233 160c119 0 179 -55 179 -134c0 -8 -1 -18 -3 -29l-39 -220c-18 -99 -61 -157 -232 -157zM412 148l39 221c2 10 3 19 3 27c0 56 -38 84 -132 84c-114 0 -155 -37 -168 -111l-39 -221
c-1 -6 -3 -19 -3 -28c0 -53 37 -80 133 -80c114 0 155 37 167 108z" />
    <glyph glyph-name="p.smcp" horiz-adv-x="501" 
d="M288 186h-149l-33 -186h-56l92 520h200c101 0 140 -37 140 -94c0 -9 -1 -18 -3 -28l-16 -94c-12 -74 -49 -118 -175 -118zM408 311l15 86c1 6 2 15 2 22c0 39 -26 51 -90 51h-146l-41 -234h146c73 0 105 21 114 75z" />
    <glyph glyph-name="q.smcp" horiz-adv-x="565" 
d="M371 -94l-7 -42c-68 11 -146 19 -245 22l5 42c80 -1 183 -10 247 -22zM236 -10c-136 0 -180 53 -180 125c0 11 1 22 3 33l39 222c20 112 84 160 233 160c119 0 179 -55 179 -134c0 -8 -1 -18 -3 -29l-39 -220c-18 -99 -61 -157 -232 -157zM412 148l39 221c2 10 3 19 3 27
c0 56 -38 84 -132 84c-114 0 -155 -37 -168 -111l-39 -221c-1 -6 -3 -19 -3 -28c0 -53 37 -80 133 -80c114 0 155 37 167 108z" />
    <glyph glyph-name="r.smcp" horiz-adv-x="564" 
d="M413 0l-99 188h-175l-33 -188h-56l92 520h212c103 0 142 -41 142 -98c0 -8 0 -14 -2 -25l-16 -90c-10 -57 -33 -90 -106 -112l102 -195h-61zM424 312l15 85c1 7 2 12 2 19c0 38 -27 54 -91 54h-161l-41 -232h161c74 0 106 22 115 74z" />
    <glyph glyph-name="s.smcp" horiz-adv-x="499" 
d="M202 -10c-52 0 -116 12 -163 30l12 46c52 -16 105 -26 161 -26c96 0 120 17 132 84c3 18 6 33 6 45c0 40 -24 50 -111 69c-110 24 -137 53 -137 108c0 17 2 36 6 57c17 96 55 127 200 127c38 0 96 -6 149 -21l-10 -47c-46 11 -99 18 -141 18c-116 0 -130 -14 -143 -87
c-3 -19 -5 -31 -5 -42c0 -36 21 -47 100 -65c115 -26 148 -47 148 -110c0 -13 -1 -26 -6 -52c-15 -85 -41 -134 -198 -134z" />
    <glyph glyph-name="t.smcp" horiz-adv-x="476" 
d="M304 470l-82 -470h-56l82 470h-180l9 50h416l-9 -50h-180z" />
    <glyph glyph-name="u.smcp" horiz-adv-x="584" 
d="M246 -10c-130 0 -178 51 -178 124c0 12 1 23 3 35l66 371h56l-66 -371c-2 -11 -3 -23 -3 -30c0 -50 31 -79 131 -79c102 0 151 35 164 108l66 372h56l-66 -372c-16 -92 -68 -158 -229 -158z" />
    <glyph glyph-name="v.smcp" horiz-adv-x="499" 
d="M250 0h-76l-99 520h55l87 -474l246 474h60z" />
    <glyph glyph-name="w.smcp" horiz-adv-x="776" 
d="M553 0h-81l-42 474l-204 -474h-78l-68 520h53l60 -476l206 476h79l41 -476l226 476h58z" />
    <glyph glyph-name="x.smcp" horiz-adv-x="556" 
d="M9 0l242 267l-139 253h59l117 -212l193 212h67l-232 -256l146 -264h-60l-125 223l-203 -223h-65z" />
    <glyph glyph-name="y.smcp" horiz-adv-x="493" 
d="M261 151l-27 -151h-56l28 159l-136 361h56l116 -310l216 310h66z" />
    <glyph glyph-name="z.smcp" horiz-adv-x="526" 
d="M51 0l-5 45l374 428h-297l8 47h354l3 -45l-373 -428h302l-8 -47h-358z" />
    <glyph glyph-name="cent.smcp" horiz-adv-x="449" 
d="M234 35l-19 -105h-54l19 106c-96 8 -132 44 -132 108c0 12 2 24 4 38l28 157c18 103 63 139 179 145l19 106h54l-19 -106c35 -1 69 -6 98 -14l-8 -47c-35 7 -84 12 -120 12c-105 0 -133 -24 -148 -106l-25 -141c-2 -13 -4 -30 -4 -42c0 -47 26 -61 115 -61
c31 0 74 3 120 12l1 -47c-32 -8 -68 -13 -108 -15z" />
    <glyph glyph-name="sterling.smcp" horiz-adv-x="518" 
d="M72 241l9 45h84c-15 31 -24 63 -25 93c0 99 51 151 195 151c41 0 97 -7 138 -20l-10 -44c-36 9 -98 16 -135 16c-95 0 -132 -31 -132 -92c0 -39 13 -72 29 -104h199l-8 -45h-176c2 -7 4 -20 4 -30c0 -58 -33 -114 -103 -161h277l-9 -50h-360l8 48c63 33 133 94 133 163
c0 9 -2 22 -6 30h-112z" />
    <glyph glyph-name="section.smcp" horiz-adv-x="519" 
d="M236 14l-44 -24c-68 97 -105 213 -105 321c0 36 3 72 10 109c14 80 48 110 145 110c41 0 97 -8 137 -22l-11 -45c-45 11 -97 19 -131 19c-56 0 -77 -16 -85 -66c-6 -38 -9 -73 -9 -107c0 -97 26 -187 93 -295zM283 359l44 24c68 -97 105 -213 105 -321
c0 -36 -3 -72 -10 -109c-14 -80 -48 -110 -145 -110c-41 0 -97 8 -137 22l11 45c45 -11 97 -19 131 -19c56 0 77 16 85 66c6 38 9 73 9 107c0 97 -26 187 -93 295z" />
    <glyph glyph-name="paragraph.smcp" horiz-adv-x="484" 
d="M68 280c0 145 106 240 238 240l-71 -402c-101 0 -167 68 -167 162zM193 -207l-30 39c97 83 109 89 112 107l102 581h54l-102 -579c-7 -38 -10 -40 -136 -148z" />
    <glyph glyph-name="germandbls.smcp" horiz-adv-x="997" 
d="M202 -10c-52 0 -116 12 -163 30l12 46c52 -16 105 -26 161 -26c96 0 120 17 132 84c3 18 6 33 6 45c0 40 -24 50 -111 69c-110 24 -137 53 -137 108c0 17 2 36 6 57c17 96 55 127 200 127c38 0 96 -6 149 -21l-10 -47c-46 11 -99 18 -141 18c-116 0 -130 -14 -143 -87
c-3 -19 -5 -31 -5 -42c0 -36 21 -47 100 -65c115 -26 148 -47 148 -110c0 -13 -1 -26 -6 -52c-15 -85 -41 -134 -198 -134zM700 -10c-52 0 -116 12 -163 30l12 46c52 -16 105 -26 161 -26c96 0 120 17 132 84c3 18 6 33 6 45c0 40 -24 50 -111 69c-110 24 -137 53 -137 108
c0 17 2 36 6 57c17 96 55 127 200 127c38 0 96 -6 149 -21l-10 -47c-46 11 -99 18 -141 18c-116 0 -130 -14 -143 -87c-3 -19 -5 -31 -5 -42c0 -36 21 -47 100 -65c115 -26 148 -47 148 -110c0 -13 -1 -26 -6 -52c-15 -85 -41 -134 -198 -134z" />
    <glyph glyph-name="yen.smcp" horiz-adv-x="497" 
d="M62 214l8 41h104l-100 265h56l116 -310l216 310h66l-189 -265h98l-8 -41h-119l-45 -63l-5 -27h154l-8 -41h-153l-15 -83h-56l14 83h-157l8 41h157l6 35l-21 55h-127z" />
    <glyph glyph-name="ae.smcp" horiz-adv-x="755" 
d="M422 0l-27 135h-255l-75 -135h-61l287 520h437l-9 -50h-339l36 -172h254l-9 -50h-235l41 -198h179l-8 -50h-216zM325 485l-159 -304h220z" />
    <glyph glyph-name="oslash.smcp" horiz-adv-x="565" 
d="M28 -38l57 73c-20 21 -29 49 -29 80c0 11 1 22 3 33l39 222c19 110 84 160 233 160c50 0 90 -10 119 -28l61 78l28 -21l-61 -78c21 -23 32 -52 32 -85c0 -8 -1 -18 -3 -29l-39 -220c-17 -95 -58 -157 -232 -157c-54 0 -94 9 -122 24l-58 -74zM112 120c0 -15 3 -28 9 -39
l297 381c-21 12 -53 18 -96 18c-114 0 -155 -37 -168 -111l-39 -221c-1 -6 -3 -19 -3 -28zM412 148l39 221c2 10 3 19 3 27c0 16 -4 30 -10 41l-297 -380c22 -12 53 -17 98 -17c114 0 155 37 167 108z" />
    <glyph glyph-name="questiondown.smcp" horiz-adv-x="420" 
d="M146 279c48 30 72 45 128 78l26 -43c-46 -27 -60 -35 -115 -68c-64 -38 -67 -45 -79 -114c-3 -18 -5 -33 -5 -46c0 -38 20 -49 95 -49c30 0 83 5 126 13l5 -46c-39 -8 -102 -14 -141 -14c-101 0 -141 28 -141 95c0 14 2 28 5 45c15 88 23 103 96 149zM331 520l-14 -84
h-60l14 84h60z" />
    <glyph glyph-name="exclamdown.smcp" horiz-adv-x="259" 
d="M130 348h32l-5 -97l-44 -251h-56l44 251zM206 520l-14 -84h-60l14 84h60z" />
    <glyph glyph-name="florin.smcp" horiz-adv-x="477" 
d="M446 459c-21 7 -52 13 -74 13c-56 0 -76 -9 -91 -66l-38 -147h140l-12 -46h-142l-77 -303c-21 -79 -42 -107 -121 -107c-27 0 -59 8 -82 19l13 43c18 -7 44 -14 65 -14c49 0 58 15 70 65l76 297h-91l14 46h91l41 156c19 72 49 105 140 105c28 0 61 -6 90 -17z" />
    <glyph glyph-name="oe.smcp" horiz-adv-x="809" 
d="M692 0h-454c-132 0 -180 53 -180 125c0 11 1 22 3 33l36 202c19 107 84 160 233 160h452l-9 -50h-274l-30 -172h255l-9 -50h-255l-35 -198h275zM442 470h-121c-114 0 -155 -37 -168 -111l-36 -201c-1 -6 -3 -19 -3 -28c0 -53 37 -80 133 -80h122z" />
    <glyph glyph-name="endash.smcp" horiz-adv-x="472" 
d="M70 256l8 49h344l-8 -49h-344z" />
    <glyph glyph-name="divide.smcp" horiz-adv-x="534" 
d="M237 368v74h60v-74h-60zM65 218v50h404v-50h-404zM237 44v74h60v-74h-60z" />
    <glyph glyph-name="Euro.smcp" horiz-adv-x="505" 
d="M264 -10c-124 0 -165 32 -165 100c0 13 1 27 4 43l7 40h-80l7 39h80l17 96h-80l7 39h80l7 40c18 102 66 143 211 143c41 0 95 -7 131 -20l-11 -46c-43 11 -91 17 -127 17c-106 0 -135 -19 -150 -101l-6 -33h222l-7 -39h-222l-17 -96h222l-7 -39h-221l-6 -33
c-3 -17 -5 -29 -5 -43c0 -45 26 -58 119 -58c36 0 81 6 128 17l3 -46c-41 -13 -100 -20 -141 -20z" />
    <glyph glyph-name="fi.smcp" horiz-adv-x="731" 
d="M188 470l-33 -190h258l-9 -50h-258l-40 -230h-56l91 520h334l-9 -50h-278zM532 0l92 520h56l-92 -520h-56z" />
    <glyph glyph-name="fl.smcp" horiz-adv-x="931" 
d="M188 470l-33 -190h258l-9 -50h-258l-40 -230h-56l91 520h334l-9 -50h-278zM528 0l91 520h56l-83 -470h260l-8 -50h-316z" />
    <glyph glyph-name="perthousand.smcp" horiz-adv-x="1035" 
d="M215 -10l-36 25l326 515l35 -23zM170 237c-77 0 -107 31 -107 81c0 10 1 18 3 28l14 79c13 74 52 105 142 105c69 0 107 -28 107 -81c0 -10 -1 -17 -2 -23l-14 -80c-12 -68 -42 -109 -143 -109zM267 346l14 79c1 7 2 12 2 20c0 28 -16 44 -68 44c-63 0 -81 -24 -89 -65
l-15 -83c-1 -7 -2 -14 -2 -21c0 -27 15 -42 69 -42c63 0 81 24 89 68zM498 -10c-77 0 -107 31 -107 81c0 8 1 18 3 28l14 79c13 74 52 105 142 105c69 0 107 -28 107 -81c0 -10 -1 -17 -2 -23l-14 -80c-12 -68 -42 -109 -143 -109zM595 99l14 79c1 7 2 12 2 20
c0 28 -16 44 -68 44c-63 0 -81 -24 -89 -65l-15 -83c-1 -7 -2 -14 -2 -21c0 -27 15 -42 69 -42c63 0 81 24 89 68zM811 -10c-77 0 -107 31 -107 81c0 8 1 18 3 28l14 79c13 74 52 105 142 105c69 0 107 -28 107 -81c0 -10 -1 -17 -2 -23l-14 -80c-12 -68 -42 -109 -143 -109
zM908 99l14 79c1 7 2 12 2 20c0 28 -16 44 -68 44c-63 0 -81 -24 -89 -65l-15 -83c-1 -7 -2 -14 -2 -21c0 -27 15 -42 69 -42c63 0 81 24 89 68z" />
    <glyph glyph-name="dotlessi.smcp" horiz-adv-x="252" 
d="M53 0l92 520h56l-92 -520h-56z" />
    <glyph glyph-name="acute.smcp" horiz-adv-x="279" 
d="M171 573l-21 38c49 26 65 35 117 69l22 -41c-43 -28 -63 -39 -118 -66z" />
    <glyph glyph-name="breve.smcp" horiz-adv-x="379" 
d="M242 575c-59 0 -92 30 -112 64l35 27c16 -27 37 -47 78 -47c40 0 65 16 93 47l28 -28c-26 -37 -64 -63 -122 -63z" />
    <glyph glyph-name="caron.smcp" horiz-adv-x="366" 
d="M125 638l21 34c32 -17 52 -29 87 -53c37 25 55 34 94 54l19 -34c-40 -22 -69 -40 -118 -73c-34 27 -52 41 -103 72z" />
    <glyph glyph-name="cedilla.smcp" horiz-adv-x="309" 
d="M80 -207c-28 0 -53 5 -75 14l11 35c18 -6 40 -11 63 -11c43 0 65 15 65 43c0 16 -15 26 -43 26c-13 0 -33 -1 -45 -3l-6 14l30 89h40l-23 -71c10 2 22 3 30 3c36 0 62 -19 62 -53c0 -54 -39 -86 -109 -86z" />
    <glyph glyph-name="circumflex.smcp" horiz-adv-x="371" 
d="M346 604l-21 -34c-32 17 -52 29 -87 53c-37 -25 -55 -34 -94 -54l-19 34c40 22 69 40 118 73c34 -27 52 -41 103 -72z" />
    <glyph glyph-name="commaaccent.smcp" horiz-adv-x="325" 
d="M72 -251l-22 14l53 94h-23l15 86h60l-15 -86z" />
    <glyph glyph-name="dieresis.smcp" horiz-adv-x="377" 
d="M281 586l14 66h64l-14 -66h-64zM115 586l14 66h64l-14 -66h-64z" />
    <glyph glyph-name="dotaccent.smcp" horiz-adv-x="212" 
d="M125 580l19 113l58 8l-20 -113z" />
    <glyph glyph-name="grave.smcp" horiz-adv-x="292" 
d="M252 611l-21 -38c-54 29 -84 48 -116 73l25 36c37 -26 71 -49 112 -71z" />
    <glyph glyph-name="hungarumlaut.smcp" horiz-adv-x="395" 
d="M167 565l-27 31c35 28 63 54 97 89l30 -35c-36 -35 -65 -60 -100 -85zM310 565l-27 31c35 28 63 54 97 89l30 -35c-36 -35 -65 -60 -100 -85z" />
    <glyph glyph-name="macron.smcp" horiz-adv-x="377" 
d="M125 587l8 44h234l-8 -44h-234z" />
    <glyph glyph-name="ogonek.smcp" horiz-adv-x="318" 
d="M144 -192c-20 -10 -41 -15 -67 -15c-39 0 -72 22 -72 64c0 65 63 113 118 143h55c-66 -40 -124 -82 -124 -135c0 -18 10 -30 36 -30c16 0 31 2 48 8z" />
    <glyph glyph-name="ring.smcp" horiz-adv-x="265" 
d="M177 554c-34 0 -52 19 -52 49c0 44 26 72 73 72c35 0 52 -20 52 -46c0 -41 -21 -75 -73 -75zM194 649c-22 0 -38 -17 -38 -42c0 -15 6 -26 25 -26c26 0 37 20 37 44c0 16 -6 24 -24 24z" />
    <glyph glyph-name="tilde.smcp" horiz-adv-x="391" 
d="M317 578c-40 0 -74 35 -103 35c-24 0 -39 -17 -57 -33l-22 24c20 30 45 53 86 53c38 0 64 -35 98 -35c19 0 28 5 48 24l24 -24c-20 -29 -38 -44 -74 -44z" />
    <glyph glyph-name="aacute.smcp" horiz-adv-x="560" 
d="M422 0l-27 135h-255l-75 -135h-60l286 520h79l107 -520h-55zM325 485l-159 -304h220zM328 573l-21 38c49 26 65 35 117 69l22 -41c-43 -28 -63 -39 -118 -66z" />
    <glyph glyph-name="aeacute.smcp" horiz-adv-x="755" 
d="M422 0l-27 135h-255l-75 -135h-61l287 520h437l-9 -50h-339l36 -172h254l-9 -50h-235l41 -198h179l-8 -50h-216zM325 485l-159 -304h220zM374 573l-21 38c49 26 65 35 117 69l22 -41c-43 -28 -63 -39 -118 -66z" />
    <glyph glyph-name="abreve.smcp" horiz-adv-x="560" 
d="M422 0l-27 135h-255l-75 -135h-60l286 520h79l107 -520h-55zM325 485l-159 -304h220zM340 575c-59 0 -92 30 -112 64l35 27c16 -27 37 -47 78 -47c40 0 65 16 93 47l28 -28c-26 -37 -64 -63 -122 -63z" />
    <glyph glyph-name="acircumflex.smcp" horiz-adv-x="560" 
d="M422 0l-27 135h-255l-75 -135h-60l286 520h79l107 -520h-55zM325 485l-159 -304h220zM446 604l-21 -34c-32 17 -52 29 -87 53c-37 -25 -55 -34 -94 -54l-19 34c40 22 69 40 118 73c34 -27 52 -41 103 -72z" />
    <glyph glyph-name="adieresis.smcp" horiz-adv-x="560" 
d="M422 0l-27 135h-255l-75 -135h-60l286 520h79l107 -520h-55zM325 485l-159 -304h220zM390 586l14 66h64l-14 -66h-64zM224 586l14 66h64l-14 -66h-64z" />
    <glyph glyph-name="agrave.smcp" horiz-adv-x="560" 
d="M422 0l-27 135h-255l-75 -135h-60l286 520h79l107 -520h-55zM325 485l-159 -304h220zM361 611l-21 -38c-54 29 -84 48 -116 73l25 36c37 -26 71 -49 112 -71z" />
    <glyph glyph-name="amacron.smcp" horiz-adv-x="560" 
d="M422 0l-27 135h-255l-75 -135h-60l286 520h79l107 -520h-55zM325 485l-159 -304h220zM217 587l8 44h234l-8 -44h-234z" />
    <glyph glyph-name="aogonek.smcp" horiz-adv-x="560" 
d="M443 -192c-20 -10 -41 -15 -67 -15c-39 0 -72 22 -72 64c0 65 63 113 118 143l-27 135h-255l-75 -135h-60l286 520h79l107 -520c-66 -40 -124 -82 -124 -135c0 -18 10 -30 36 -30c16 0 31 2 48 8zM325 485l-159 -304h220z" />
    <glyph glyph-name="atilde.smcp" horiz-adv-x="560" 
d="M422 0l-27 135h-255l-75 -135h-60l286 520h79l107 -520h-55zM325 485l-159 -304h220zM392 578c-40 0 -74 35 -103 35c-24 0 -39 -17 -57 -33l-22 24c20 30 45 53 86 53c38 0 64 -35 98 -35c19 0 28 5 48 24l24 -24c-20 -29 -38 -44 -74 -44z" />
    <glyph glyph-name="aring.smcp" horiz-adv-x="560" 
d="M422 0l-27 135h-255l-75 -135h-60l286 520h79l107 -520h-55zM325 485l-159 -304h220zM338 554c-34 0 -52 19 -52 49c0 44 26 72 73 72c35 0 52 -20 52 -46c0 -41 -21 -75 -73 -75zM355 649c-22 0 -38 -17 -38 -42c0 -15 6 -26 25 -26c26 0 37 20 37 44c0 16 -6 24 -24 24
z" />
    <glyph glyph-name="aringacute.smcp" horiz-adv-x="560" 
d="M338 556c-34 0 -53 20 -53 50c0 44 27 73 74 73c35 0 53 -21 53 -47c0 -41 -22 -76 -74 -76zM355 652c-22 0 -38 -17 -38 -42c0 -15 6 -26 25 -26c26 0 37 20 37 44c0 16 -6 24 -24 24zM360 705l-20 31c32 21 58 37 90 62l22 -34c-33 -25 -53 -36 -92 -59zM422 0l-27 135
h-255l-75 -135h-60l286 520h79l107 -520h-55zM325 485l-159 -304h220z" />
    <glyph glyph-name="cacute.smcp" horiz-adv-x="474" 
d="M227 -10c-124 0 -173 38 -173 112c0 13 2 26 4 40l42 239c19 108 77 149 219 149c41 0 93 -6 134 -17l-9 -46c-39 8 -94 13 -130 13c-106 0 -144 -21 -159 -105l-41 -233c-2 -13 -4 -27 -4 -35c0 -54 36 -67 127 -67c36 0 86 5 130 13l3 -46c-45 -11 -102 -17 -143 -17z
M273 573l-21 38c49 26 65 35 117 69l22 -41c-43 -28 -63 -39 -118 -66z" />
    <glyph glyph-name="ccaron.smcp" horiz-adv-x="474" 
d="M227 -10c-124 0 -173 38 -173 112c0 13 2 26 4 40l42 239c19 108 77 149 219 149c41 0 93 -6 134 -17l-9 -46c-39 8 -94 13 -130 13c-106 0 -144 -21 -159 -105l-41 -233c-2 -13 -4 -27 -4 -35c0 -54 36 -67 127 -67c36 0 86 5 130 13l3 -46c-45 -11 -102 -17 -143 -17z
M206 638l21 34c32 -17 52 -29 87 -53c37 25 55 34 94 54l19 -34c-40 -22 -69 -40 -118 -73c-34 27 -52 41 -103 72z" />
    <glyph glyph-name="ccedilla.smcp" horiz-adv-x="474" 
d="M197 -207c-28 0 -53 5 -75 14l11 35c18 -6 40 -11 63 -11c43 0 65 15 65 43c0 16 -15 26 -43 26c-13 0 -33 -1 -45 -3l-6 14l27 80c-100 7 -140 44 -140 111c0 13 2 26 4 40l42 239c19 108 77 149 219 149c41 0 93 -6 134 -17l-9 -46c-39 8 -94 13 -130 13
c-106 0 -144 -21 -159 -105l-41 -233c-2 -13 -4 -27 -4 -35c0 -54 36 -67 127 -67c36 0 86 5 130 13l3 -46c-43 -10 -96 -16 -136 -17l-20 -61c10 2 22 3 30 3c36 0 62 -19 62 -53c0 -54 -39 -86 -109 -86z" />
    <glyph glyph-name="ccircumflex.smcp" horiz-adv-x="474" 
d="M227 -10c-124 0 -173 38 -173 112c0 13 2 26 4 40l42 239c19 108 77 149 219 149c41 0 93 -6 134 -17l-9 -46c-39 8 -94 13 -130 13c-106 0 -144 -21 -159 -105l-41 -233c-2 -13 -4 -27 -4 -35c0 -54 36 -67 127 -67c36 0 86 5 130 13l3 -46c-45 -11 -102 -17 -143 -17z
M431 604l-21 -34c-32 17 -52 29 -87 53c-37 -25 -55 -34 -94 -54l-19 34c40 22 69 40 118 73c34 -27 52 -41 103 -72z" />
    <glyph glyph-name="cdotaccent.smcp" horiz-adv-x="474" 
d="M227 -10c-124 0 -173 38 -173 112c0 13 2 26 4 40l42 239c19 108 77 149 219 149c41 0 93 -6 134 -17l-9 -46c-39 8 -94 13 -130 13c-106 0 -144 -21 -159 -105l-41 -233c-2 -13 -4 -27 -4 -35c0 -54 36 -67 127 -67c36 0 86 5 130 13l3 -46c-45 -11 -102 -17 -143 -17z
M286 580l19 113l58 8l-20 -113z" />
    <glyph glyph-name="dcaron.smcp" horiz-adv-x="540" 
d="M244 0h-194l92 520h187c117 0 159 -51 159 -120c0 -14 -2 -25 -4 -38l-38 -214c-16 -91 -50 -148 -202 -148zM391 158l36 205c2 13 4 25 4 36c0 52 -31 71 -109 71h-133l-74 -420h133c100 0 130 34 143 108zM220 638l21 34c32 -17 52 -29 87 -53c37 25 55 34 94 54
l19 -34c-40 -22 -69 -40 -118 -73c-34 27 -52 41 -103 72z" />
    <glyph glyph-name="dcroat.smcp" horiz-adv-x="559" 
d="M47 239l8 46h64l42 235h187c117 0 159 -51 159 -120c0 -12 -2 -25 -4 -38l-38 -214c-16 -91 -50 -148 -202 -148h-194l42 239h-64zM410 158l36 205c2 13 4 25 4 36c0 52 -31 71 -109 71h-133l-33 -185h118l-8 -46h-118l-33 -189h133c100 0 130 34 143 108z" />
    <glyph glyph-name="eacute.smcp" horiz-adv-x="499" 
d="M50 0l91 520h331l-9 -50h-274l-30 -172h255l-9 -50h-255l-35 -198h275l-8 -50h-332zM287 573l-21 38c49 26 65 35 117 69l22 -41c-43 -28 -63 -39 -118 -66z" />
    <glyph glyph-name="ebreve.smcp" horiz-adv-x="499" 
d="M50 0l91 520h331l-9 -50h-274l-30 -172h255l-9 -50h-255l-35 -198h275l-8 -50h-332zM323 575c-59 0 -92 30 -112 64l35 27c16 -27 37 -47 78 -47c40 0 65 16 93 47l28 -28c-26 -37 -64 -63 -122 -63z" />
    <glyph glyph-name="ecaron.smcp" horiz-adv-x="499" 
d="M50 0l91 520h331l-9 -50h-274l-30 -172h255l-9 -50h-255l-35 -198h275l-8 -50h-332zM216 638l21 34c32 -17 52 -29 87 -53c37 25 55 34 94 54l19 -34c-40 -22 -69 -40 -118 -73c-34 27 -52 41 -103 72z" />
    <glyph glyph-name="ecircumflex.smcp" horiz-adv-x="499" 
d="M50 0l91 520h331l-9 -50h-274l-30 -172h255l-9 -50h-255l-35 -198h275l-8 -50h-332zM422 604l-21 -34c-32 17 -52 29 -87 53c-37 -25 -55 -34 -94 -54l-19 34c40 22 69 40 118 73c34 -27 52 -41 103 -72z" />
    <glyph glyph-name="edieresis.smcp" horiz-adv-x="499" 
d="M50 0l91 520h331l-9 -50h-274l-30 -172h255l-9 -50h-255l-35 -198h275l-8 -50h-332zM366 586l14 66h64l-14 -66h-64zM200 586l14 66h64l-14 -66h-64z" />
    <glyph glyph-name="edotaccent.smcp" horiz-adv-x="499" 
d="M50 0l91 520h331l-9 -50h-274l-30 -172h255l-9 -50h-255l-35 -198h275l-8 -50h-332zM291 580l19 113l58 8l-20 -113z" />
    <glyph glyph-name="egrave.smcp" horiz-adv-x="499" 
d="M50 0l91 520h331l-9 -50h-274l-30 -172h255l-9 -50h-255l-35 -198h275l-8 -50h-332zM360 611l-21 -38c-54 29 -84 48 -116 73l25 36c37 -26 71 -49 112 -71z" />
    <glyph glyph-name="emacron.smcp" horiz-adv-x="499" 
d="M50 0l91 520h331l-9 -50h-274l-30 -172h255l-9 -50h-255l-35 -198h275l-8 -50h-332zM202 587l8 44h234l-8 -44h-234z" />
    <glyph glyph-name="eng.smcp" horiz-adv-x="591" 
d="M374 0l-188 466l-82 -466h-54l91 520h77l187 -469l83 469h55l-99 -558c-10 -59 -16 -72 -141 -169l-30 41c96 78 108 87 117 139l5 27h-21z" />
    <glyph glyph-name="eogonek.smcp" horiz-adv-x="499" 
d="M50 0l91 520h331l-9 -50h-274l-30 -172h255l-9 -50h-255l-35 -198h275l-8 -50h-48c-66 -40 -124 -82 -124 -135c0 -18 10 -30 36 -30c16 0 31 2 48 8l6 -35c-20 -10 -41 -15 -67 -15c-39 0 -72 22 -72 64c0 65 63 113 118 143h-229z" />
    <glyph glyph-name="eth.smcp" horiz-adv-x="559" 
d="M47 239l8 46h64l42 235h187c117 0 159 -51 159 -120c0 -12 -2 -25 -4 -38l-38 -214c-16 -91 -50 -148 -202 -148h-194l42 239h-64zM410 158l36 205c2 13 4 25 4 36c0 52 -31 71 -109 71h-133l-33 -185h118l-8 -46h-118l-33 -189h133c100 0 130 34 143 108z" />
    <glyph glyph-name="gbreve.smcp" horiz-adv-x="529" 
d="M223 -10c-122 0 -169 36 -169 110c0 15 1 24 4 41l42 240c20 112 73 149 219 149c43 0 105 -7 152 -21l-9 -46c-51 11 -102 17 -149 17c-109 0 -143 -22 -158 -106l-41 -232c-2 -14 -4 -26 -4 -37c0 -47 28 -65 120 -65c36 0 86 5 122 13l33 180h54l-38 -217
c-56 -18 -122 -26 -178 -26zM330 575c-59 0 -92 30 -112 64l35 27c16 -27 37 -47 78 -47c40 0 65 16 93 47l28 -28c-26 -37 -64 -63 -122 -63z" />
    <glyph glyph-name="gcircumflex.smcp" horiz-adv-x="529" 
d="M223 -10c-122 0 -169 36 -169 110c0 15 1 24 4 41l42 240c20 112 73 149 219 149c43 0 105 -7 152 -21l-9 -46c-51 11 -102 17 -149 17c-109 0 -143 -22 -158 -106l-41 -232c-2 -14 -4 -26 -4 -37c0 -47 28 -65 120 -65c36 0 86 5 122 13l33 180h54l-38 -217
c-56 -18 -122 -26 -178 -26zM430 604l-21 -34c-32 17 -52 29 -87 53c-37 -25 -55 -34 -94 -54l-19 34c40 22 69 40 118 73c34 -27 52 -41 103 -72z" />
    <glyph glyph-name="gcommaaccent.smcp" horiz-adv-x="529" 
d="M223 -10c-122 0 -169 36 -169 110c0 15 1 24 4 41l42 240c20 112 73 149 219 149c43 0 105 -7 152 -21l-9 -46c-51 11 -102 17 -149 17c-109 0 -143 -22 -158 -106l-41 -232c-2 -14 -4 -26 -4 -37c0 -47 28 -65 120 -65c36 0 86 5 122 13l33 180h54l-38 -217
c-56 -18 -122 -26 -178 -26zM173 -251l-22 14l53 94h-23l15 86h60l-15 -86z" />
    <glyph glyph-name="gdotaccent.smcp" horiz-adv-x="529" 
d="M223 -10c-122 0 -169 36 -169 110c0 15 1 24 4 41l42 240c20 112 73 149 219 149c43 0 105 -7 152 -21l-9 -46c-51 11 -102 17 -149 17c-109 0 -143 -22 -158 -106l-41 -232c-2 -14 -4 -26 -4 -37c0 -47 28 -65 120 -65c36 0 86 5 122 13l33 180h54l-38 -217
c-56 -18 -122 -26 -178 -26zM292 580l19 113l58 8l-20 -113z" />
    <glyph glyph-name="hbar.smcp" horiz-adv-x="591" 
d="M69 397l7 42h56l15 81h56l-15 -81h279l15 81h56l-15 -81h57l-7 -42h-57l-70 -397h-56l43 246h-279l-43 -246h-56l70 397h-56zM163 296h279l18 101h-279z" />
    <glyph glyph-name="hcircumflex.smcp" horiz-adv-x="581" 
d="M385 0l43 246h-279l-43 -246h-56l92 520h56l-40 -224h279l40 224h56l-92 -520h-56zM458 604l-21 -34c-32 17 -52 29 -87 53c-37 -25 -55 -34 -94 -54l-19 34c40 22 69 40 118 73c34 -27 52 -41 103 -72z" />
    <glyph glyph-name="iacute.smcp" horiz-adv-x="252" 
d="M53 0l92 520h56l-92 -520h-56zM177 573l-21 38c49 26 65 35 117 69l22 -41c-43 -28 -63 -39 -118 -66z" />
    <glyph glyph-name="ibreve.smcp" horiz-adv-x="252" 
d="M186 575c-59 0 -92 30 -112 64l35 27c16 -27 37 -47 78 -47c40 0 65 16 93 47l28 -28c-26 -37 -64 -63 -122 -63zM53 0l92 520h56l-92 -520h-56z" />
    <glyph glyph-name="icircumflex.smcp" horiz-adv-x="252" 
d="M53 0l92 520h56l-92 -520h-56zM295 604l-21 -34c-32 17 -52 29 -87 53c-37 -25 -55 -34 -94 -54l-19 34c40 22 69 40 118 73c34 -27 52 -41 103 -72z" />
    <glyph glyph-name="idieresis.smcp" horiz-adv-x="252" 
d="M53 0l92 520h56l-92 -520h-56zM235 586l14 66h64l-14 -66h-64zM69 586l14 66h64l-14 -66h-64z" />
    <glyph glyph-name="igrave.smcp" horiz-adv-x="252" 
d="M53 0l92 520h56l-92 -520h-56zM210 611l-21 -38c-54 29 -84 48 -116 73l25 36c37 -26 71 -49 112 -71z" />
    <glyph glyph-name="imacron.smcp" horiz-adv-x="252" 
d="M68 587l8 44h234l-8 -44h-234zM53 0l92 520h56l-92 -520h-56z" />
    <glyph glyph-name="iogonek.smcp" horiz-adv-x="252" 
d="M53 0l91 520h56l-91 -520c-50 -42 -92 -87 -92 -136c0 -18 10 -31 34 -31c19 0 33 4 49 10l6 -35c-20 -10 -39 -15 -65 -15c-47 0 -71 28 -71 65c0 49 38 101 83 142z" />
    <glyph glyph-name="itilde.smcp" horiz-adv-x="252" 
d="M244 578c-40 0 -74 35 -103 35c-24 0 -39 -17 -57 -33l-22 24c20 30 45 53 86 53c38 0 64 -35 98 -35c19 0 28 5 48 24l24 -24c-20 -29 -38 -44 -74 -44zM53 0l92 520h56l-92 -520h-56z" />
    <glyph glyph-name="ij.smcp" horiz-adv-x="493" 
d="M53 0l92 520h56l-92 -520h-56zM225 -150l-30 39c96 76 102 82 108 116l91 515h56l-91 -514c-10 -58 -11 -62 -134 -156z" />
    <glyph glyph-name="jcircumflex.smcp" horiz-adv-x="241" 
d="M-27 -150l-30 39c96 76 102 82 108 116l91 515h56l-91 -514c-10 -58 -11 -62 -134 -156zM290 604l-21 -34c-32 17 -52 29 -87 53c-37 -25 -55 -34 -94 -54l-19 34c40 22 69 40 118 73c34 -27 52 -41 103 -72z" />
    <glyph glyph-name="kcommaaccent.smcp" horiz-adv-x="509" 
d="M366 0l-197 265l269 255h74l-275 -260l195 -260h-66zM50 0l91 520h56l-91 -520h-56zM162 -251l-22 14l53 94h-23l15 86h60l-15 -86z" />
    <glyph glyph-name="lacute.smcp" horiz-adv-x="453" 
d="M50 0l91 520h56l-83 -470h260l-8 -50h-316zM176 573l-21 38c49 26 65 35 117 69l22 -41c-43 -28 -63 -39 -118 -66z" />
    <glyph glyph-name="lcaron.smcp" horiz-adv-x="453" 
d="M50 0l91 520h56l-83 -470h260l-8 -50h-316zM328 326l-22 14l53 94h-23l15 86h60l-15 -86z" />
    <glyph glyph-name="lcommaaccent.smcp" horiz-adv-x="453" 
d="M50 0l91 520h56l-83 -470h260l-8 -50h-316zM162 -251l-22 14l53 94h-23l15 86h60l-15 -86z" />
    <glyph glyph-name="ldot.smcp" horiz-adv-x="453" 
d="M50 0l91 520h56l-83 -470h260l-8 -50h-316zM251 213l15 86h60l-15 -86h-60z" />
    <glyph glyph-name="lslash.smcp" horiz-adv-x="478" 
d="M75 0l41 233l-70 -35l-19 40l98 49l41 233h56l-36 -203l152 75l18 -39l-179 -89l-38 -214h260l-8 -50h-316z" />
    <glyph glyph-name="nacute.smcp" horiz-adv-x="591" 
d="M374 0l-188 466l-82 -466h-54l91 520h77l187 -469l83 469h55l-92 -520h-77zM336 573l-21 38c49 26 65 35 117 69l22 -41c-43 -28 -63 -39 -118 -66z" />
    <glyph glyph-name="ncaron.smcp" horiz-adv-x="591" 
d="M374 0l-188 466l-82 -466h-54l91 520h77l187 -469l83 469h55l-92 -520h-77zM250 638l21 34c32 -17 52 -29 87 -53c37 25 55 34 94 54l19 -34c-40 -22 -69 -40 -118 -73c-34 27 -52 41 -103 72z" />
    <glyph glyph-name="ncommaaccent.smcp" horiz-adv-x="591" 
d="M374 0l-188 466l-82 -466h-54l91 520h77l187 -469l83 469h55l-92 -520h-77zM181 -251l-22 14l53 94h-23l15 86h60l-15 -86z" />
    <glyph glyph-name="ntilde.smcp" horiz-adv-x="591" 
d="M374 0l-188 466l-82 -466h-54l91 520h77l187 -469l83 469h55l-92 -520h-77zM413 578c-40 0 -74 35 -103 35c-24 0 -39 -17 -57 -33l-22 24c20 30 45 53 86 53c38 0 64 -35 98 -35c19 0 28 5 48 24l24 -24c-20 -29 -38 -44 -74 -44z" />
    <glyph glyph-name="oacute.smcp" horiz-adv-x="565" 
d="M236 -10c-136 0 -180 53 -180 125c0 11 1 22 3 33l39 222c20 112 84 160 233 160c119 0 179 -55 179 -134c0 -8 -1 -18 -3 -29l-39 -220c-18 -99 -61 -157 -232 -157zM412 148l39 221c2 10 3 19 3 27c0 56 -38 84 -132 84c-114 0 -155 -37 -168 -111l-39 -221
c-1 -6 -3 -19 -3 -28c0 -53 37 -80 133 -80c114 0 155 37 167 108zM326 573l-21 38c49 26 65 35 117 69l22 -41c-43 -28 -63 -39 -118 -66z" />
    <glyph glyph-name="obreve.smcp" horiz-adv-x="565" 
d="M236 -10c-136 0 -180 53 -180 125c0 11 1 22 3 33l39 222c20 112 84 160 233 160c119 0 179 -55 179 -134c0 -8 -1 -18 -3 -29l-39 -220c-18 -99 -61 -157 -232 -157zM412 148l39 221c2 10 3 19 3 27c0 56 -38 84 -132 84c-114 0 -155 -37 -168 -111l-39 -221
c-1 -6 -3 -19 -3 -28c0 -53 37 -80 133 -80c114 0 155 37 167 108zM350 575c-59 0 -92 30 -112 64l35 27c16 -27 37 -47 78 -47c40 0 65 16 93 47l28 -28c-26 -37 -64 -63 -122 -63z" />
    <glyph glyph-name="ocircumflex.smcp" horiz-adv-x="565" 
d="M236 -10c-136 0 -180 53 -180 125c0 11 1 22 3 33l39 222c20 112 84 160 233 160c119 0 179 -55 179 -134c0 -8 -1 -18 -3 -29l-39 -220c-18 -99 -61 -157 -232 -157zM412 148l39 221c2 10 3 19 3 27c0 56 -38 84 -132 84c-114 0 -155 -37 -168 -111l-39 -221
c-1 -6 -3 -19 -3 -28c0 -53 37 -80 133 -80c114 0 155 37 167 108zM446 604l-21 -34c-32 17 -52 29 -87 53c-37 -25 -55 -34 -94 -54l-19 34c40 22 69 40 118 73c34 -27 52 -41 103 -72z" />
    <glyph glyph-name="odieresis.smcp" horiz-adv-x="565" 
d="M236 -10c-136 0 -180 53 -180 125c0 11 1 22 3 33l39 222c20 112 84 160 233 160c119 0 179 -55 179 -134c0 -8 -1 -18 -3 -29l-39 -220c-18 -99 -61 -157 -232 -157zM412 148l39 221c2 10 3 19 3 27c0 56 -38 84 -132 84c-114 0 -155 -37 -168 -111l-39 -221
c-1 -6 -3 -19 -3 -28c0 -53 37 -80 133 -80c114 0 155 37 167 108zM392 586l14 66h64l-14 -66h-64zM226 586l14 66h64l-14 -66h-64z" />
    <glyph glyph-name="ograve.smcp" horiz-adv-x="565" 
d="M236 -10c-136 0 -180 53 -180 125c0 11 1 22 3 33l39 222c20 112 84 160 233 160c119 0 179 -55 179 -134c0 -8 -1 -18 -3 -29l-39 -220c-18 -99 -61 -157 -232 -157zM412 148l39 221c2 10 3 19 3 27c0 56 -38 84 -132 84c-114 0 -155 -37 -168 -111l-39 -221
c-1 -6 -3 -19 -3 -28c0 -53 37 -80 133 -80c114 0 155 37 167 108zM370 611l-21 -38c-54 29 -84 48 -116 73l25 36c37 -26 71 -49 112 -71z" />
    <glyph glyph-name="ohungarumlaut.smcp" horiz-adv-x="565" 
d="M236 -10c-136 0 -180 53 -180 125c0 11 1 22 3 33l39 222c20 112 84 160 233 160c119 0 179 -55 179 -134c0 -8 -1 -18 -3 -29l-39 -220c-18 -99 -61 -157 -232 -157zM412 148l39 221c2 10 3 19 3 27c0 56 -38 84 -132 84c-114 0 -155 -37 -168 -111l-39 -221
c-1 -6 -3 -19 -3 -28c0 -53 37 -80 133 -80c114 0 155 37 167 108zM265 565l-27 31c35 28 63 54 97 89l30 -35c-36 -35 -65 -60 -100 -85zM408 565l-27 31c35 28 63 54 97 89l30 -35c-36 -35 -65 -60 -100 -85z" />
    <glyph glyph-name="omacron.smcp" horiz-adv-x="565" 
d="M236 -10c-136 0 -180 53 -180 125c0 11 1 22 3 33l39 222c20 112 84 160 233 160c119 0 179 -55 179 -134c0 -8 -1 -18 -3 -29l-39 -220c-18 -99 -61 -157 -232 -157zM412 148l39 221c2 10 3 19 3 27c0 56 -38 84 -132 84c-114 0 -155 -37 -168 -111l-39 -221
c-1 -6 -3 -19 -3 -28c0 -53 37 -80 133 -80c114 0 155 37 167 108zM217 587l8 44h234l-8 -44h-234z" />
    <glyph glyph-name="oslashacute.smcp" horiz-adv-x="565" 
d="M28 -38l57 73c-20 21 -29 49 -29 80c0 11 1 22 3 33l39 222c19 110 84 160 233 160c50 0 90 -10 119 -28l61 78l28 -21l-61 -78c21 -23 32 -52 32 -85c0 -8 -1 -18 -3 -29l-39 -220c-17 -95 -58 -157 -232 -157c-54 0 -94 9 -122 24l-58 -74zM112 120c0 -15 3 -28 9 -39
l297 381c-21 12 -53 18 -96 18c-114 0 -155 -37 -168 -111l-39 -221c-1 -6 -3 -19 -3 -28zM412 148l39 221c2 10 3 19 3 27c0 16 -4 30 -10 41l-297 -380c22 -12 53 -17 98 -17c114 0 155 37 167 108zM305 573l-21 38c49 26 65 35 117 69l22 -41c-43 -28 -63 -39 -118 -66z
" />
    <glyph glyph-name="otilde.smcp" horiz-adv-x="565" 
d="M236 -10c-136 0 -180 53 -180 125c0 11 1 22 3 33l39 222c20 112 84 160 233 160c119 0 179 -55 179 -134c0 -8 -1 -18 -3 -29l-39 -220c-18 -99 -61 -157 -232 -157zM412 148l39 221c2 10 3 19 3 27c0 56 -38 84 -132 84c-114 0 -155 -37 -168 -111l-39 -221
c-1 -6 -3 -19 -3 -28c0 -53 37 -80 133 -80c114 0 155 37 167 108zM393 578c-40 0 -74 35 -103 35c-24 0 -39 -17 -57 -33l-22 24c20 30 45 53 86 53c38 0 64 -35 98 -35c19 0 28 5 48 24l24 -24c-20 -29 -38 -44 -74 -44z" />
    <glyph glyph-name="racute.smcp" horiz-adv-x="564" 
d="M413 0l-99 188h-175l-33 -188h-56l92 520h212c103 0 142 -41 142 -98c0 -8 0 -14 -2 -25l-16 -90c-10 -57 -33 -90 -106 -112l102 -195h-61zM424 312l15 85c1 7 2 12 2 19c0 38 -27 54 -91 54h-161l-41 -232h161c74 0 106 22 115 74zM292 573l-21 38c49 26 65 35 117 69
l22 -41c-43 -28 -63 -39 -118 -66z" />
    <glyph glyph-name="rcaron.smcp" horiz-adv-x="564" 
d="M413 0l-99 188h-175l-33 -188h-56l92 520h212c103 0 142 -41 142 -98c0 -8 0 -14 -2 -25l-16 -90c-10 -57 -33 -90 -106 -112l102 -195h-61zM424 312l15 85c1 7 2 12 2 19c0 38 -27 54 -91 54h-161l-41 -232h161c74 0 106 22 115 74zM220 638l21 34c32 -17 52 -29 87 -53
c37 25 55 34 94 54l19 -34c-40 -22 -69 -40 -118 -73c-34 27 -52 41 -103 72z" />
    <glyph glyph-name="rcommaaccent.smcp" horiz-adv-x="564" 
d="M413 0l-99 188h-175l-33 -188h-56l92 520h212c103 0 142 -41 142 -98c0 -8 0 -14 -2 -25l-16 -90c-10 -57 -33 -90 -106 -112l102 -195h-61zM424 312l15 85c1 7 2 12 2 19c0 38 -27 54 -91 54h-161l-41 -232h161c74 0 106 22 115 74zM193 -251l-22 14l53 94h-23l15 86h60
l-15 -86z" />
    <glyph glyph-name="sacute.smcp" horiz-adv-x="499" 
d="M202 -10c-52 0 -116 12 -163 30l12 46c52 -16 105 -26 161 -26c96 0 120 17 132 84c3 18 6 33 6 45c0 40 -24 50 -111 69c-110 24 -137 53 -137 108c0 17 2 36 6 57c17 96 55 127 200 127c38 0 96 -6 149 -21l-10 -47c-46 11 -99 18 -141 18c-116 0 -130 -14 -143 -87
c-3 -19 -5 -31 -5 -42c0 -36 21 -47 100 -65c115 -26 148 -47 148 -110c0 -13 -1 -26 -6 -52c-15 -85 -41 -134 -198 -134zM272 573l-21 38c49 26 65 35 117 69l22 -41c-43 -28 -63 -39 -118 -66z" />
    <glyph glyph-name="scaron.smcp" horiz-adv-x="499" 
d="M202 -10c-52 0 -116 12 -163 30l12 46c52 -16 105 -26 161 -26c96 0 120 17 132 84c3 18 6 33 6 45c0 40 -24 50 -111 69c-110 24 -137 53 -137 108c0 17 2 36 6 57c17 96 55 127 200 127c38 0 96 -6 149 -21l-10 -47c-46 11 -99 18 -141 18c-116 0 -130 -14 -143 -87
c-3 -19 -5 -31 -5 -42c0 -36 21 -47 100 -65c115 -26 148 -47 148 -110c0 -13 -1 -26 -6 -52c-15 -85 -41 -134 -198 -134zM207 638l21 34c32 -17 52 -29 87 -53c37 25 55 34 94 54l19 -34c-40 -22 -69 -40 -118 -73c-34 27 -52 41 -103 72z" />
    <glyph glyph-name="scedilla.smcp" horiz-adv-x="499" 
d="M178 -207c-28 0 -53 5 -75 14l11 35c18 -6 40 -11 63 -11c43 0 65 15 65 43c0 16 -15 26 -43 26c-13 0 -33 -1 -45 -3l-6 14l27 80c-46 3 -97 14 -136 29l12 46c52 -16 105 -26 161 -26c96 0 120 17 132 84c3 18 6 33 6 45c0 40 -24 50 -111 69c-110 24 -137 53 -137 108
c0 17 2 36 6 57c17 96 55 127 200 127c38 0 96 -6 149 -21l-10 -47c-46 11 -99 18 -141 18c-116 0 -130 -14 -143 -87c-3 -19 -5 -31 -5 -42c0 -36 21 -47 100 -65c115 -26 148 -47 148 -110c0 -13 -1 -26 -6 -52c-15 -83 -40 -131 -185 -134l-20 -61c10 2 22 3 30 3
c36 0 62 -19 62 -53c0 -54 -39 -86 -109 -86z" />
    <glyph glyph-name="scircumflex.smcp" horiz-adv-x="499" 
d="M202 -10c-52 0 -116 12 -163 30l12 46c52 -16 105 -26 161 -26c96 0 120 17 132 84c3 18 6 33 6 45c0 40 -24 50 -111 69c-110 24 -137 53 -137 108c0 17 2 36 6 57c17 96 55 127 200 127c38 0 96 -6 149 -21l-10 -47c-46 11 -99 18 -141 18c-116 0 -130 -14 -143 -87
c-3 -19 -5 -31 -5 -42c0 -36 21 -47 100 -65c115 -26 148 -47 148 -110c0 -13 -1 -26 -6 -52c-15 -85 -41 -134 -198 -134zM423 604l-21 -34c-32 17 -52 29 -87 53c-37 -25 -55 -34 -94 -54l-19 34c40 22 69 40 118 73c34 -27 52 -41 103 -72z" />
    <glyph glyph-name="scommaaccent.smcp" horiz-adv-x="499" 
d="M202 -10c-52 0 -116 12 -163 30l12 46c52 -16 105 -26 161 -26c96 0 120 17 132 84c3 18 6 33 6 45c0 40 -24 50 -111 69c-110 24 -137 53 -137 108c0 17 2 36 6 57c17 96 55 127 200 127c38 0 96 -6 149 -21l-10 -47c-46 11 -99 18 -141 18c-116 0 -130 -14 -143 -87
c-3 -19 -5 -31 -5 -42c0 -36 21 -47 100 -65c115 -26 148 -47 148 -110c0 -13 -1 -26 -6 -52c-15 -85 -41 -134 -198 -134zM143 -251l-22 14l53 94h-23l15 86h60l-15 -86z" />
    <glyph glyph-name="tbar.smcp" horiz-adv-x="476" 
d="M68 208l8 42h147l38 220h-180l9 50h416l-9 -50h-180l-38 -220h147l-8 -42h-147l-36 -208h-56l36 208h-147z" />
    <glyph glyph-name="tcaron.smcp" horiz-adv-x="476" 
d="M304 470l-82 -470h-56l82 470h-180l9 50h416l-9 -50h-180zM189 638l21 34c32 -17 52 -29 87 -53c37 25 55 34 94 54l19 -34c-40 -22 -69 -40 -118 -73c-34 27 -52 41 -103 72z" />
    <glyph glyph-name="tcommaaccent.smcp" horiz-adv-x="476" 
d="M304 470l-82 -470h-56l82 470h-180l9 50h416l-9 -50h-180zM131 -251l-22 14l53 94h-23l15 86h60l-15 -86z" />
    <glyph glyph-name="thorn.smcp" horiz-adv-x="499" 
d="M50 0l92 520h56l-16 -90h144c101 0 140 -37 140 -94c0 -7 -1 -19 -3 -29l-16 -93c-13 -74 -49 -118 -175 -118h-149l-17 -96h-56zM392 221l15 86c1 6 2 13 2 22c0 39 -26 51 -90 51h-146l-41 -234h146c73 0 105 21 114 75z" />
    <glyph glyph-name="uacute.smcp" horiz-adv-x="584" 
d="M246 -10c-130 0 -178 51 -178 124c0 12 1 23 3 35l66 371h56l-66 -371c-2 -11 -3 -23 -3 -30c0 -50 31 -79 131 -79c102 0 151 35 164 108l66 372h56l-66 -372c-16 -92 -68 -158 -229 -158zM321 573l-21 38c49 26 65 35 117 69l22 -41c-43 -28 -63 -39 -118 -66z" />
    <glyph glyph-name="ubreve.smcp" horiz-adv-x="584" 
d="M246 -10c-130 0 -178 51 -178 124c0 12 1 23 3 35l66 371h56l-66 -371c-2 -11 -3 -23 -3 -30c0 -50 31 -79 131 -79c102 0 151 35 164 108l66 372h56l-66 -372c-16 -92 -68 -158 -229 -158zM360 575c-59 0 -92 30 -112 64l35 27c16 -27 37 -47 78 -47c40 0 65 16 93 47
l28 -28c-26 -37 -64 -63 -122 -63z" />
    <glyph glyph-name="ucircumflex.smcp" horiz-adv-x="584" 
d="M246 -10c-130 0 -178 51 -178 124c0 12 1 23 3 35l66 371h56l-66 -371c-2 -11 -3 -23 -3 -30c0 -50 31 -79 131 -79c102 0 151 35 164 108l66 372h56l-66 -372c-16 -92 -68 -158 -229 -158zM462 604l-21 -34c-32 17 -52 29 -87 53c-37 -25 -55 -34 -94 -54l-19 34
c40 22 69 40 118 73c34 -27 52 -41 103 -72z" />
    <glyph glyph-name="udieresis.smcp" horiz-adv-x="584" 
d="M246 -10c-130 0 -178 51 -178 124c0 12 1 23 3 35l66 371h56l-66 -371c-2 -11 -3 -23 -3 -30c0 -50 31 -79 131 -79c102 0 151 35 164 108l66 372h56l-66 -372c-16 -92 -68 -158 -229 -158zM400 586l14 66h64l-14 -66h-64zM234 586l14 66h64l-14 -66h-64z" />
    <glyph glyph-name="ugrave.smcp" horiz-adv-x="584" 
d="M246 -10c-130 0 -178 51 -178 124c0 12 1 23 3 35l66 371h56l-66 -371c-2 -11 -3 -23 -3 -30c0 -50 31 -79 131 -79c102 0 151 35 164 108l66 372h56l-66 -372c-16 -92 -68 -158 -229 -158zM385 611l-21 -38c-54 29 -84 48 -116 73l25 36c37 -26 71 -49 112 -71z" />
    <glyph glyph-name="uhungarumlaut.smcp" horiz-adv-x="584" 
d="M246 -10c-130 0 -178 51 -178 124c0 12 1 23 3 35l66 371h56l-66 -371c-2 -11 -3 -23 -3 -30c0 -50 31 -79 131 -79c102 0 151 35 164 108l66 372h56l-66 -372c-16 -92 -68 -158 -229 -158zM263 565l-27 31c35 28 63 54 97 89l30 -35c-36 -35 -65 -60 -100 -85zM406 565
l-27 31c35 28 63 54 97 89l30 -35c-36 -35 -65 -60 -100 -85z" />
    <glyph glyph-name="umacron.smcp" horiz-adv-x="584" 
d="M246 -10c-130 0 -178 51 -178 124c0 12 1 23 3 35l66 371h56l-66 -371c-2 -11 -3 -23 -3 -30c0 -50 31 -79 131 -79c102 0 151 35 164 108l66 372h56l-66 -372c-16 -92 -68 -158 -229 -158zM235 587l8 44h234l-8 -44h-234z" />
    <glyph glyph-name="uogonek.smcp" horiz-adv-x="584" 
d="M305 -192c-20 -10 -41 -15 -67 -15c-39 0 -72 22 -72 64c0 63 63 105 116 134c-11 -1 -23 -1 -36 -1c-130 0 -178 51 -178 124c0 12 1 23 3 35l66 371h56l-66 -371c-2 -11 -3 -23 -3 -30c0 -50 31 -79 131 -79c102 0 151 35 164 108l66 372h56l-66 -372
c-11 -62 -38 -112 -103 -138c-80 -38 -157 -87 -157 -145c0 -18 10 -30 36 -30c16 0 31 2 48 8z" />
    <glyph glyph-name="uring.smcp" horiz-adv-x="584" 
d="M246 -10c-130 0 -178 51 -178 124c0 12 1 23 3 35l66 371h56l-66 -371c-2 -11 -3 -23 -3 -30c0 -50 31 -79 131 -79c102 0 151 35 164 108l66 372h56l-66 -372c-16 -92 -68 -158 -229 -158zM345 554c-34 0 -52 19 -52 49c0 44 26 72 73 72c35 0 52 -20 52 -46
c0 -41 -21 -75 -73 -75zM362 649c-22 0 -38 -17 -38 -42c0 -15 6 -26 25 -26c26 0 37 20 37 44c0 16 -6 24 -24 24z" />
    <glyph glyph-name="utilde.smcp" horiz-adv-x="584" 
d="M409 578c-40 0 -74 35 -103 35c-24 0 -39 -17 -57 -33l-22 24c20 30 45 53 86 53c38 0 64 -35 98 -35c19 0 28 5 48 24l24 -24c-20 -29 -38 -44 -74 -44zM246 -10c-130 0 -178 51 -178 124c0 12 1 23 3 35l66 371h56l-66 -371c-2 -11 -3 -23 -3 -30c0 -50 31 -79 131 -79
c102 0 151 35 164 108l66 372h56l-66 -372c-16 -92 -68 -158 -229 -158z" />
    <glyph glyph-name="wacute.smcp" horiz-adv-x="776" 
d="M553 0h-81l-42 474l-204 -474h-78l-68 520h53l60 -476l206 476h79l41 -476l226 476h58zM444 573l-21 38c49 26 65 35 117 69l22 -41c-43 -28 -63 -39 -118 -66z" />
    <glyph glyph-name="wcircumflex.smcp" horiz-adv-x="776" 
d="M553 0h-81l-42 474l-204 -474h-78l-68 520h53l60 -476l206 476h79l41 -476l226 476h58zM558 604l-21 -34c-32 17 -52 29 -87 53c-37 -25 -55 -34 -94 -54l-19 34c40 22 69 40 118 73c34 -27 52 -41 103 -72z" />
    <glyph glyph-name="wdieresis.smcp" horiz-adv-x="776" 
d="M553 0h-81l-42 474l-204 -474h-78l-68 520h53l60 -476l206 476h79l41 -476l226 476h58zM501 586l14 66h64l-14 -66h-64zM335 586l14 66h64l-14 -66h-64z" />
    </font>
</defs>
</svg>
